<svg width="991" height="113" viewBox="0 0 991 113" fill="none" xmlns="http://www.w3.org/2000/svg">
<path d="M33.8008 92.913C33.7926 92.9292 33.7797 92.9427 33.7633 92.9506C33.4966 93.0799 33.1861 93.0503 32.8756 93.0658C27.0472 93.0019 16.5113 93.0498 12.4763 92.922C12.0599 92.858 11.9479 92.6662 11.6917 92.2667C11.4835 91.9151 11.1793 91.3876 10.779 90.7004C9.01765 87.6796 6.67989 83.6999 4.8225 80.5034C4.03791 79.1608 3.28534 77.8822 2.53278 76.5876C2.27658 76.1561 2.05242 75.7725 1.81223 75.3569C1.39592 74.6217 1.39592 74.4779 1.81223 73.7427C2.83701 72.0325 3.82975 70.4023 4.87054 68.6442C7.12823 64.9042 9.81825 60.3971 11.9479 56.8809C12.2681 56.3055 12.6524 56.2736 13.2608 56.2736C16.7194 56.3215 28.8245 56.3055 33.5961 56.4174C33.9596 56.4692 34.2119 56.7584 34.4124 57.066C36.7135 60.5954 42.1792 70.3355 44.2281 73.6628C44.4843 74.0943 44.6444 74.366 44.6925 74.5898C44.7886 75.0373 44.4523 75.4209 44.2441 75.8204C42.036 79.2384 35.9422 90.0464 33.8086 92.9002C33.8055 92.9043 33.8031 92.9083 33.8008 92.913Z" stroke="#F8BE14" stroke-width="3" stroke-miterlimit="10"/>
<path d="M76.8756 92.627C76.8848 92.6224 76.8962 92.6269 76.9 92.6364C77.3013 93.6322 76.6649 94.2073 76.0601 95.3035C73.354 99.7787 68.5824 107.674 66.9332 110.407C66.709 110.743 66.5329 111.142 66.1966 111.334C66.0525 111.414 65.8764 111.43 65.6202 111.446C60.3362 111.43 48.6154 111.398 44.9327 111.334C44.5003 111.286 44.3562 111.158 44.1 110.759C43.8919 110.423 43.5877 109.912 43.1713 109.209C41.41 106.204 39.0082 102.144 37.1348 98.9476C36.1421 97.2694 35.2134 95.6871 34.2526 94.0569C33.6282 93.05 33.6122 92.9061 34.2526 91.8832C34.8611 90.8763 35.4375 89.9014 36.078 88.8625C38.688 84.5312 41.7623 79.4167 44.2922 75.2612C44.6124 74.7018 45.0287 74.7018 45.6212 74.7018C48.9161 74.7745 59.658 74.7016 64.7571 74.8206C65.6417 74.8413 66.4876 75.0597 66.9652 75.8046C68.9643 79.2528 74.6055 88.7439 76.8526 92.6206C76.8573 92.6287 76.8672 92.6311 76.8756 92.627Z" stroke="#F8BE14" stroke-width="3" stroke-miterlimit="10"/>
<path d="M98.8981 56.865C98.9051 56.865 98.9112 56.8677 98.9154 56.8733C101.034 59.7311 106.997 70.6295 109.173 74.0625C109.397 74.462 109.717 74.8456 109.605 75.2931C109.541 75.5169 109.381 75.7886 109.125 76.2201C107.03 79.5324 101.444 89.2006 99.1052 92.7225C98.9012 93.0297 98.6498 93.3176 98.2847 93.3696C93.5452 93.4176 81.5362 93.2737 78.0135 93.2897C77.4211 93.2897 77.0208 93.2897 76.7005 92.7143C74.699 89.3739 72.2332 85.1225 70.1356 81.5584C69.2229 80.008 68.3583 78.5216 67.4776 77.0353C66.9652 76.0443 66.0685 75.2612 66.5809 74.1903C67.4936 72.4642 68.5664 70.8819 69.5752 69.1398C71.5126 65.9272 73.9785 61.8357 75.8038 58.8149C76.2202 58.1437 76.5244 57.6162 76.7325 57.2806C76.9887 56.881 77.1168 56.7212 77.5331 56.6573C81.6002 56.5773 92.1521 56.7372 97.9965 56.7372C98.2991 56.7372 98.6175 56.7372 98.8887 56.863C98.8917 56.8643 98.8949 56.865 98.8981 56.865Z" stroke="#F8BE14" stroke-width="3" stroke-miterlimit="10"/>
<path d="M77.3926 20.0122C77.3829 20.0025 77.3853 19.9862 77.3976 19.9803C77.6644 19.8508 77.9751 19.8804 78.2857 19.8649C84.1141 19.9288 94.65 19.8649 98.685 19.9927C99.1014 20.0567 99.2134 20.2485 99.4696 20.648C99.6778 20.9996 99.982 21.5271 100.398 22.2143C102.16 25.2351 104.497 29.1988 106.371 32.3953C107.171 33.7539 107.924 35.0485 108.693 36.3431C108.949 36.7746 109.173 37.1582 109.413 37.5737C109.829 38.3089 109.829 38.4528 109.413 39.188C108.388 40.8981 107.396 42.5284 106.355 44.2865C104.097 48.0264 101.407 52.5336 99.2775 56.0498C98.9572 56.6252 98.573 56.6571 97.9805 56.6571C94.5219 56.6092 82.4008 56.6252 77.6292 56.5293C77.2657 56.4774 77.0134 56.1882 76.813 55.8806C74.5119 52.35 69.0462 42.5952 66.9972 39.2679C66.741 38.8364 66.5809 38.5647 66.5329 38.3409C66.4368 37.8934 66.773 37.5098 66.9812 37.1102C69.1875 33.6952 75.2567 22.9029 77.3952 20.0379C77.4012 20.0298 77.3997 20.0194 77.3926 20.0122Z" stroke="#F8BE14" stroke-width="3" stroke-miterlimit="10"/>
<path d="M34.2934 20.3108C34.298 20.3016 34.2984 20.2907 34.2948 20.2811C33.907 19.2517 34.5757 18.661 35.1493 17.6113C35.3895 17.2117 35.6296 16.8281 35.8698 16.4126C38.6239 11.8575 42.8191 4.85708 44.4363 2.20395C44.7085 1.74045 44.9487 1.48472 45.5411 1.50071C50.5048 1.50071 62.4338 1.5966 65.7963 1.5966C66.1166 1.5966 66.4048 1.5966 66.645 1.72446C66.7891 1.80438 66.9172 1.94822 67.0613 2.18796C67.2694 2.5236 67.5737 3.03505 67.974 3.73829C69.7353 6.74304 72.1531 10.8186 74.0265 14.0152C75.0673 15.7893 76.044 17.4515 77.0528 19.1616C77.4851 19.9128 77.4851 20.0407 77.0528 20.7919C76.6365 21.4791 76.2362 22.1344 75.8039 22.8536C72.9377 27.5845 69.6392 33.1146 66.8531 37.6856C66.5809 38.0852 66.4208 38.1971 65.9885 38.245C62.642 38.293 50.2166 38.1651 46.1656 38.1651C45.2689 38.1651 44.8366 38.245 44.4203 37.5258C42.2617 33.8391 36.4948 24.144 34.2941 20.3446C34.2879 20.334 34.2879 20.3218 34.2934 20.3108Z" stroke="#F8BE14" stroke-width="3" stroke-miterlimit="10"/>
<path d="M12.3044 56.0556C12.2927 56.0615 12.2793 56.0593 12.2715 56.0487C10.1468 53.1775 4.17769 42.2978 2.00437 38.8683C1.79621 38.4687 1.45996 38.0851 1.57205 37.6376C1.6361 37.4139 1.79622 37.1422 2.05241 36.7106C4.14742 33.3983 9.73289 23.7301 12.0721 20.2082C12.2761 19.9011 12.5275 19.6132 12.8926 19.5612C17.6321 19.4972 29.6892 19.6411 33.1798 19.6251C33.7723 19.6251 34.1726 19.6411 34.4928 20.2164C36.4943 23.5568 38.9762 27.8242 41.0737 31.3724C41.9864 32.9067 42.8511 34.3771 43.7157 35.8635C44.2441 36.8705 45.1248 37.6536 44.6124 38.7404C43.6997 40.4506 42.6429 42.0169 41.6342 43.759C39.6967 46.9715 37.2309 51.0631 35.4055 54.0998C34.9892 54.7711 34.6849 55.2985 34.4768 55.6342C34.2206 56.0338 34.0925 56.2096 33.6762 56.2575C29.6091 56.3374 19.0572 56.1776 13.2128 56.1776C12.913 56.1776 12.5976 56.1776 12.328 56.0552C12.3205 56.0518 12.3118 56.0519 12.3044 56.0556Z" stroke="#F8BE14" stroke-width="3" stroke-miterlimit="10"/>
<path d="M55.7248 9.95565C64.0991 9.95565 68.8547 19.5453 63.4746 26.0343C61.2169 28.7673 57.4541 30.0939 53.9635 29.4706C47.5907 28.4956 43.8118 21.4153 46.5819 15.6775C48.1831 12.1932 51.8339 9.93967 55.6928 9.95565H55.7248Z" stroke="#F8BE14" stroke-width="3" stroke-miterlimit="10"/>
<path d="M87.973 28.3357C96.3473 28.3357 101.103 37.9253 95.7228 44.4143C93.4651 47.1473 89.7023 48.4739 86.2117 47.8506C79.8389 46.8756 76.06 39.7953 78.8301 34.0575C80.4313 30.5732 84.0821 28.3197 87.941 28.3357H87.973Z" stroke="#F8BE14" stroke-width="3" stroke-miterlimit="10"/>
<path d="M87.973 64.8563C96.3473 64.8563 101.103 74.4459 95.7228 80.9349C93.4651 83.668 89.7023 84.9945 86.2117 84.3712C79.8389 83.3963 76.06 76.3159 78.8301 70.5781C80.4313 67.0939 84.0821 64.8403 87.941 64.8563H87.973Z" stroke="#F8BE14" stroke-width="3" stroke-miterlimit="10"/>
<path d="M23.1082 28.3357C31.4825 28.3357 36.2381 37.9253 30.8581 44.4143C28.6004 47.1473 24.8375 48.4739 21.3469 47.8506C14.9741 46.8756 11.1953 39.7953 13.9654 34.0575C15.5666 30.5732 19.2173 28.3197 23.0762 28.3357H23.1082Z" stroke="#F8BE14" stroke-width="3" stroke-miterlimit="10"/>
<path d="M23.2523 65.096C31.6266 65.096 36.3822 74.6857 31.0022 81.1747C28.7445 83.9077 24.9816 85.2343 21.491 84.6109C15.1182 83.636 11.3394 76.5557 14.1095 70.8178C15.7107 67.3336 19.3614 65.08 23.2203 65.096H23.2523Z" stroke="#F8BE14" stroke-width="3" stroke-miterlimit="10"/>
<path d="M55.7248 83.4762C64.0991 83.4762 68.8547 93.0658 63.4746 99.5548C61.2169 102.288 57.4541 103.614 53.9635 102.991C47.5907 102.016 43.8118 94.9358 46.5819 89.198C48.1831 85.7137 51.8339 83.4602 55.6928 83.4762H55.7248Z" stroke="#F8BE14" stroke-width="3" stroke-miterlimit="10"/>
<path d="M144.866 18.3685C144.755 15.6381 144.737 12.9217 144.727 10.2054C144.723 7.41354 144.727 4.61692 144.727 1.72109C145.175 1.59354 145.623 1.55103 146.075 1.55103C178.063 1.55103 210.045 1.55103 242.033 1.55103H243.478V42.8579C243.542 42.872 243.611 42.8862 243.676 42.9004C244.054 42.1257 244.424 41.3509 244.816 40.5856C247.017 36.282 249.948 32.654 254.037 30.0936C256.995 28.237 260.217 27.1552 263.646 26.7253C265.053 26.5506 266.479 26.338 267.887 26.3663C273.287 26.4844 278.585 27.0938 283.357 30.0369C287.132 32.3611 289.749 35.6821 291.438 39.8014C292.938 43.4484 293.676 47.2748 293.796 51.2194C293.893 54.4034 293.953 57.5921 293.953 60.7808C293.967 76.5543 293.963 92.3278 293.963 108.101V109.452C293.118 109.712 276.734 109.788 275.017 109.542V108.219C275.017 91.4067 275.036 74.5939 274.994 57.7811C274.99 55.4143 274.805 53.0429 274.168 50.7234C272.793 45.7395 269.368 43.0705 264.624 42.2721C259.344 41.384 254.637 42.976 250.557 46.5615C247.336 49.3912 245.624 53.0712 244.631 57.1764C244.064 59.5242 243.722 61.9146 243.667 64.3427C243.611 66.9504 243.519 69.5628 243.514 72.1752C243.496 84.1789 243.505 96.1826 243.505 108.186C243.505 108.64 243.505 109.093 243.505 109.604H224.509V18.4819H196.768C196.731 22.247 196.754 26.0404 196.749 29.829C196.745 33.6366 196.749 37.4489 196.749 41.2564V86.848C196.749 90.6177 196.749 94.3875 196.749 98.1573C196.749 101.955 196.749 105.754 196.749 109.608H174.901C174.869 109.571 174.841 109.547 174.818 109.519C174.795 109.49 174.754 109.462 174.749 109.429C174.73 109.278 174.712 109.122 174.712 108.971C174.703 78.8833 174.694 48.8007 174.68 18.7134C174.68 18.6756 174.666 18.6378 174.624 18.4441C174.232 18.4347 173.798 18.4111 173.369 18.4111C164.346 18.4111 155.328 18.4111 146.306 18.4111C145.853 18.4111 145.406 18.4016 144.857 18.378L144.866 18.3685Z" fill="#F8BE14"/>
<path d="M408.76 52.604V1.74517C409.66 1.50424 426.523 1.40504 428.946 1.6129C428.974 1.64124 429.002 1.66486 429.025 1.69321C429.048 1.72155 429.076 1.74989 429.085 1.78296C429.103 1.85855 429.112 1.93413 429.117 2.00971C429.122 2.12309 429.126 2.24119 429.126 2.35457C429.135 16.7817 429.145 31.2042 429.154 45.6313C429.154 45.6644 429.177 45.7022 429.186 45.7353C429.209 45.7636 429.232 45.7967 429.26 45.825C429.288 45.8486 429.32 45.8817 429.348 45.8817C443.327 45.9006 457.306 45.9195 471.286 45.9384C471.544 45.9384 471.798 45.9148 472.172 45.8959V1.63652H492.668V109.59H472.227C472.181 108.201 472.213 106.793 472.204 105.39C472.199 103.968 472.204 102.542 472.204 101.12V62.874H429.154C429.094 64.2676 429.131 65.6754 429.126 67.0831C429.117 68.505 429.126 69.9317 429.126 71.3536V105.282C429.126 106.694 429.126 108.111 429.126 109.595H408.76C408.76 90.6229 408.76 71.6749 408.76 52.6087V52.604Z" fill="#F8BE14"/>
<path d="M541.773 87.1035C538.837 79.0349 535.944 71.0465 533.036 63.0582C530.747 56.7611 528.444 50.4734 526.15 44.181C524.918 40.7986 523.704 37.4115 522.477 34.0291C522.375 33.7551 522.26 33.4858 521.978 33.2449C521.978 45.9525 521.978 58.6649 521.978 71.3725C521.978 84.0801 521.978 96.8161 521.978 109.595H502.936V29.7775H540.78C547.214 47.6295 553.675 65.5478 560.224 83.7258C566.593 65.595 572.865 47.7288 579.164 29.7916H594.141C584.68 56.4398 575.232 83.0361 565.79 109.628H549.955C549.568 108.584 549.18 107.554 548.801 106.514C546.494 100.184 544.191 93.8541 541.888 87.5239C541.851 87.4153 541.828 87.3019 541.768 87.1082L541.773 87.1035Z" fill="#F8BE14"/>
<path d="M619.644 96.2776C622.62 97.1043 625.546 97.2886 628.528 96.9768C631.209 96.6981 633.775 96.0556 636.147 94.7376C639.378 92.9377 641.755 90.2734 643.453 86.9618C643.905 86.0832 644.298 85.1714 644.787 84.1274C650.431 84.8597 656.094 85.5919 661.951 86.3524C661.535 87.5051 661.208 88.5491 660.792 89.5553C658.291 95.5832 654.322 100.397 649.162 104.219C644.321 107.804 638.884 109.859 633.009 110.785C629.889 111.276 626.751 111.527 623.603 111.423C617.438 111.224 611.461 110.091 605.918 107.162C599.646 103.85 594.768 99.027 591.321 92.7157C588.819 88.1334 587.342 83.2015 586.724 78.0051C586.484 75.9927 586.387 73.9613 586.267 71.9347C585.935 66.4927 586.558 61.1545 588.025 55.9108C589.558 50.4404 592.128 45.5369 595.705 41.1813C600.015 35.933 605.337 32.2152 611.71 30.1035C615.439 28.8705 619.261 28.1714 623.188 28.0816C624.383 28.0533 625.583 27.8974 626.779 27.9399C632.165 28.1336 637.453 28.8894 642.433 31.1664C645.715 32.6687 648.687 34.6386 651.285 37.2084C657.234 43.0993 660.718 50.3129 662.343 58.5421C662.851 61.1025 663.201 63.6771 663.247 66.2943C663.275 67.7115 663.363 69.1287 663.391 70.5459C663.4 70.9899 663.289 71.434 663.224 71.9678H605.96C605.96 73.2149 605.867 74.3676 605.978 75.4966C606.195 77.7406 606.384 80.0081 606.837 82.2095C608.323 89.4703 612.799 93.9581 619.653 96.2634M607.972 51.8482C606.855 54.4653 606.218 57.2005 605.941 60.1011H643.592C643.518 59.2507 643.462 58.4949 643.389 57.739C643.121 54.9944 642.364 52.3962 640.984 50.02C638.907 46.4486 636.023 43.8032 632.257 42.1876C629.391 40.9546 626.396 40.6334 623.331 40.8365C620.677 41.0113 618.158 41.7152 615.827 43.0284C612.292 45.0173 609.74 47.9509 607.981 51.8482H607.972Z" fill="#F8BE14"/>
<path d="M330.215 28.4926C332.961 28.2848 335.614 27.9257 338.263 27.973C343.649 28.0675 348.938 28.8894 353.918 31.157C357.236 32.6687 360.236 34.6622 362.858 37.2604C368.77 43.1324 372.231 50.3176 373.86 58.4996C374.368 61.06 374.718 63.6346 374.774 66.2517C374.802 67.6689 374.889 69.0862 374.917 70.5034C374.926 70.9521 374.829 71.4009 374.769 71.9536C365.142 71.9536 355.603 71.9536 346.068 71.9536C336.533 71.9536 327.067 71.9536 317.481 71.9536C317.481 73.2149 317.389 74.4007 317.5 75.5675C317.708 77.7358 317.989 79.8994 318.317 82.0536C319.503 89.8057 326.333 95.6588 333.113 96.7311C337.576 97.4397 341.937 97.2177 346.141 95.4651C350.134 93.7975 352.977 90.8167 354.979 86.9571C355.436 86.0785 355.824 85.1667 356.318 84.118C361.953 84.8455 367.62 85.5824 373.458 86.3383C373.071 87.4484 372.775 88.4641 372.374 89.4325C370.154 94.8179 366.743 99.2774 362.313 102.948C357.075 107.289 351.061 109.765 344.438 110.795C341.356 111.272 338.254 111.522 335.144 111.418C328.936 111.215 322.927 110.076 317.357 107.115C311.131 103.803 306.285 99.0034 302.856 92.7299C300.35 88.1476 298.873 83.2204 298.255 78.024C298.015 76.0116 297.923 73.9802 297.793 71.9536C297.452 66.4312 298.089 61.0128 299.602 55.7077C301.093 50.4782 303.553 45.7731 306.931 41.5546C310.194 37.4824 314.099 34.2465 318.732 31.9553C322.337 30.1744 326.135 29.017 330.21 28.4879M324.192 45.3102C319.844 49.2169 318.105 54.3472 317.477 60.0255C318.612 60.2664 354.176 60.2381 355.173 59.9688C355.016 58.7122 354.906 57.4178 354.689 56.1471C353.909 51.5695 351.712 47.8281 348.209 44.8944C345.625 42.7308 342.68 41.4176 339.348 40.9924C333.764 40.2791 328.687 41.4034 324.196 45.3054L324.192 45.3102Z" fill="#F8BE14"/>
<path d="M521.983 11.5095V20.419H503.074C502.83 19.649 502.738 3.64403 502.978 1.63159H521.983C521.983 4.88644 521.983 8.14129 521.983 11.5095Z" fill="#F8BE14"/>
<path d="M708.675 15.441C712.922 10.5408 717.996 7.16901 723.722 4.92733C726.593 3.80186 729.563 3.09323 732.587 2.61618C736.481 2.00018 740.4 1.94923 744.303 2.22713C752.593 2.81533 760.274 5.42291 766.967 10.9576C770.699 14.0423 773.468 17.9189 774.891 22.833C775.423 24.6671 775.675 26.5568 775.849 28.4742C776.139 31.633 775.781 34.6991 775.053 37.7374C774.354 40.6553 773.076 43.2767 771.385 45.6574C768.705 49.4182 765.361 52.1832 761.135 53.5773C760.308 53.8506 759.456 54.022 758.613 54.235C758.285 54.3184 757.952 54.4018 757.39 54.5453C760.44 55.1474 763.175 55.9811 765.744 57.3706C771.606 60.5479 775.862 65.3369 778.03 72.136C778.887 74.8223 779.189 77.6291 779.151 80.4729C779.091 84.7524 778.273 88.8375 776.416 92.6354C774.669 96.2156 772.266 99.1937 769.37 101.727C764.317 106.146 758.519 108.758 752.205 110.129C749.049 110.814 745.862 111.264 742.637 111.301C741.116 111.319 739.591 111.49 738.074 111.435C731.352 111.194 724.791 110.078 718.61 106.998C714.473 104.937 710.818 102.125 707.499 98.7537C705.391 96.6093 703.503 94.2703 701.927 91.6349C700.504 89.2543 699.392 86.707 698.604 84.0021C698.523 83.7196 698.476 83.4278 698.391 83.048C704.36 81.5659 710.285 80.0931 716.245 78.611C716.671 79.755 717.051 80.8341 717.472 81.8948C718.623 84.7941 720.186 87.4156 722.252 89.6341C724.974 92.5613 728.272 94.4 731.982 95.4143C735.071 96.2573 738.215 96.4518 741.363 96.2665C745.423 96.0257 749.304 95.0021 752.768 92.5566C755.315 90.7596 757.428 88.4994 758.668 85.4379C760.138 81.8068 760.065 78.0876 758.728 74.4565C756.815 69.2459 753.351 65.7769 748.384 64.1512C745.981 63.3638 743.523 63.0165 741.014 63.0211C736.92 63.0304 732.826 63.0211 728.732 63.0211C728.357 63.0211 727.978 63.0211 727.531 63.0211V47.9037C727.854 47.8898 728.216 47.8574 728.583 47.8574C731.36 47.8574 734.134 47.8944 736.911 47.8435C739.681 47.7925 742.441 47.5517 745.125 46.755C747.92 45.926 750.548 44.7171 752.827 42.7024C754.97 40.8081 756.24 38.3626 756.764 35.4679C757.262 32.7306 757.126 29.9888 756.338 27.3302C755.413 24.2132 753.547 21.9206 750.961 20.2671C748.559 18.7294 745.951 17.8679 743.208 17.5761C741.389 17.3816 739.54 17.2658 737.721 17.3955C729.754 17.9745 723.692 21.8742 719.994 29.7386C719.556 30.6742 719.155 31.633 718.686 32.7029C712.995 31.7024 707.278 30.6974 701.437 29.6738C702.715 24.2317 705.092 19.526 708.679 15.4456L708.675 15.441Z" fill="#F8BE14"/>
<path d="M883.214 85.7205C869.027 85.7205 854.948 85.7205 840.8 85.7205C840.766 85.3685 840.719 85.0813 840.719 84.7941C840.714 80.6813 840.731 76.5731 840.702 72.4603C840.697 71.798 840.927 71.3116 841.255 70.8114C844.796 65.462 848.332 60.1032 851.867 54.7492C858.944 44.041 866.015 33.3328 873.092 22.6246C877.578 15.8301 882.068 9.04019 886.549 2.24568C886.843 1.79642 887.129 1.5 887.717 1.5C893.787 1.52779 899.858 1.51853 905.933 1.51853C906.069 1.51853 906.206 1.54632 906.317 1.56021C906.363 1.61116 906.389 1.63432 906.41 1.6621C906.432 1.68989 906.457 1.72232 906.466 1.75474C906.483 1.82884 906.495 1.90295 906.504 1.97705C906.513 2.05116 906.508 2.12989 906.508 2.204C906.508 24.4587 906.517 46.7134 906.521 68.9681C906.521 69.0051 906.538 69.0422 906.547 69.0792C906.555 69.1163 906.568 69.1533 906.606 69.3062H921.998C922.228 70.251 922.313 83.1546 922.118 85.6927C920.869 85.7482 919.6 85.7112 918.334 85.7158C917.018 85.7205 915.697 85.7158 914.381 85.7158H910.53C909.252 85.7158 907.97 85.7158 906.581 85.7158C906.432 87.0682 906.53 88.3743 906.513 89.6758C906.495 90.9958 906.513 92.3158 906.513 93.6358V105.632C906.513 106.942 906.513 108.258 906.513 109.638H887.027V85.7205C885.731 85.7205 884.53 85.7205 883.227 85.7205M888.07 22.3421C886.669 24.5837 885.259 26.8208 883.866 29.0717C878.374 37.9504 872.887 46.8338 867.396 55.7125C864.844 59.8392 862.288 63.966 859.736 68.0927C859.515 68.454 859.31 68.8291 859.046 69.2876H886.988C886.988 68.8106 886.988 68.403 886.988 68.0001C886.988 60.0801 887.001 52.1647 886.984 44.2448C886.975 40.4793 886.997 36.7231 887.346 32.9715C887.534 30.9568 887.764 28.942 887.93 26.9273C888.058 25.3989 888.121 23.8612 888.305 22.3467C888.305 22.2865 888.305 22.2263 888.305 22.1661C888.271 22.2124 888.236 22.2633 888.062 22.3421H888.07Z" fill="#F8BE14"/>
<path d="M966.832 28.3406C968.885 25.9878 970.888 23.6952 972.89 21.3979C973.167 21.0783 973.448 20.7634 973.883 20.2678H914.381C914.871 14.696 915.442 9.27711 915.978 3.7887H990.135C990.156 4.14533 990.19 4.47417 990.19 4.80301C990.19 8.65184 990.178 12.496 990.203 16.3449C990.207 17.035 990.003 17.5537 989.611 18.0725C984.52 24.7929 979.693 31.7263 975.314 39.0257C972.374 43.9212 969.665 48.9604 967.347 54.2311C964.527 60.6412 962.555 67.3709 961.098 74.2904C959.858 80.1586 958.921 86.0778 958.337 92.0664C958.039 95.1279 957.749 98.1893 957.515 101.255C957.328 103.65 957.234 106.054 957.085 108.453C957.059 108.851 956.957 109.25 956.884 109.671H935.507C935.507 108.819 935.452 107.967 935.52 107.128C935.669 105.262 935.878 103.395 936.061 101.533C936.547 96.5544 937.347 91.6403 938.387 86.7633C940.185 78.3014 942.766 70.1359 946.115 62.2484C950.349 52.2766 955.687 43.0551 962.014 34.5099C963.552 32.4303 965.192 30.4341 966.832 28.3406Z" fill="#F8BE14"/>
<path d="M853.414 7.59967C853.414 10.6195 853.397 13.5234 853.427 16.4274C853.435 17.0434 853.265 17.5159 852.92 17.9651C848.996 23.0923 845.269 28.3862 841.754 33.8468C838.474 38.9415 835.419 44.1937 832.705 49.6775C830.452 54.2303 828.513 58.9314 827.001 63.8362C825.527 68.6206 824.39 73.5069 823.491 78.458C822.553 83.6222 821.799 88.8142 821.352 94.0572C821.054 97.5355 820.786 101.014 820.526 104.492C820.423 105.84 820.389 107.192 820.304 108.545C820.279 108.911 820.176 109.267 820.104 109.656H798.633C799.515 92.6121 803.136 76.397 809.858 61.0295C816.568 45.6804 825.808 32.3184 836.944 20.4986C836.91 20.406 836.902 20.3689 836.88 20.3411C836.863 20.3133 836.838 20.2902 836.808 20.2809C836.778 20.267 836.74 20.2578 836.706 20.2578C836.638 20.2531 836.565 20.2531 836.497 20.2485C836.463 20.2485 836.429 20.2485 836.395 20.2485C836.327 20.2485 836.254 20.2485 836.186 20.2485C816.93 20.2485 797.674 20.2485 778.418 20.2485C778.384 20.2485 778.35 20.2485 778.316 20.2485C778.248 20.2485 778.175 20.2485 778.107 20.2485C778.073 20.2485 778.039 20.2485 778.005 20.2392C777.971 20.2392 777.937 20.2346 777.903 20.2253C777.869 20.2161 777.839 20.1975 777.809 20.179C777.779 20.1605 777.754 20.1373 777.613 20.0262C778.133 14.6952 778.661 9.29483 779.185 3.90831C779.96 3.686 851.595 3.59336 853.414 3.82494C853.414 5.03378 853.414 6.26578 853.414 7.60893V7.59967Z" fill="#F8BE14"/>
</svg>
