<svg width="1249" height="346" viewBox="0 0 1249 346" fill="none" xmlns="http://www.w3.org/2000/svg">
<path d="M637.042 73.2804C637.042 73.2804 637.007 73.1714 637.119 73.5737C637.617 80.32 638.04 86.6623 638.31 93.0113C638.329 93.4648 637.23 93.9666 636.22 94.4113C625.65 94.3826 615.511 94.3886 605.167 94.0993C604.579 90.1431 604.215 86.4799 603.804 82.8218C603.316 78.46 603.557 74.454 608.48 72.5407C608.524 72.5263 608.528 72.4326 608.826 72.2415C609.264 71.4606 609.523 70.871 609.525 70.2808C609.555 55.4127 609.575 40.5446 609.528 25.6766C609.525 24.6973 608.975 23.7198 608.673 22.6886C608.667 22.6358 608.562 22.6164 608.607 22.2651C607.177 21.2219 605.703 20.53 603.776 19.6257C603.776 14.5767 603.542 9.19637 603.949 3.86569C604.044 2.61407 606.276 0.566915 607.578 0.524275C616.592 0.228964 625.621 0.418044 634.645 0.337934C637.796 0.30995 639.079 1.71202 638.983 4.81027C638.884 8.04026 638.973 11.2759 638.968 14.5091C638.965 17.3576 639.711 20.5279 635.451 21.2775C634.819 21.3888 634.038 22.9282 634.002 23.8344C633.623 33.2622 633.303 33.8622 642.177 33.7615C643.553 33.7459 644.93 33.7615 646.307 33.7593C653.801 33.7473 653.978 33.6992 653.574 25.9484C653.48 24.1639 652.179 22.3908 651.245 20.7197C650.494 19.3761 648.779 18.2524 648.668 16.9308C648.269 12.1915 648.37 7.40962 648.502 2.43863C649.15 1.54414 649.577 0.854884 650.4 0.22998C661.241 0.268242 671.687 0.242123 682.326 0.548899C682.81 6.67973 683.17 12.476 683.307 18.2776C683.324 18.9982 682.222 20.308 681.529 20.3881C678.078 20.7872 677.97 23.1347 677.974 25.7528C677.993 39.7717 678.022 53.7908 677.944 67.8093C677.927 70.9267 678.047 73.5498 681.735 74.7261C682.615 75.0068 683.306 77.2098 683.36 78.558C683.562 83.6334 683.465 88.721 683.07 93.9442C671.608 94.1605 660.557 94.2367 649.366 93.9534C649.238 86.328 645.638 78.5141 652.418 72.2749C652.418 72.2749 652.4 72.2611 652.77 72.2526C653.361 68.4429 653.598 64.6424 653.801 60.8402C654.002 57.0908 652.248 55.5543 648.515 55.8017C645.009 56.0341 641.412 55.5215 637.993 56.1269C636.427 56.4041 634.259 58.4124 633.997 59.9228C633.401 63.36 633.574 67.0017 633.964 70.5006C634.079 71.5301 635.967 72.3594 637.042 73.2804Z" fill="white"/>
<path d="M437.41 88.5713C437.41 88.5713 437.518 88.6154 437.25 88.2863C436.412 88.4322 435.842 88.9073 434.945 89.4741C432.219 91.0355 429.847 93.7259 427.418 93.779C410.302 94.1536 393.174 93.9658 376.05 94.014C373.691 94.0207 372.781 93.0331 372.829 90.6964C372.919 86.2349 372.731 81.764 372.953 77.3118C373.006 76.2349 374.047 74.4799 374.9 74.2969C378.601 73.5029 378.714 70.9563 378.702 67.9992C378.649 54.4556 378.529 40.9091 378.762 27.3694C378.839 22.8617 377.592 20.2859 372.812 19.9372C372.791 14.5375 372.88 9.44832 372.761 4.36404C372.694 1.48437 373.595 0.251137 376.706 0.277765C394.469 0.429685 412.234 0.402153 430.138 0.730277C432.527 2.62631 434.776 4.22767 437.026 5.82904C437.026 5.82904 437.076 5.73168 436.852 6.07776C437.064 6.49548 437.499 6.56712 437.934 6.63876C437.934 6.63876 438.042 6.49314 437.803 6.91902C437.993 7.41787 438.423 7.49081 438.852 7.56375C438.852 7.56375 438.859 7.47282 438.504 7.71398C438.606 8.53496 439.062 9.11483 439.611 9.9911C441.43 12.0569 443.155 13.8263 444.87 15.9755C444.966 24.6065 445.072 32.8578 445.179 41.109C445.179 41.109 445.297 41.0729 444.804 40.9631C444.305 41.383 444.3 41.9128 444.294 42.4425C444.294 42.4425 444.388 42.4317 443.996 42.1927C443.534 42.4123 443.464 42.871 443.394 43.3297C443.394 43.3297 443.468 43.3455 443.076 43.1122C442.616 43.3408 442.548 43.8028 442.479 44.2648C442.479 44.2648 442.605 44.2622 442.398 43.8194C441.714 43.6433 441.237 43.9099 440.488 44.2566C440.729 45.9025 441.241 47.4681 442.129 49.0682C442.553 48.8545 442.601 48.6061 442.65 48.3577C442.65 48.3577 442.661 48.1598 442.255 48.3369C441.916 48.7429 441.983 48.9719 442.107 49.5217C443.048 50.747 443.931 51.6515 444.828 52.9395C444.994 62.3707 445.146 71.4183 445.298 80.466C445.298 80.466 445.366 80.4363 444.919 80.3568C444.392 80.9414 444.312 81.6055 444.233 82.2696C444.233 82.2696 444.363 82.1984 443.947 81.9873C443.485 82.2209 443.438 82.6655 443.392 83.1102C443.392 83.1102 443.477 83.1459 443.084 82.9145C442.62 83.1337 442.55 83.5843 442.48 84.0349C442.48 84.0349 442.569 84.0766 442.17 83.8414C441.701 84.06 441.632 84.5138 441.563 84.9676C441.563 84.9676 441.643 84.9954 441.255 84.7596C440.791 84.9761 440.716 85.4284 440.641 85.8808C440.641 85.8808 440.736 85.9318 440.335 85.6944C439.863 85.9083 439.793 86.3595 439.722 86.8107C439.722 86.8107 439.807 86.8506 439.417 86.6146C438.951 86.8279 438.876 87.2772 438.801 87.7264C438.801 87.7264 438.874 87.7423 438.499 87.4535C437.886 87.6335 437.648 88.1024 437.41 88.5713ZM402.785 66.8933C402.814 73.9188 402.857 73.9622 410.037 73.9752C411.566 73.978 413.105 74.0613 414.623 73.93C418.016 73.6368 419.911 71.7767 420.026 68.2803C420.081 66.5884 420.079 64.8931 420.052 63.2001C419.967 57.9276 418.136 56.1525 412.757 56.0834C402.783 55.9553 402.783 55.9553 402.785 66.8933ZM406.76 36.1366C408.894 36.1426 411.027 36.1832 413.16 36.1479C418.507 36.0593 420.141 34.2019 420.122 28.301C420.103 22.3509 418.63 20.7761 413.017 20.7021C402.062 20.5576 401.297 21.3355 402.862 32.3623C403.055 33.7206 404.88 34.8442 406.76 36.1366Z" fill="white"/>
<path d="M657.434 340.027C657.434 340.027 657.296 340.07 657.031 339.656C655.906 339.746 655.048 340.249 653.923 340.781C653.279 341.354 652.901 341.899 652.317 342.593C651.767 343.12 651.424 343.497 650.787 343.918C649.729 344.557 648.964 345.151 647.794 345.716C629.522 345.715 611.656 345.744 593.655 345.53C592.955 344.816 592.391 344.345 591.86 343.462C591.931 337.403 591.967 331.755 592.365 326.066C595.919 325.774 598.182 324.922 598.138 320.847C597.979 306.082 598.129 291.315 597.995 276.55C597.981 275.078 597.058 272.534 596.152 272.333C591.52 271.305 592.338 267.899 592.312 264.77C592.292 262.309 592.494 259.831 592.266 257.391C591.913 253.617 593.292 252.264 597.152 252.339C608.15 252.554 619.158 252.234 630.155 252.473C638.276 252.649 646.767 250.559 654.243 255.73C654.144 255.951 654.205 256.108 654.489 256.541C654.949 257.049 655.348 257.217 655.746 257.385C655.746 257.385 655.849 257.312 655.763 257.744C656.123 258.275 656.568 258.374 657.013 258.472C657.907 259.509 658.802 260.545 659.858 262.012C660.435 262.607 660.85 262.773 661.266 262.938C661.266 262.938 661.315 262.971 661.204 263.293C661.464 263.703 661.835 263.791 662.206 263.88C662.206 263.88 662.354 263.73 662.187 264.111C662.375 264.6 662.731 264.709 663.086 264.817C663.086 264.817 663.296 264.669 663.106 265.061C663.274 265.552 663.634 265.651 663.993 265.751C663.993 265.751 664.063 265.702 663.878 265.859C663.806 266.135 663.919 266.254 664.106 266.808C664.223 285.886 664.285 304.53 664.285 323.173C664.285 325.931 663.987 328.689 663.532 331.683C663.449 332.282 663.66 332.646 663.871 333.009C663.871 333.009 664.018 333.029 663.656 332.777C663.223 332.964 663.151 333.402 663.079 333.841C663.079 333.841 663.208 333.937 662.787 333.693C662.299 333.896 662.233 334.342 662.166 334.788C662.166 334.788 662.416 334.783 662.451 334.181C662.174 333.517 661.863 333.454 661.348 333.324C660.084 334.463 659.026 335.67 657.621 337.246C657.328 338.419 657.381 339.223 657.434 340.027ZM621.927 290.07C621.927 298.699 621.91 307.327 621.931 315.955C621.957 326.237 620.919 325.591 631.693 325.577C638.114 325.569 639.396 324.234 639.408 317.61C639.429 306.054 639.414 294.498 639.414 282.942C639.414 272.32 638.553 271.488 627.825 271.734C627.213 271.748 626.6 271.748 625.989 271.781C623.215 271.93 621.853 273.307 621.91 276.204C621.996 280.516 621.929 284.832 621.927 290.07Z" fill="white"/>
<path d="M499.447 72.352C499.447 72.352 499.374 72.268 499.71 72.5596C506.532 72.3816 513.018 71.912 519.677 71.8336C520.072 79.3057 520.294 86.3865 520.407 93.7192C520.443 94.0811 520.588 94.1911 520.734 94.3012C520.734 94.3012 520.79 94.3556 520.387 94.2735C497.866 94.2513 475.747 94.3111 453.629 94.371C453.629 94.371 453.674 94.4101 453.602 93.9618C453.538 87.1832 453.546 80.8528 453.868 74.5242C455.08 74.1365 455.979 73.7471 457.026 73.318C457.173 73.2784 457.382 73.0538 457.716 72.9317C458.364 71.9815 458.947 71.1543 458.95 70.3249C459.006 55.1216 459.029 39.9178 458.924 24.715C458.916 23.5896 457.884 22.4714 457.007 21.1527C454.17 20.7802 452.907 19.7453 453.077 16.8875C453.324 12.7421 453.223 8.56925 453.121 4.4118C453.05 1.48782 454.203 0.310278 457.186 0.32211C477.084 0.401091 496.982 0.385729 516.88 0.337443C519.305 0.33157 520.703 1.13352 520.706 3.72056C520.713 9.88322 520.821 16.0493 520.62 22.2051C520.587 23.1921 519.009 25.0583 518.422 24.9531C512.385 23.8701 505.184 28.6592 500.303 21.4678C499.963 20.9662 498.913 20.7221 498.203 20.7422C493.494 20.8754 488.788 21.1135 483.754 21.3798C483.254 22.6511 483.079 23.86 482.808 25.4571C482.774 27.9704 482.837 30.0957 482.719 32.5562C483.065 34.4861 483.592 36.0808 484.462 37.8251C485.547 37.9195 486.872 38.0394 486.948 37.7833C488.535 32.443 492.842 33.7145 496.592 33.6535C499.635 33.604 502.679 33.5843 505.895 33.7944C506.785 34.2466 507.503 34.4557 508.313 35.0811C508.449 44.2204 508.494 52.9434 508.296 61.7612C507.584 62.3599 507.115 62.8638 506.239 63.3876C499.822 63.3892 493.811 63.3709 487.786 63.398C487.772 63.4434 487.756 63.537 487.756 63.537C487.756 63.537 487.774 63.6906 488.049 63.3218C488.122 60.3222 487.706 57.945 483.752 59.4243C481.932 64.101 480.854 68.6969 484.139 73.1973C484.252 73.2996 484.554 73.3488 484.791 73.62C489.739 73.7566 494.451 73.622 499.423 73.2516C499.604 72.7946 499.526 72.5733 499.447 72.352Z" fill="white"/>
<path d="M857.397 270.97C857.383 265.169 857.369 259.368 857.799 253.117C871.694 252.535 885.147 252.338 898.597 252.411C899.59 252.417 901.459 254.407 901.414 255.406C901.148 261.278 900.393 267.127 899.917 272.994C899.842 273.92 900.054 275.172 900.636 275.806C910.647 286.712 909.538 286.715 919.282 275.791C919.86 275.143 920.081 273.906 920.007 272.98C919.549 267.247 918.925 261.528 918.427 255.798C918.205 253.244 919.553 252.236 922.024 252.245C933.497 252.286 944.97 252.288 956.443 252.247C959.09 252.238 960.404 253.252 960.299 256.07C960.179 259.3 960.066 262.555 960.332 265.766C960.659 269.713 959.524 271.881 955.2 271.954C953.857 271.977 952.269 272.947 951.245 273.95C942.278 282.739 933.345 291.566 924.59 300.566C923.213 301.982 922.173 304.284 922.032 306.253C921.67 311.308 921.836 316.408 921.922 321.488C921.968 324.247 923.214 325.891 926.543 325.319C927.158 325.522 927.514 325.624 927.865 326.155C927.882 331.497 927.824 336.412 927.954 341.323C928.025 343.99 927.074 345.371 924.308 345.362C915.003 345.333 905.693 345.483 896.398 345.183C895.154 345.143 893.017 342.966 892.943 341.682C892.635 336.337 892.958 330.954 893.282 325.552C893.958 325.374 894.402 325.229 895.118 325.209C896.326 323.846 897.926 322.423 898.071 320.863C898.454 316.735 898.715 312.463 898.05 308.411C897.516 305.159 896.216 301.555 894.095 299.14C888.736 293.035 882.622 287.61 877 281.728C871.556 276.03 866.288 270.214 857.397 270.97Z" fill="white"/>
<path d="M268.243 197.13C268.243 197.13 268.075 197.366 268.536 197.139C268.837 196.34 268.677 195.769 268.564 194.951C267.81 193.623 267.009 192.541 266.146 191.237C266.083 191.015 265.781 190.666 265.832 190.397C265.401 189.648 264.92 189.168 264.37 188.386C264.094 187.729 263.888 187.374 263.737 186.743C263.081 185.632 262.37 184.795 261.473 183.629C260.849 183.287 260.409 183.275 259.969 183.263C259.969 183.263 259.802 183.494 260.251 183.27C260.525 182.49 260.351 181.934 260.241 181.111C259.43 179.247 258.69 177.55 257.622 176.096C257.086 175.365 255.954 175.076 255.092 174.587C254.756 175.608 254.421 176.629 253.996 178.062C253.942 181.289 253.976 184.103 253.912 187.168C254.619 188.248 255.426 189.077 256.484 190.068C257.113 190.347 257.49 190.466 257.938 191.013C258.102 196.748 258.196 202.055 257.844 207.464C248.98 207.637 240.56 207.809 232.146 207.649C231.104 207.63 229.22 205.848 229.216 204.876C229.192 199.586 229.634 194.293 229.915 188.966C229.914 188.93 229.913 189.005 230.291 189.362C231.215 189.115 231.76 188.512 232.291 187.889C232.276 187.868 232.327 187.865 232.74 187.765C233.204 175.38 233.256 163.096 233.369 150.561C232.055 149.603 230.68 148.896 229.213 147.949C229.037 147.562 228.954 147.413 229.003 146.837C229.276 141.238 229.417 136.066 229.977 130.84C238.009 130.839 245.623 130.892 253.308 131.248C257.249 138.438 261.063 145.355 265.007 152.196C267.111 155.845 269.439 159.363 271.795 163.18C272.433 164.161 272.941 164.903 273.489 165.912C274.54 165.208 276.281 164.337 276.427 163.249C276.848 160.095 276.577 156.853 276.674 153.649C276.78 150.136 275.365 148.108 271.61 147.668C271.542 141.924 271.542 136.616 271.542 131.026C280.761 131.026 289.304 130.976 297.844 131.092C298.86 131.105 300.704 131.965 300.739 132.524C301.021 136.964 301.191 141.444 300.843 145.869C300.751 147.03 298.54 147.904 297.641 149.156C296.897 150.191 296.26 151.584 296.248 152.826C296.143 163.899 296.109 174.975 296.283 186.047C296.305 187.439 297.631 188.822 298.39 190.187C299.256 191.745 300.656 193.192 300.939 194.841C301.374 197.381 300.863 200.069 301.101 202.662C301.445 206.405 300.167 207.982 296.255 207.764C291.38 207.493 286.451 208.01 281.6 207.576C278.935 207.338 276.38 205.843 273.703 204.617C273.316 204.311 273.002 204.303 272.687 204.296C272.687 204.296 272.654 204.378 272.848 204.001C272.622 203.539 272.202 203.453 271.781 203.367C271.781 203.367 271.799 203.511 272.215 203.28C272.416 202.564 272.201 202.079 271.971 201.262C271.298 199.869 270.641 198.809 269.767 197.441C269.115 197.132 268.679 197.131 268.243 197.13Z" fill="white"/>
<path d="M56.3629 200.309C55.9146 200.5 55.4663 200.691 55.0154 200.694C53.5474 201.413 51.6731 202.003 50.6944 203.285C47.8923 206.957 44.384 207.958 39.9546 207.744C33.7441 207.443 27.505 207.798 21.2853 207.618C17.6977 207.515 14.1243 206.912 10.4315 206.38C10.3184 206.225 9.99137 206.028 9.96741 205.711C8.55845 203.767 7.4393 201.746 5.74079 200.583C-0.472363 196.33 0.442407 190.013 0.711582 183.921C0.754769 182.944 2.0699 181.239 2.85253 181.206C8.45592 180.97 14.0736 181.08 19.5395 181.08C21.3511 190.643 21.3511 190.643 30.6546 190.564C31.4193 190.558 32.184 190.531 32.9485 190.537C37.6704 190.573 38.2873 187.448 38.2826 183.692C38.2778 179.927 37.663 176.869 32.896 176.938C27.6969 177.014 22.4657 177.271 17.3079 176.795C14.6836 176.553 11.9476 175.253 9.68114 173.779C2.01367 168.791 -0.964218 161.609 0.548879 152.493C0.847272 150.696 0.253446 148.72 0.682001 146.979C1.23502 144.732 1.98089 142.291 3.39509 140.553C6.18288 137.128 9.48807 134.128 12.9995 130.903C24.4006 130.866 35.3816 130.878 46.4834 131.159C49.6001 134.005 52.5958 136.583 55.9048 139.423C56.6215 139.502 57.0248 139.32 57.4281 139.138C57.4281 139.138 57.459 138.979 57.2001 139.352C57.3923 139.791 57.8434 139.858 58.2946 139.925C58.2946 139.925 58.2961 139.813 57.9143 140.149C57.8605 144.749 58.3872 149.013 58.3533 153.273C58.3463 154.156 56.2854 155.728 55.1226 155.776C49.3397 156.012 43.5406 155.844 37.7179 155.822C37.6887 155.827 37.7095 155.882 38.0053 155.752C38.1122 154.636 37.9231 153.649 37.7527 152.337C37.39 151.266 37.0087 150.52 36.4464 149.463C31.6885 148.373 27.0668 146.856 22.5894 150.407C22.7027 150.983 22.9535 151.137 23.1595 151.282C23.1147 151.272 23.0697 151.428 22.8337 151.05C22.3177 150.769 22.0378 150.865 21.4753 150.929C21.3319 153.08 21.4711 155.262 21.858 157.601C22.2579 157.635 22.4103 157.512 22.5212 157.357C22.4798 157.324 22.4152 157.408 22.2407 157.695C22.9079 158.407 23.7495 158.832 24.9895 159.363C28.6983 159.42 32.0087 159.37 35.7282 159.476C39.321 159.552 42.5048 159.472 45.9751 159.588C47.0564 160.248 47.851 160.714 48.7138 161.413C49.0487 161.815 49.3154 161.984 49.6868 162.413C50.1239 162.808 50.4563 162.942 50.8058 163.059C50.823 163.042 50.8185 163.091 50.8576 163.426C51.1946 164.094 51.4925 164.425 51.8532 165.035C52.2317 165.497 52.5475 165.68 53.0212 166.102C53.4982 166.535 53.8174 166.729 54.223 167.205C54.6277 167.705 54.946 167.923 55.355 168.358C55.7299 168.568 56.0141 168.56 56.3284 168.544C56.3584 168.535 56.3884 168.605 56.2731 168.837C56.3945 169.286 56.6312 169.504 57.0151 170.127C57.6205 172.418 58.4566 174.302 58.47 176.191C58.521 183.422 58.3076 190.655 58.1928 197.887C58.1928 197.887 58.2917 197.896 57.9136 197.654C57.4633 197.866 57.3912 198.32 57.319 198.773C57.319 198.773 57.3432 198.89 56.8433 198.757C56.3498 199.185 56.3564 199.747 56.3629 200.309Z" fill="white"/>
<path d="M68.8695 135.523C68.8695 135.523 69.062 135.453 69.4284 135.822C70.3491 135.381 70.9033 134.57 71.4576 133.759C71.4576 133.759 71.427 133.881 71.9351 133.924C72.4648 133.467 72.4865 132.967 72.5082 132.466C72.5082 132.466 72.3328 132.446 72.5783 132.906C73.5974 132.433 74.3709 131.5 75.1443 130.566C75.1443 130.566 75.0645 130.551 75.4533 130.82C87.4754 131.196 99.1086 131.303 110.859 131.69C112.47 133.255 113.965 134.54 115.706 136.157C116.633 136.496 117.313 136.503 117.993 136.511C117.993 136.511 118.1 136.316 117.861 136.66C118.075 137.051 118.527 137.098 118.979 137.145C118.979 137.145 118.907 137.086 118.733 137.492C118.992 137.951 119.424 138.004 119.856 138.058C119.856 138.058 119.946 137.93 119.706 138.344C119.901 138.832 120.336 138.905 120.771 138.978C120.771 138.978 120.882 138.836 120.634 139.266C120.827 139.763 121.268 139.831 121.709 139.898C121.709 139.898 121.698 139.739 121.271 139.896C121.007 140.511 121.171 140.968 121.29 141.641C121.557 142.333 121.868 142.807 122.114 143.715C122 148.555 121.952 152.961 121.479 157.467C117.885 157.665 114.716 157.864 111.549 157.83C108.704 157.8 105.563 158.178 103.136 157.075C101.805 156.469 101.681 153.174 101.011 150.869C100.693 150.369 100.376 150.091 99.8712 149.507C95.3278 149.395 90.9727 149.59 86.4041 149.947C86.2005 150.289 86.2103 150.468 86.2202 150.648C86.2202 150.648 86.3332 150.693 85.9391 150.651C85.0795 151.7 84.22 152.788 84.2098 153.883C84.1128 164.366 84.1164 174.851 84.19 185.335C84.2134 188.656 86.0612 190.798 89.3835 190.362C93.6666 189.799 99.2419 193.098 101.777 186.62C101.888 186.339 101.903 186.018 101.951 185.714C103.067 178.601 103.067 178.6 110.411 178.6C111.33 178.599 112.249 178.595 113.168 178.6C123.135 178.659 121.957 177.696 121.813 187.607C121.767 190.82 121.306 194.362 119.856 197.127C118.343 200.013 115.676 202.506 113.014 204.493C110.866 206.096 108.011 207.469 105.408 207.588C97.0006 207.972 88.557 207.935 80.1459 207.597C77.8394 207.505 75.3695 206.119 73.3805 204.735C70.5572 202.771 68.1097 200.259 65.112 197.923C64.6088 198.103 64.4951 198.342 64.3815 198.58C64.1763 198.16 63.971 197.74 64.0314 197.27C64.1795 194.311 63.9785 191.403 63.9584 188.493C63.8562 173.747 63.8009 159.001 63.9008 144.127C64.2304 143.46 64.3884 142.921 64.8294 142.183C65.1342 141.241 65.1562 140.5 65.1781 139.758C65.1781 139.758 65.0314 139.759 65.4103 140.02C65.862 139.832 65.9346 139.383 66.0072 138.934C66.0072 138.934 65.9138 138.929 66.2811 139.313C67.3888 138.306 68.1292 136.914 68.8695 135.523Z" fill="white"/>
<path d="M504.614 204.322C504.614 204.322 504.719 204.324 504.364 204.146C503.779 204.068 503.55 204.167 502.968 204.376C501.825 207.301 499.912 208.015 497.156 207.875C493.709 207.701 490.241 207.944 486.571 207.682C485.534 206.198 484.707 205.038 483.637 203.826C483.312 203.919 483.229 204.063 483.147 204.208C483.147 204.208 483.097 204.299 482.979 203.991C478.771 203.938 475.697 202.283 473.168 199.026C471.593 196.999 469.254 195.578 467.65 193.567C466.384 191.979 464.856 189.866 464.939 188.056C465.214 182.09 462.961 175.835 466.675 170.138C467.147 169.414 466.44 167.837 466.135 166.694C465.751 165.257 464.822 163.862 464.818 162.446C464.799 155.745 463.347 148.714 468.531 143.008C471.695 138.357 475.049 134.026 482.258 135.307C483.707 135.171 485.147 135.001 485.251 134.531C486.195 130.269 489.425 131.027 492.342 131.033C494.475 131.038 496.629 130.87 498.732 131.123C501.331 131.033 499.216 133.979 500.166 134.531C501.967 135.575 505.149 134.881 507.002 135.823C508.824 136.748 510.914 137.235 512.562 138.386C514.794 139.943 516.716 141.948 519.003 144.066C520.045 144.462 520.855 144.553 521.664 144.644C521.664 144.644 521.628 144.491 521.406 144.879C521.61 145.324 522.038 145.382 522.465 145.439C522.465 145.439 522.474 145.329 522.044 145.63C522.045 150.348 522.476 154.765 522.658 159.312C522.064 159.885 521.719 160.329 520.97 160.716C515.284 160.678 510.002 160.697 504.525 160.414C503.408 157.858 502.486 155.604 501.331 153.061C500.7 152.867 500.302 152.963 499.904 153.059C499.904 153.059 499.78 153.272 500.166 153.007C499.648 152.382 498.743 152.022 497.544 151.435C494.847 151.136 492.343 150.622 490.077 151.145C488.553 151.497 487.363 153.318 486.024 154.482C485.939 155.221 485.855 155.959 485.604 157.283C486.32 161.909 489.459 161.902 492.524 161.695C495.803 161.473 497.44 162.602 497.027 166.11C496.884 167.318 497.006 168.558 497.006 169.784C497.005 176.504 497.009 176.566 490.367 177.008C486.805 177.246 485.075 179.213 485.006 182.574C484.94 185.847 486.886 187.664 490.041 187.982C492.001 188.179 493.995 188.102 495.972 188.053C501.028 187.929 502.56 186.446 503.521 181.166C506.797 180.972 509.679 180.766 512.563 180.754C522.663 180.711 522.663 180.737 522.773 190.779C522.378 191.434 522.181 191.982 521.742 192.629C519.991 194.356 518.482 195.984 516.661 197.684C514.402 199.644 512.454 201.53 510.123 203.408C508.031 203.707 506.323 204.014 504.614 204.322Z" fill="white"/>
<path d="M1132.08 164.428C1140.1 164.022 1148.02 164.024 1156.36 164.086C1156.85 173.661 1157.12 183.184 1156.83 192.69C1156.76 194.76 1154.83 196.856 1153.54 198.792C1148.7 206.055 1142.13 209.203 1133.31 207.846C1129.43 207.251 1125.36 207.428 1121.43 207.817C1114.65 208.489 1108.77 207.214 1104.11 201.396C1099.15 197.316 1098.71 192.094 1098.83 186.348C1099.12 173.718 1099.01 161.077 1098.87 148.442C1098.83 144.96 1100.15 142.572 1102.26 139.861C1107.86 132.674 1114.62 129.692 1123.71 130.856C1129.29 131.569 1135.05 130.689 1140.68 131.127C1143.15 131.319 1145.57 132.882 1147.88 134.087C1148.9 134.624 1149.45 136.051 1150.46 136.67C1157.71 141.114 1157.72 148.153 1156.87 155.293C1156.72 156.596 1154.71 158.382 1153.29 158.674C1150.65 159.222 1147.81 158.712 1145.06 158.873C1140.38 159.146 1136.2 158.97 1136.82 152.425C1136.86 152.005 1136.65 151.476 1136.39 151.126C1132.9 146.446 1127.9 148.688 1123.64 148.882C1121.99 148.958 1119.21 152.166 1119.13 154.041C1118.69 164.346 1118.83 174.681 1119 185.003C1119.06 188.351 1120.99 190.421 1124.58 190.414C1126.57 190.41 1128.56 190.387 1130.55 190.421C1133.54 190.474 1136.23 189.891 1136.78 186.383C1137.26 183.367 1138 180.105 1133.44 179.152C1132.65 178.986 1131.76 177.043 1131.72 175.895C1131.61 172.215 1131.87 168.523 1132.08 164.428Z" fill="white"/>
<path d="M603.301 191.456C603.645 195.931 603.71 200.078 603.884 204.22C603.99 206.748 602.895 207.915 600.392 207.907C593.049 207.884 585.706 207.886 578.364 207.91C575.733 207.919 574.427 206.832 574.537 204.021C574.669 200.638 574.458 197.241 574.638 193.863C574.695 192.782 575.278 191.079 576.036 190.799C579.621 189.471 579.588 186.696 579.565 183.644C579.49 173.789 579.57 163.933 579.522 154.078C579.497 148.899 577.754 148.386 572.883 149.794C568.489 151.064 563.637 150.859 558.981 150.951C558.252 150.966 556.889 149.135 556.838 148.106C556.601 143.344 556.544 138.552 556.861 133.801C556.929 132.786 558.816 131.077 559.876 131.068C579.456 130.905 599.037 130.968 618.618 130.932C620.913 130.928 621.95 131.758 621.89 134.177C621.779 138.64 621.808 143.108 621.871 147.573C621.906 150.102 620.786 151.422 618.291 151.139C613.525 150.597 608.741 150.093 604.035 149.196C601.146 148.645 599.262 149.347 599.224 152.295C599.077 163.688 599.01 175.088 599.333 186.474C599.377 188.059 601.766 189.577 603.301 191.456Z" fill="white"/>
<path d="M714.761 0.414307C729.026 0.417413 729.035 0.417441 728.995 14.3606C728.986 17.3204 729.897 20.7715 725.061 21.0902C724.403 21.1336 723.374 23.1917 723.365 24.3235C723.25 39.7192 723.245 55.1163 723.369 70.5118C723.378 71.5978 724.436 73.4092 725.313 73.626C728.944 74.524 729.121 77.0343 729.026 79.9978C728.913 83.5355 729.224 87.1055 728.844 90.6059C728.714 91.8063 727.077 93.7819 726.093 93.8032C715.42 94.035 704.74 93.9481 693.397 93.9481C693.397 87.8849 693.304 82.2441 693.499 76.6134C693.527 75.7909 694.799 74.5476 695.708 74.305C698.754 73.492 699.206 71.474 699.189 68.7205C699.105 54.864 699.024 41.0048 699.228 27.1509C699.289 23.0036 698.582 20.1539 693.368 20.3261C693.368 14.5469 693.405 9.03631 693.353 3.52657C693.326 0.639955 695.161 0.40801 697.326 0.416114C702.985 0.437321 708.644 0.417864 714.761 0.414307Z" fill="white"/>
<path d="M859.453 143.726C861.637 148.101 863.72 152.169 866.113 156.289C867.648 158.531 868.872 160.72 870.24 163.52C871.382 165.391 872.382 166.652 873.381 167.912C873.797 167.107 874.212 166.301 874.628 165.496C874.707 160.583 874.787 155.671 874.727 150.028C873.896 149.058 873.202 148.817 872.509 148.577C871.737 147.466 870.349 146.383 870.301 145.241C870.108 140.717 870.335 136.174 870.553 131.257C879.273 130.836 887.849 130.879 896.42 130.706C899.134 130.651 900.385 131.394 900.192 134.317C899.909 138.594 899.864 142.887 899.61 147.532C896.047 148.352 894.604 150.231 894.655 153.832C894.803 164.299 894.556 174.775 894.86 185.236C894.912 187.03 896.864 188.794 898.02 190.516C898.479 191.201 899.641 191.72 899.662 192.343C899.811 196.801 899.88 201.274 899.616 205.721C899.575 206.407 897.715 207.495 896.671 207.525C890.558 207.699 884.412 207.929 878.334 207.433C876.422 207.277 874.09 205.321 872.967 203.54C866.933 193.967 861.22 184.189 854.779 173.455C853.647 175.519 852.586 176.625 852.472 177.823C852.196 180.723 852.227 183.674 852.42 186.585C852.493 187.685 853.164 188.889 853.893 189.767C854.872 190.947 857.088 191.785 857.172 192.894C857.51 197.323 857.33 201.806 857.04 206.249C857.006 206.765 855.102 207.532 854.055 207.547C846.409 207.659 838.761 207.56 831.114 207.634C828.472 207.66 827.656 206.426 827.784 203.949C827.918 201.338 827.855 198.715 827.797 196.098C827.739 193.443 827.502 190.943 830.99 189.916C831.906 189.647 832.777 187.458 832.794 186.138C832.939 175.055 832.831 163.968 832.912 152.883C832.935 149.745 831.323 148.445 828.189 148.009C827.846 142.605 827.846 137.257 827.846 131.346C835.858 131.346 843.809 131.346 851.985 131.882C853.269 133.918 854.328 135.417 855.387 136.917C856.709 139.084 858.031 141.251 859.453 143.726Z" fill="white"/>
<path d="M372.441 143.212C372.606 139.266 372.772 135.32 373.147 131.002C391.181 130.663 409.006 130.697 427.238 130.711C427.893 135.872 428.295 141.055 428.207 146.229C428.195 146.935 425.744 148.152 424.398 148.188C417.055 148.385 409.7 148.168 402.359 148.386C400.804 148.433 398.155 149.481 397.967 150.452C397.464 153.048 397.94 155.864 398.304 158.554C398.336 158.793 400.404 158.924 401.499 158.817C405.989 158.379 410.461 157.622 414.956 157.475C415.987 157.441 417.948 159.318 418.003 160.391C418.306 166.385 418.19 172.403 418.119 178.411C418.109 179.255 417.781 180.31 417.218 180.893C415.275 182.902 404.649 181.701 402.685 179.563C401.776 178.573 400.356 178.058 399.167 177.327C398.611 178.634 398.036 179.933 397.512 181.253C397.407 181.52 397.498 181.864 397.493 182.172C397.349 190.54 397.349 190.541 405.764 190.543C411.888 190.545 418.014 190.651 424.133 190.501C427.142 190.427 428.49 191.226 428.576 194.603C428.906 207.617 429.017 207.614 416.104 207.614C403.245 207.614 390.384 207.494 377.528 207.689C373.878 207.744 372.583 206.574 372.889 202.943C373.236 198.814 373.221 194.654 373.74 190.093C374.308 189.595 374.5 189.511 374.834 189.629C375.638 189.164 376.3 188.495 377.049 187.397C377.065 174.917 376.995 162.866 377.04 150.561C375.302 148.132 371.904 146.996 372.441 143.212Z" fill="white"/>
<path d="M408.883 344.147C408.529 344.684 408.227 344.829 407.83 345.218C398.106 345.503 388.475 345.47 378.848 345.623C375.756 345.673 374.357 344.685 374.52 341.38C374.725 337.236 374.514 333.072 374.603 328.919C374.628 327.746 374.851 326.473 375.363 325.435C377.298 321.517 376.445 319.644 372.186 319.541C365.769 319.387 359.342 319.372 352.927 319.552C348.269 319.683 348.463 321.304 349.407 325.724C350.652 331.556 350.108 337.796 350.026 343.857C350.018 344.442 347.853 345.471 346.677 345.49C337.812 345.631 328.945 345.563 320.078 345.579C317.482 345.583 316.069 344.487 316.137 341.708C316.262 336.639 316.315 331.568 316.575 326.095C320.353 325.876 322.178 324.622 323.629 320.748C329.174 305.944 335.456 291.419 341.324 276.734C341.799 275.547 341.743 273.538 341.038 272.579C336.689 266.658 339.651 260.112 339.284 253.882C339.256 253.401 341.143 252.342 342.145 252.335C355.932 252.228 369.72 252.182 383.504 252.399C384.606 252.417 386.505 254.411 386.612 255.615C386.992 259.898 386.781 264.237 386.732 268.554C386.724 269.294 386.66 270.418 386.207 270.708C381.436 273.764 384.074 277.096 385.486 280.668C390.573 293.533 395.342 306.527 400.511 319.358C401.434 321.65 403.69 323.398 405.641 325.287C408.474 325.349 409.105 326.829 409.033 329.181C408.885 334.035 408.956 338.896 408.883 344.147ZM360.665 289.058C359.942 290.567 359.013 292.014 358.546 293.6C357.853 295.953 357.487 298.403 356.982 300.812C359.762 301.202 362.553 301.965 365.318 301.879C368.117 301.792 369.367 300.123 367.9 297.169C366.887 295.129 366.408 292.761 365.131 290.937C364.324 289.783 362.488 289.36 360.665 289.058Z" fill="white"/>
<path d="M887.729 35.3702C888.079 43.9173 888.071 52.3726 888.084 61.2404C883.713 62.1087 879.326 62.6252 874.927 62.9921C872.994 63.1533 871.036 63.0099 868.655 63.0122C867.446 61.2633 867.91 57.9228 864.655 59.1134C863.444 59.5562 862.357 62.0685 862.293 63.6805C861.88 74.0894 861.99 74.4016 872.226 73.9878C879.588 73.6902 886.893 72.1696 894.256 71.6844C900.182 71.2938 900.226 71.6191 900.287 77.8023C900.328 81.9614 900.191 86.125 900.333 90.2797C900.429 93.1022 899.293 94.031 896.542 94.0204C876.646 93.9435 856.749 93.9223 836.854 94.0348C833.574 94.0533 832.542 92.8051 832.714 89.6832C832.901 86.3043 832.999 82.8837 832.686 79.524C832.358 76.0133 833.625 73.9571 837.123 72.7698C837.617 71.019 838.192 69.574 838.199 68.1262C838.266 54.2512 838.236 40.3757 838.238 26.5004C838.238 23.6416 838.362 20.8272 834.344 20.4111C833.729 20.3474 832.875 18.5947 832.838 17.5969C832.675 13.1321 832.818 8.65704 832.749 4.18721C832.707 1.44114 833.908 0.366406 836.636 0.374144C856.546 0.430592 876.457 0.433105 896.367 0.369682C899.094 0.360985 900.308 1.41482 900.288 4.15112C900.245 10.0091 900.46 15.8774 900.141 21.7179C900.076 22.9093 898.214 24.8625 897.039 24.9757C892.943 25.3702 888.782 25.1774 884.651 25.0533C883.651 25.0233 882.251 24.7055 881.742 24.0018C876.92 17.3285 870.225 21.7001 864.428 21.1268C863.841 21.0688 862.246 24.2146 862.33 25.8092C862.544 29.8935 862.88 34.1664 864.354 37.8879C864.906 39.2814 867.564 37.7065 867.786 35.0301C874.345 34.8998 880.859 35.089 887.729 35.3702Z" fill="white"/>
<path d="M159.3 190.579C159.751 195.875 159.849 201.122 159.938 206.799C150.921 207.403 141.913 207.676 132.907 207.613C131.915 207.606 130.2 205.738 130.088 204.607C129.726 200.944 129.874 197.219 130.013 193.525C130.048 192.59 130.595 191.058 131.228 190.865C134.984 189.72 134.837 186.847 134.819 183.82C134.762 173.955 134.832 164.09 134.761 154.226C134.75 152.747 134.65 150.252 133.909 149.955C128.291 147.71 129.999 142.966 129.991 138.971C129.974 130.356 128.55 131.033 137.705 130.993C144.861 130.961 152.017 130.987 159.729 130.987C159.729 136.415 159.785 141.297 159.668 146.175C159.65 146.905 158.938 148.11 158.345 148.254C154.736 149.131 154.653 151.776 154.671 154.717C154.734 164.889 154.736 175.063 154.677 185.235C154.659 188.287 155.542 190.383 159.3 190.579Z" fill="white"/>
<path d="M1093.66 143.691C1093.86 160.939 1093.81 178.016 1093.73 195.514C1090.6 198.86 1087.68 202.043 1084.31 204.613C1082.28 206.157 1079.57 207.513 1077.11 207.623C1068.87 207.993 1060.59 207.642 1052.33 207.822C1048.86 207.898 1046.45 206.557 1043.8 204.349C1037.19 198.849 1034.29 192.532 1034.95 183.597C1035.81 171.957 1035.26 160.204 1035.11 148.502C1035.06 145.008 1036.53 142.7 1038.54 139.949C1044.26 132.124 1051.61 129.529 1060.82 130.927C1062.16 131.131 1063.56 130.955 1064.94 130.955C1081.92 130.955 1081.92 130.955 1093.66 143.691ZM1072.95 182.479C1072.95 173.099 1073.09 163.716 1072.83 154.344C1072.78 152.534 1071.42 149.419 1070.28 149.226C1066.45 148.578 1062.4 148.607 1058.55 149.197C1057.33 149.384 1055.66 152.11 1055.62 153.711C1055.36 164.16 1055.47 174.619 1055.5 185.074C1055.51 188.415 1057.27 190.196 1060.59 190.316C1062.42 190.381 1064.25 190.372 1066.09 190.346C1072.1 190.262 1072.72 189.625 1072.95 182.479Z" fill="white"/>
<path d="M1195.71 171.18C1195.43 170.803 1195.26 170.567 1194.82 170.279C1194.55 169.921 1194.4 169.725 1194 169.536C1193.83 169.483 1193.76 169.504 1193.75 169.473C1186.76 162.782 1179.82 156.1 1172.79 149.498C1172.19 148.932 1171.05 148.565 1170.24 148.671C1165.18 149.324 1164.42 146.556 1164.76 142.364C1165.04 138.853 1164.81 135.302 1164.81 130.915C1168.06 130.915 1171.04 130.915 1174.02 130.915C1181.07 130.915 1188.12 131.083 1195.16 130.851C1199.16 130.719 1201.3 131.74 1200.7 136.238C1200.09 140.755 1199.44 145.308 1199.45 149.845C1199.45 151.428 1201.08 153.31 1202.44 154.517C1204.27 156.138 1207.86 158.776 1208.41 158.3C1211.22 155.874 1213.29 152.584 1215.34 149.294C1215.06 143.151 1215.05 137.309 1215.25 131.094C1226.37 130.782 1237.3 130.844 1248.62 131.055C1249 135.451 1248.88 139.701 1248.99 143.945C1249.05 146.601 1248.53 148.21 1245.38 148.38C1243.96 148.456 1242.62 149.884 1241.12 151.01C1240.48 151.79 1239.96 152.259 1239.39 152.994C1232.83 159.054 1226.25 164.77 1219.89 170.718C1218.82 171.717 1218.28 173.69 1218.17 175.259C1217.93 178.94 1218.01 182.651 1218.14 186.343C1218.18 187.493 1218.55 188.775 1219.18 189.727C1220.08 191.106 1222.21 192.173 1222.31 193.491C1222.64 197.761 1222.4 202.094 1222.06 206.378C1222.02 206.893 1220.09 207.618 1219.02 207.633C1211.53 207.741 1204.02 207.822 1196.53 207.537C1195.44 207.495 1193.64 205.54 1193.52 204.33C1193.11 200.365 1193.33 196.335 1193.25 191.9C1193.3 191.327 1193.41 191.185 1193.6 190.784C1196.71 190.413 1198 188.84 1197.85 185.792C1197.66 181.819 1197.63 177.839 1197.31 173.553C1196.96 172.916 1196.83 172.588 1196.47 172.098C1196.22 171.662 1196.1 171.441 1195.71 171.18Z" fill="white"/>
<path d="M806.669 276.022C807.082 275.405 807.428 275.107 807.872 274.6C811.527 268.704 815.27 263.122 818.575 257.288C820.614 253.688 823.03 252.027 827.315 252.284C833.701 252.668 840.131 252.262 846.531 252.501C847.716 252.545 849.783 253.983 849.848 254.893C850.185 259.63 850.087 264.406 849.926 269.162C849.9 269.93 848.798 270.662 847.517 271.409C846.216 272.045 845.592 272.684 844.967 273.322C844.745 274.973 844.337 276.624 844.332 278.276C844.291 292.858 844.321 307.44 844.191 322.625C844.471 323.727 844.889 324.226 845.307 324.725C846.706 325.226 848.104 325.727 849.728 326.31C849.728 332.396 849.728 338.578 849.697 345.165C839.08 345.611 828.493 345.653 817.496 345.73C816.573 342.541 815.842 339.331 815.609 336.086C815.381 332.902 815.658 329.681 815.779 326.041C815.844 325.606 816.262 325.507 816.461 325.427C818.087 324.391 820.686 323.509 820.751 322.467C821.136 316.353 821.004 310.2 820.844 304.065C820.818 303.087 819.768 302.137 818.388 299.831C814.443 306.767 811.09 312.664 807.741 318.898C807.414 319.663 807.083 320.09 806.68 320.778C804.243 324.353 801.876 327.666 799.103 331.55C797.723 329.871 796.561 328.755 795.751 327.421C791.544 320.49 787.479 313.471 783.243 306.558C782.139 304.756 780.602 303.223 779.264 301.567C778.726 301.777 778.189 301.986 777.651 302.196C777.651 309.158 777.49 316.129 777.844 323.073C777.892 324.003 780.548 324.798 782.46 326.096C782.992 330.982 783.242 335.436 783.045 339.87C782.956 341.867 781.972 343.824 781.395 345.799C770.939 345.765 760.482 345.731 749.47 345.496C748.34 344.745 747.767 344.195 747.193 343.645C747.346 337.934 747.498 332.224 747.774 326.169C751.979 325.969 753.475 324.044 753.424 319.908C753.249 305.728 753.323 291.545 753.388 277.363C753.4 274.662 753.053 272.417 749.992 271.682C749.698 271.611 749.181 271.46 749.177 271.333C748.985 265.143 748.808 258.95 748.837 252.76C748.838 252.58 751.083 252.27 752.283 252.262C759.02 252.214 765.766 252.43 772.494 252.161C775.772 252.03 777.469 253.469 778.998 256.065C784.603 265.588 790.319 275.045 796.048 284.495C798.232 288.098 800.182 288.119 802.338 284.503C803.908 281.872 805.191 279.068 806.669 276.022Z" fill="white"/>
<path d="M745.073 26.7787C744.863 26.1879 744.832 25.836 744.756 24.9996C743.921 23.4261 743.131 22.3371 742.341 21.2481C740.293 20.9013 738.244 20.5545 735.639 20.1134C735.639 14.4422 735.639 8.85665 735.734 2.66253C736.34 1.431 736.851 0.808013 737.362 0.185059C748.145 0.215132 758.928 0.245233 770.116 0.215697C771.096 1.83463 772.289 3.57385 772.133 5.18076C771.576 10.9374 774.228 17.0895 769.992 22.4978C769.381 23.2778 770.297 25.4391 770.763 26.8766C772.993 33.7467 775.193 40.6318 777.689 47.4051C778.243 48.9096 779.95 49.9838 781.126 51.2561C781.851 50.0395 782.811 48.9046 783.262 47.5926C785.697 40.4975 788.019 33.3628 790.35 26.2321C791.053 24.0831 791.252 22.447 789.77 19.975C788.245 17.43 788.879 13.4689 788.871 10.1267C788.848 -0.180254 787.692 0.411583 798.507 0.42268C807.083 0.431491 815.66 0.452668 824.665 0.427113C825.454 6.53552 826.001 12.6882 825.905 18.8306C825.895 19.4968 822.165 20.104 819.851 20.9321C818.258 22.8007 816.434 24.2861 815.779 26.1811C810.885 40.3202 806.262 54.5538 801.452 68.7227C800.594 71.2519 800.526 72.9448 803.349 74.3059C804.449 74.8363 805.379 76.8366 805.45 78.2165C805.704 83.1103 805.553 88.0252 805.571 93.3241C804.657 93.9342 803.729 94.1525 802.444 94.4289C796.172 94.2982 790.257 94.0171 784.339 93.9433C776.701 93.8481 769.058 93.7895 761.423 93.9746C757.826 94.0618 756.478 92.7719 756.746 89.1406C757.006 85.6227 756.747 82.0688 756.834 78.5336C756.863 77.3434 756.85 75.5312 757.545 75.0818C761.318 72.6411 759.849 69.6971 758.801 66.6484C754.263 53.4455 749.765 40.2291 745.073 26.7787Z" fill="white"/>
<path d="M472.658 253.61C472.972 253.976 473.161 254.194 473.568 254.5C473.885 254.884 474.068 255.108 474.472 255.425C474.797 255.818 474.999 256.033 475.448 256.303C475.785 256.668 475.963 256.901 476.35 257.24C476.652 257.651 476.841 257.877 477.284 258.16C477.621 258.53 477.809 258.754 478.222 259.064C478.523 259.464 478.696 259.702 479.106 260.024C479.425 260.416 479.61 260.643 480.026 260.953C480.344 261.342 480.529 261.569 480.944 261.879C481.263 262.267 481.446 262.495 481.852 262.814C482.16 263.214 482.343 263.442 482.764 263.747C483.099 264.124 483.292 264.344 483.708 264.649C484.004 265.037 484.16 265.275 484.522 265.624C484.885 271.694 485.084 277.626 485.18 284.136C484.543 285.341 484.01 285.966 483.477 286.591C476.781 286.542 470.086 286.492 462.814 286.227C461.659 285.133 461.078 284.255 460.498 283.378C460.389 280.672 460.281 277.967 459.901 274.991C458.394 273.737 457.207 272.681 455.899 271.81C455.456 271.515 454.707 271.663 454.097 271.65C439.386 271.32 439.178 272.026 439.419 285.41C439.616 296.327 439.417 307.251 439.481 318.171C439.516 324.064 441.047 325.546 446.824 325.627C449.421 325.664 452.021 325.694 454.616 325.611C459.066 325.469 461.312 323.576 461.075 319.097C460.603 310.173 462.958 311.582 469.201 311.519C473.173 311.479 477.146 311.556 481.119 311.513C483.767 311.485 485.052 312.613 484.991 315.383C484.898 319.534 485.152 323.702 484.863 327.834C484.745 329.516 483.855 331.317 482.845 332.72C481.332 334.822 479.404 336.621 477.531 338.815C472.409 345.557 465.554 346.029 458.117 345.632C450.344 345.216 442.515 345.825 434.745 345.383C432.002 345.227 428.91 343.838 426.768 342.051C422.669 338.633 419.136 334.526 415.117 330.515C414.921 309.33 414.978 288.336 415.082 266.91C419.733 261.927 424.336 257.375 428.99 252.536C430.278 252.071 431.514 251.893 433.417 251.894C441.186 252.143 448.288 252.305 455.389 252.246C459.715 252.209 464.038 251.83 468.362 251.605C469.292 251.85 470.221 252.094 471.613 252.5C472.075 252.66 472.001 252.776 472.005 252.824C472.121 253.12 472.283 253.328 472.658 253.61Z" fill="white"/>
<path d="M168.06 207.735C167.835 207.766 167.767 207.935 167.835 207.868C167.819 203.046 167.588 198.285 167.759 193.538C167.801 192.36 169.145 191.229 170.183 189.89C170.911 189.306 171.345 188.908 171.75 188.195C171.813 175.807 171.906 163.734 171.909 151.235C170.684 149.897 169.55 148.983 168.096 148.056C167.783 142.495 167.788 136.948 167.944 131.063C185.992 130.743 203.89 130.76 222.372 131.162C223.09 135.682 223.135 139.824 223.385 143.953C223.576 147.102 222.394 148.379 219.17 148.302C212.449 148.14 205.721 148.245 198.996 148.26C192.631 148.274 190.736 150.568 192.461 156.792C192.751 157.84 194.991 159.054 196.262 158.982C200.582 158.736 204.86 157.835 209.175 157.409C212.085 157.121 213.182 158.745 213.107 161.649C212.969 167.031 213.161 172.421 213.001 177.801C212.959 179.236 212.137 180.648 211.673 182.071C207.821 182.067 203.97 182.063 199.555 181.814C198.252 180.415 197.718 179.001 196.706 178.193C195.945 177.586 194.316 177.259 193.518 177.673C191.081 178.939 191.949 188.201 194.534 189.929C203.77 190.107 213.005 190.285 222.685 190.954C223.211 196.759 223.292 202.072 223.373 207.386C223.168 207.471 222.963 207.555 222.05 207.68C203.793 207.778 186.246 207.837 168.698 207.895C168.698 207.895 168.285 207.704 168.06 207.735Z" fill="white"/>
<path d="M579.15 322.952C579.737 323.793 580.059 324.993 580.429 325.008C586.119 325.244 585.33 329.41 585.075 332.948C584.776 337.079 584.04 341.179 583.279 345.575C574.051 345.817 565.038 345.666 556.028 345.789C552.529 345.837 550.768 344.706 551.22 341.021C551.93 335.222 549.575 329.117 553.031 323.492C553.315 323.031 551.036 319.844 549.855 319.785C542.846 319.433 535.803 319.443 528.787 319.719C525.221 319.859 525.61 321.998 526.303 325.538C527.473 331.51 527.122 337.8 527.151 343.956C527.154 344.522 525.283 345.588 524.281 345.59C514.212 345.614 504.142 345.464 493.661 345.217C493.378 338.809 493.507 332.545 493.916 326.004C497.785 326.433 499.905 325.042 501.119 321.487C503.932 313.248 507.001 305.097 509.91 296.535C509.853 296.16 509.832 296.133 510.159 296.067C512.519 290.662 514.552 285.323 516.585 279.983C517.166 277.879 517.746 275.774 518.144 272.926C517.601 265.572 517.242 258.962 516.883 252.351C531.776 252.273 546.669 252.194 562.006 252.678C561.887 259.895 564.051 266.805 560.614 273.192C560.614 273.192 560.537 273.498 560.54 273.656C561.96 278.549 563.072 283.403 564.855 287.994C569.379 299.646 574.203 311.179 579.15 322.952ZM541.833 302.004C542.993 301.21 544.784 300.655 545.186 299.576C546.13 297.039 540.881 289.063 537.871 288.215C537.033 289.935 536.106 291.674 535.321 293.477C531.865 301.421 532.284 302.027 541.833 302.004Z" fill="white"/>
<path d="M736.53 132.219C736.902 132.666 737.055 132.903 737.527 133.131C737.743 133.518 737.87 133.781 738.306 134.102C740.517 136.257 742.535 138.299 744.857 140.357C745.161 140.373 745.386 140.67 745.64 141.156C746.129 146.209 746.523 150.777 746.456 155.339C746.444 156.177 744.575 157.673 743.537 157.696C737.911 157.817 732.277 157.572 726.645 157.453C726.54 155.832 726.434 154.21 726.293 152.185C724.687 148.52 719.228 147.166 712.998 148.521C709.75 149.227 708.597 151.475 708.603 154.604C708.621 164.593 708.61 174.582 708.618 184.571C708.621 188.505 710.466 190.598 714.499 190.51C715.872 190.479 717.247 190.517 718.621 190.511C725.826 190.479 726.319 190.113 726.614 182.686C726.722 179.954 727.665 178.762 730.39 178.814C734.663 178.897 738.94 178.908 743.213 178.818C745.79 178.763 746.737 179.925 746.667 182.428C746.557 186.421 746.606 190.418 746.534 194.848C746.045 195.983 745.612 196.684 745.064 197.678C744.648 198.028 744.418 198.188 744.192 198.657C743.821 198.943 743.58 199.114 743.318 199.585C742.915 199.813 742.663 199.953 742.384 200.417C741.106 201.665 739.923 202.711 738.624 204.035C737.651 205.083 736.795 205.852 735.859 206.903C735.78 207.185 735.373 207.35 734.791 207.497C724.42 207.666 714.63 207.752 704.842 207.654C702.921 207.635 701.007 206.905 699.09 206.503C698.874 206.235 698.659 205.968 698.213 205.58C697.898 205.17 697.907 204.747 697.716 204.611C689.7 198.949 688.19 191.052 688.782 181.706C689.469 170.848 689.082 159.909 688.87 149.011C688.793 145.019 689.755 141.957 692.881 139.349C695.805 136.909 698.343 134.001 701.233 131.049C711.13 130.821 720.846 130.781 730.56 130.921C732.443 130.948 734.317 131.678 736.53 132.219Z" fill="white"/>
<path d="M364.587 198.685C364.216 198.969 363.976 199.136 363.72 199.607C363.315 199.84 363.058 199.986 362.774 200.461C361.494 201.731 360.31 202.795 359.06 204.156C358.752 204.673 358.51 204.891 358.214 205.352C357.862 205.611 357.632 205.746 357.412 206.196C357.075 206.515 356.798 206.636 355.966 207.035C343.747 207.305 332.082 207.297 320.417 207.289C319.925 206.756 319.432 206.222 318.696 205.565C318.362 205.154 318.362 204.731 318.167 204.598C309.805 198.891 308.699 190.653 309.224 181.264C309.824 170.551 309.538 159.775 309.279 149.034C309.177 144.809 310.445 141.738 313.61 139.046C316.395 136.678 318.814 133.873 321.564 131C332.614 130.759 343.494 130.78 354.793 130.821C357.884 133.573 360.455 136.416 363.255 139.008C366.396 141.916 368.876 152.688 366.867 156.398C366.474 157.123 365.177 157.711 364.279 157.738C359.694 157.874 355.103 157.76 350.516 157.828C347.934 157.867 346.952 156.64 347.096 154.146C347.355 149.657 344.885 148.387 340.803 148.339C329.568 148.206 329.044 148.61 329.044 159.717C329.043 166.337 329.043 172.958 329.044 179.578C329.044 190.288 329.424 190.679 340.209 190.483C342.745 190.437 345.624 190.925 346.614 186.714C346.792 183.78 346.9 181.548 347.441 179.249C353.316 179.072 358.76 178.851 364.197 178.958C365.134 178.976 366.843 180.389 366.838 181.149C366.807 186.442 366.418 191.732 366.143 197.023C365.848 197.115 365.624 197.296 365.416 197.78C365.054 198.047 364.818 198.207 364.587 198.685Z" fill="white"/>
<path d="M530.223 20.6691C529.598 20.479 529.334 20.3299 528.919 20.226C528.61 14.411 528.451 8.5508 528.232 2.26084C528.322 1.53389 528.471 1.23669 528.632 0.688364C550.733 0.502982 572.821 0.568748 595.354 1.14977C595.856 8.11466 596.061 14.5687 595.87 21.0109C595.823 22.606 594.493 24.1625 593.753 25.7368C589.191 25.634 584.628 25.5311 579.476 25.3253C577.608 23.9194 576.329 22.6166 575.049 21.3137C574.373 21.1405 573.696 20.9673 572.68 20.9035C558.594 19.2881 556.442 21.385 558.314 34.9472C558.472 36.0946 559.391 37.7021 560.311 38.0052C561.113 38.2692 562.412 36.9843 563.498 36.3955C565.101 35.5258 566.676 33.9919 568.322 33.908C583.432 33.1387 583.437 33.2122 583.436 48.5414C583.436 52.2375 583.338 55.9366 583.461 59.6285C583.546 62.1964 582.503 63.2746 579.977 63.2291C575.236 63.1437 570.493 63.166 565.32 62.6981C564.241 61.278 563.593 60.3033 562.945 59.3287C562.945 59.3287 562.564 59.2256 562.37 59.1915C559.52 56.1322 558.049 58.6128 557.765 60.6676C557.27 64.2606 557.441 67.9887 557.745 71.6252C557.834 72.6849 559.317 74.4761 560.171 74.4822C565.373 74.5191 570.577 74.1378 575.914 73.5586C582.172 72.7468 588.295 72.2092 594.428 71.9117C594.95 71.8864 596.037 73.4678 596.032 74.2974C595.991 80.7292 595.747 87.1596 595.414 93.9441C573.212 94.2444 551.162 94.1911 528.711 93.9916C528.302 88.6204 528.161 83.3899 528.372 78.1739C528.428 76.798 529.57 75.4666 530.799 74.3197C535.757 74.4416 535.381 71.0821 535.397 68.2983C535.48 54.3565 535.482 40.4136 535.365 26.4723C535.353 25.0098 534.377 23.5554 533.848 22.0973C532.76 21.6349 531.672 21.1726 530.223 20.6691Z" fill="white"/>
<path d="M702.54 312.747C702.487 315.85 702.433 318.954 702.329 322.69C703.129 323.907 703.981 324.491 704.832 325.075C708.768 325.154 712.703 325.233 717.058 325.251C723.474 324.613 729.471 324.038 735.467 323.462C738.672 323.154 739.855 324.729 739.777 327.831C739.665 332.296 739.697 336.768 739.764 341.235C739.808 344.137 738.555 345.414 735.632 345.408C715.732 345.365 695.832 345.44 675.934 345.27C674.683 345.259 672.417 343.541 672.375 342.544C672.148 337.03 672.463 331.492 672.768 325.592C673.813 325.186 674.683 325.15 676.112 325.184C677.406 323.495 678.756 321.744 678.778 319.976C678.952 305.858 678.893 291.736 678.867 277.616C678.857 272.287 678.021 271.511 672.353 271.203C672.22 265.384 672.087 259.565 671.959 253.337C673.011 252.748 674.058 252.413 675.106 252.412C695.17 252.38 715.234 252.436 735.298 252.338C738.472 252.322 739.712 253.455 739.634 256.632C739.48 262.949 739.525 269.271 739.437 276.008C733.91 276.517 728.434 276.61 722.527 276.733C719.567 272.173 708.126 269.388 703.637 272.348C702.942 272.806 702.137 273.739 702.112 274.477C701.968 278.782 701.914 283.102 702.156 287.398C702.201 288.191 703.697 289.422 704.604 289.501C705.533 289.582 706.566 288.503 707.545 287.918C709.051 287.019 710.489 285.484 712.065 285.327C715.855 284.949 719.708 285.263 723.534 285.205C726.065 285.166 727.067 286.301 727.038 288.84C726.956 296.082 727.153 303.331 726.878 310.564C726.828 311.881 725.169 314.13 724.084 314.239C719.687 314.679 715.213 314.632 710.794 314.351C709.579 314.274 708.455 312.76 706.989 311.763C706.688 311.62 706.687 311.635 706.662 311.306C704.427 309.588 702.697 309.322 702.54 312.747Z" fill="white"/>
<path d="M781.843 175.169C780.806 175.895 780.157 176.493 779.544 177.387C779.603 180.73 779.626 183.778 779.64 187.52C781.275 189.347 782.919 190.48 784.562 191.614C784.565 196.571 784.568 201.529 784.61 206.925C774.784 207.451 764.92 207.538 754.692 207.364C754.439 201.942 754.548 196.782 754.688 191.202C756.264 189.937 757.809 189.092 759.295 187.594C759.255 176.07 759.305 165.199 759.25 154.329C759.244 153.055 758.665 151.783 758.351 150.51L758.366 150.462C758.366 150.462 758.451 150.031 758.215 149.544C756.941 148.74 755.903 148.423 754.865 148.106C754.778 142.659 754.691 137.212 754.681 131.375C764.362 130.996 773.966 131.005 783.968 131.13C784.366 134.945 784.286 138.649 784.392 142.347C784.475 145.215 784.433 147.495 781.067 148.993C778.071 150.326 778.544 158.877 781.603 161.359C785.566 161.286 789.274 161.348 793.404 161.345C794.769 160.836 796.19 160.641 796.572 159.903C798.237 156.676 796.692 150.868 793.874 148.094C793.195 147.426 792.612 146.285 792.609 145.36C792.589 140.781 792.779 136.201 793.067 131.245C802.153 130.934 811.066 131 820.373 131.152C820.73 135.176 821.004 139.151 820.534 143.036C820.278 145.157 818.762 147.124 817.704 149.485C817.594 149.81 817.356 149.992 817.031 150.379C816.554 162.926 816.385 175.086 816.305 187.246C816.301 187.835 817.09 188.429 817.51 189.021C818.255 189.523 819.001 190.026 820.083 191.022C820.455 196.826 820.49 202.136 820.526 207.446C811.471 207.512 802.417 207.577 792.922 207.088C792.494 203.95 792.517 201.366 792.519 198.782C792.523 195.096 791.77 191.157 795.846 188.856C795.846 188.856 796.094 188.665 796.369 188.244C796.749 184.675 797.061 181.513 796.849 178.387C796.776 177.31 795.396 176.322 794.614 175.293C790.486 175.209 786.359 175.126 781.843 175.169Z" fill="white"/>
<path d="M971.767 207.517C971.43 204.459 971.435 201.582 971.274 198.322C971.206 195.777 971.304 193.615 971.769 191.135C972.805 190.56 973.473 190.302 974.403 190.035C975.035 189.248 975.406 188.469 975.835 187.268C975.9 178.138 975.974 169.428 975.882 160.72C975.846 157.255 975.443 153.794 975.21 150.015C974.144 149.157 973.074 148.615 972.003 148.073C971.906 142.77 971.809 137.468 971.695 131.732C980.944 131.129 990.209 130.96 999.879 130.795C1000.54 135.815 1000.83 140.829 1001 145.847C1001.02 146.492 1000.51 147.617 1000.04 147.744C995.252 149.036 996.041 152.865 996.038 156.343C996.031 164.485 996.035 172.626 996.035 180.768C996.036 190.703 996.038 190.802 1006.13 190.52C1007.95 190.469 1009.73 189.226 1011.54 188.168C1012.75 187.03 1013.92 185.72 1015.2 185.589C1018.44 185.255 1021.74 185.451 1025.67 185.658C1026.77 187.598 1027.54 189.302 1027.61 191.035C1027.85 196.543 1027.83 202.062 1027.9 207.577C1023.8 207.758 1019.69 208.107 1015.58 208.089C1001.09 208.027 986.6 207.839 971.767 207.517Z" fill="white"/>
<path d="M907.841 195.442C907.675 177.984 907.746 160.73 907.862 143.054C910.707 140.081 913.825 137.799 916.22 134.909C918.839 131.75 921.775 130.698 925.736 130.874C931.822 131.143 937.985 131.472 944.011 130.808C951.281 130.008 956.719 132.399 961.337 138.151C965.879 141.93 966.256 146.738 966.148 151.975C965.916 163.171 965.655 174.398 966.228 185.57C966.596 192.738 965.028 198.483 959.204 203.171C954.922 207.907 949.626 208.142 944.009 207.902C937.451 207.622 930.85 208.141 924.312 207.68C921.745 207.499 918.952 206.041 916.876 204.385C913.667 201.823 910.984 198.592 907.841 195.442ZM945.894 171.621C945.894 167.458 945.895 163.295 945.895 159.132C945.894 148.72 945.452 148.292 934.947 148.551C929.641 148.681 928.252 150.079 928.222 155.567C928.178 163.431 928.21 171.295 928.21 179.158C928.21 190.433 928.675 190.794 939.849 190.423C944.138 190.281 945.956 188.267 945.901 184.108C945.849 180.254 945.892 176.399 945.894 171.621Z" fill="white"/>
<path d="M628.692 190.471C629.161 190.169 629.456 190.118 629.915 189.849C630.558 189.357 631.025 189.009 631.457 188.345C631.503 175.82 631.585 163.611 631.509 151.04C631.298 150.333 631.243 149.988 630.836 149.246C629.535 148.51 628.586 148.171 627.638 147.832C627.638 147.832 627.467 147.64 627.348 147.686C627.198 142.722 627.167 137.71 627.021 132.318C627.91 131.619 628.915 131.023 629.919 131.025C647.549 131.061 665.178 131.171 683.25 131.31C683.44 137.199 683.188 143.043 683.18 149.321C683.424 149.755 683.504 149.662 683.497 149.613C683.489 149.563 683.457 149.466 683.028 149.211C673.55 148.987 664.501 149.018 655.311 148.846C654.502 149.055 653.834 149.468 653.062 150.114C653.014 150.507 653.07 150.668 653.142 150.805C653.158 150.783 653.103 150.779 652.788 150.967C652.557 153.356 652.641 155.556 652.743 157.915C652.761 158.074 652.958 158.325 652.987 158.588C653.852 158.76 654.688 158.669 655.662 158.57C655.801 158.562 655.997 158.364 656.383 158.35C661.299 158.051 665.834 157.566 670.359 157.643C671.322 157.66 673.011 159.688 673.067 160.852C673.346 166.674 673.247 172.518 673.139 178.352C673.122 179.279 672.626 180.51 671.93 181.057C669.174 183.221 659.514 181.535 656.853 178.943C655.996 178.108 653.696 177.562 652.912 178.114C651.271 179.272 652.289 187.907 654.369 190.033C664.019 190.08 673.24 190.012 682.462 189.943C682.945 193.126 683.559 196.296 683.865 199.496C684.08 201.742 683.876 204.029 683.793 206.717C675.828 207.295 667.931 207.563 660.033 207.585C649.539 207.615 639.045 207.454 628.164 207.233C628.028 201.659 628.279 196.229 628.692 190.471Z" fill="white"/>
</svg>
