<svg width="1331" height="543" viewBox="0 0 1331 543" fill="none" xmlns="http://www.w3.org/2000/svg">
<path d="M303.155 102.919H322.471C329.939 102.919 335.844 104.951 340.184 109.055C344.524 113.158 346.714 118.434 346.714 124.922C346.714 131.722 344.524 137.037 340.106 140.945C335.687 144.814 329.431 146.768 321.259 146.768H303.155V102.919ZM314.064 110.931V138.678H321.181C325.795 138.678 329.353 137.389 331.777 134.848C334.241 132.308 335.453 128.947 335.453 124.805C335.453 120.506 334.201 117.106 331.738 114.643C329.275 112.181 325.716 110.931 321.063 110.931H314.064Z" fill="white"/>
<path d="M382.609 137.544V143.407C379.051 145.986 374.632 147.315 369.393 147.315C364.192 147.315 360.008 145.908 356.919 143.133C353.791 140.319 352.227 136.646 352.227 132.034C352.227 127.501 353.674 123.788 356.606 120.896C359.539 118.004 363.254 116.519 367.789 116.519C372.364 116.519 376.079 118.043 379.012 121.13C381.944 124.179 383.313 128.282 383.117 133.441H361.846C362.042 136.137 362.98 138.209 364.7 139.655C366.421 141.101 368.728 141.843 371.621 141.843C375.141 141.765 378.777 140.358 382.609 137.544ZM362.042 128.517H374.906C374.398 124.218 372.247 122.068 368.454 122.068C364.661 122.029 362.511 124.179 362.042 128.517Z" fill="white"/>
<path d="M398.289 117.105V119.684C400.792 117.535 403.607 116.479 406.774 116.479C410.606 116.479 413.891 117.925 416.549 120.857C419.208 123.749 420.538 127.344 420.538 131.565C420.538 136.333 419.208 140.123 416.549 142.976C413.891 145.829 410.371 147.275 405.953 147.275C403.216 147.275 400.674 146.611 398.328 145.243V161.501H389.022V117.105H398.289ZM398.289 125.507V139.107C400.049 140.397 401.847 141.061 403.685 141.061C405.953 141.061 407.752 140.241 409.081 138.638C410.411 137.036 411.075 134.808 411.075 132.073C411.075 129.259 410.45 127.07 409.237 125.468C408.025 123.866 406.305 123.123 404.076 123.123C402.199 123.123 400.283 123.905 398.289 125.507Z" fill="white"/>
<path d="M456.902 139.42V144.579C453.813 146.376 450.88 147.275 448.182 147.275C445.25 147.275 443.529 146.181 442.982 143.953C439.737 146.181 436.491 147.275 433.207 147.275C430.9 147.275 428.944 146.533 427.341 145.087C425.738 143.641 424.917 141.921 424.917 140.006C424.917 137.427 425.738 135.356 427.419 133.753C429.101 132.19 434.106 130.119 442.513 127.657C442.708 124.335 440.988 122.693 437.351 122.693C433.402 122.693 429.766 124.335 426.442 127.657V120.075C430.352 117.652 434.614 116.479 439.267 116.479C447.635 116.479 451.819 119.489 451.819 125.507V139.029C451.819 140.397 452.327 141.101 453.344 141.101C454.165 141.061 455.299 140.514 456.902 139.42ZM442.513 139.537V132.346C439.385 133.441 437.273 134.418 436.1 135.277C434.927 136.137 434.34 137.271 434.34 138.599C434.34 139.459 434.614 140.202 435.201 140.827C435.787 141.452 436.491 141.765 437.351 141.765C439.111 141.765 440.831 141.022 442.513 139.537Z" fill="white"/>
<path d="M470.314 117.105V125.585H470.431C473.129 119.528 476.297 116.479 479.894 116.479C481.614 116.479 483.687 117.378 486.072 119.176L483.491 127.422C481.184 125.976 479.346 125.234 477.978 125.234C475.827 125.234 473.99 126.562 472.543 129.22C471.057 131.877 470.314 133.441 470.314 133.871V146.689H461.008V117.066H470.314V117.105Z" fill="white"/>
<path d="M512.114 117.105V123.475H501.322V135.668C501.322 137.114 501.713 138.287 502.534 139.147C503.355 140.006 504.45 140.436 505.857 140.436C507.773 140.436 509.846 139.85 512.114 138.717V145.478C509.142 146.728 506.248 147.315 503.472 147.315C499.836 147.315 497.02 146.377 494.987 144.501C492.993 142.625 491.976 139.85 491.976 136.216V123.514H487.753V121.677L500.149 107.804H501.322V117.105H512.114Z" fill="white"/>
<path d="M526.425 117.105V120.896C529.592 117.965 533.033 116.479 536.709 116.479C541.792 116.479 545.35 118.59 547.383 122.772C550.981 118.551 554.852 116.479 559.075 116.479C562.477 116.479 565.253 117.535 567.442 119.567C569.593 121.638 570.688 124.335 570.688 127.657V146.689H561.382V129.376C561.382 127.266 560.912 125.664 559.935 124.491C558.957 123.319 557.628 122.732 555.907 122.732C553.17 122.732 550.746 124.413 548.556 127.774V146.728H539.25V129.181C539.25 127.11 538.742 125.507 537.686 124.413C536.669 123.319 535.262 122.732 533.541 122.732C531.078 122.732 528.732 124.1 526.425 126.836V146.728H517.119V117.105H526.425Z" fill="white"/>
<path d="M607.365 137.544V143.407C603.807 145.986 599.389 147.315 594.149 147.315C588.948 147.315 584.765 145.908 581.676 143.133C578.547 140.319 576.983 136.646 576.983 132.034C576.983 127.501 578.43 123.788 581.363 120.896C584.295 118.004 588.01 116.519 592.546 116.519C597.121 116.519 600.835 118.043 603.768 121.13C606.701 124.179 608.069 128.282 607.874 133.441H586.602C586.798 136.137 587.736 138.209 589.457 139.655C591.177 141.101 593.484 141.843 596.378 141.843C599.897 141.765 603.533 140.358 607.365 137.544ZM586.837 128.517H599.701C599.193 124.218 597.042 122.068 593.25 122.068C589.418 122.029 587.267 124.179 586.837 128.517Z" fill="white"/>
<path d="M623.24 117.105V121.326C625.977 118.121 629.184 116.479 632.859 116.479C635.948 116.479 638.49 117.457 640.562 119.411C642.635 121.365 643.651 124.178 643.651 127.852V146.689H634.345V128.634C634.345 124.686 632.82 122.693 629.731 122.693C627.541 122.693 625.352 124.335 623.24 127.578V146.689H613.934V117.066H623.24V117.105Z" fill="white"/>
<path d="M672.665 117.105V123.475H661.873V135.668C661.873 137.114 662.264 138.287 663.085 139.147C663.906 140.006 665.001 140.436 666.408 140.436C668.324 140.436 670.397 139.85 672.665 138.717V145.478C669.693 146.728 666.8 147.315 664.023 147.315C660.387 147.315 657.572 146.377 655.538 144.501C653.544 142.625 652.527 139.85 652.527 136.216V123.514H648.304V121.677L660.7 107.804H661.873V117.105H672.665Z" fill="white"/>
<path d="M710.632 116.479C715.286 116.479 719.196 117.847 722.441 120.544C725.687 123.28 727.29 127.07 727.29 131.916C727.29 136.802 725.647 140.553 722.363 143.25C719.078 145.947 715.168 147.275 710.632 147.275C705.706 147.275 701.678 145.829 698.55 142.976C695.422 140.123 693.858 136.411 693.858 131.838C693.858 127.188 695.461 123.475 698.628 120.661C701.835 117.886 705.823 116.479 710.632 116.479ZM710.632 141.765C715.09 141.765 717.319 138.404 717.319 131.682C717.319 125.234 715.09 122.029 710.632 122.029C708.482 122.029 706.84 122.889 705.627 124.569C704.415 126.25 703.829 128.712 703.829 131.838C703.829 138.482 706.097 141.765 710.632 141.765Z" fill="white"/>
<path d="M744.182 117.105H748.404V123.475H744.182V146.728H734.875V123.475H730.652V117.105H734.875V115.62C734.875 111.477 736.048 108.194 738.395 105.85C740.741 103.505 743.908 102.332 747.857 102.332C748.835 102.332 750.712 102.528 753.488 102.879V110.422C751.533 110.188 750.164 110.031 749.304 110.031C745.863 110.031 744.142 111.751 744.142 115.19V117.105H744.182Z" fill="white"/>
<path d="M771.748 102.918H791.064C798.533 102.918 804.437 104.951 808.777 109.054C813.118 113.158 815.268 118.434 815.268 124.921C815.268 131.721 813.079 137.036 808.66 140.944C804.242 144.813 797.985 146.767 789.813 146.767H771.709V102.918H771.748ZM782.657 110.93V138.678H789.774C794.388 138.678 797.946 137.388 800.37 134.848C802.834 132.307 804.046 128.946 804.046 124.804C804.046 120.505 802.795 117.105 800.331 114.643C797.868 112.181 794.31 110.93 789.657 110.93H782.657Z" fill="white"/>
<path d="M851.203 137.544V143.407C847.644 145.986 843.226 147.315 837.986 147.315C832.786 147.315 828.602 145.908 825.513 143.133C822.385 140.319 820.821 136.646 820.821 132.034C820.821 127.501 822.268 123.788 825.2 120.896C828.133 118.004 831.847 116.519 836.422 116.519C840.997 116.519 844.712 118.043 847.644 121.13C850.577 124.179 851.946 128.282 851.75 133.441H830.479C830.674 136.137 831.613 138.209 833.333 139.655C835.054 141.101 837.361 141.843 840.254 141.843C843.695 141.765 847.371 140.358 851.203 137.544ZM830.635 128.517H843.5C842.991 124.218 840.841 122.068 837.048 122.068C833.255 122.029 831.104 124.179 830.635 128.517Z" fill="white"/>
<path d="M868.407 117.105H872.63V123.475H868.407V146.728H859.101V123.475H854.878V117.105H859.101V115.62C859.101 111.477 860.274 108.194 862.62 105.85C864.966 103.505 868.134 102.332 872.083 102.332C873.06 102.332 874.937 102.528 877.713 102.879V110.422C875.758 110.188 874.39 110.031 873.53 110.031C870.089 110.031 868.368 111.751 868.368 115.19V117.105H868.407Z" fill="white"/>
<path d="M905.397 137.544V143.407C901.839 145.986 897.421 147.315 892.181 147.315C886.98 147.315 882.797 145.908 879.708 143.133C876.579 140.319 875.015 136.646 875.015 132.034C875.015 127.501 876.462 123.788 879.395 120.896C882.327 118.004 886.042 116.519 890.617 116.519C895.192 116.519 898.906 118.043 901.839 121.13C904.772 124.179 906.14 128.282 905.945 133.441H884.673C884.869 136.137 885.807 138.209 887.528 139.655C889.248 141.101 891.555 141.843 894.449 141.843C897.929 141.765 901.604 140.358 905.397 137.544ZM884.869 128.517H897.733C897.225 124.218 895.074 122.068 891.282 122.068C887.45 122.029 885.338 124.179 884.869 128.517Z" fill="white"/>
<path d="M921.312 117.105V121.326C924.049 118.121 927.255 116.479 930.931 116.479C934.02 116.479 936.561 117.457 938.634 119.411C940.706 121.365 941.723 124.178 941.723 127.852V146.689H932.416V128.634C932.416 124.686 930.891 122.693 927.802 122.693C925.613 122.693 923.423 124.335 921.312 127.578V146.689H912.005V117.066H921.312V117.105Z" fill="white"/>
<path d="M969.798 118.668V125.273C966.239 123.084 962.955 122.029 959.905 122.029C957.676 122.029 956.542 122.772 956.542 124.335C956.542 124.726 956.777 125.116 957.246 125.507C957.715 125.898 959.514 126.719 962.642 127.969C965.77 129.22 967.999 130.666 969.289 132.307C970.58 133.949 971.244 135.746 971.244 137.661C971.244 140.749 970.189 143.133 968.116 144.774C966.044 146.455 963.033 147.275 959.162 147.275C955.174 147.275 951.655 146.572 948.566 145.126V138.56C952.358 140.241 955.565 141.061 958.145 141.061C961.156 141.061 962.681 140.319 962.681 138.873C962.681 138.326 962.408 137.779 961.86 137.271C961.313 136.763 959.436 135.903 956.269 134.652C953.101 133.402 950.912 132.034 949.739 130.549C948.566 129.064 947.979 127.422 947.979 125.585C947.979 122.889 949.113 120.7 951.342 118.981C953.61 117.3 956.542 116.44 960.257 116.44C963.776 116.48 966.943 117.222 969.798 118.668Z" fill="white"/>
<path d="M1005.77 137.544V143.407C1002.21 145.986 997.794 147.315 992.555 147.315C987.354 147.315 983.17 145.908 980.081 143.133C976.953 140.319 975.389 136.646 975.389 132.034C975.389 127.501 976.836 123.788 979.769 120.896C982.701 118.004 986.416 116.519 990.991 116.519C995.566 116.519 999.28 118.043 1002.21 121.13C1005.15 124.179 1006.51 128.282 1006.32 133.441H985.047C985.243 136.137 986.181 138.209 987.902 139.655C989.622 141.101 991.929 141.843 994.823 141.843C998.264 141.765 1001.94 140.358 1005.77 137.544ZM985.204 128.517H998.068C997.56 124.218 995.409 122.068 991.616 122.068C987.823 122.029 985.673 124.179 985.204 128.517Z" fill="white"/>
<path d="M155.312 177.329H77.3823V353.428H150.502C182.917 353.428 208.255 345.572 225.851 330.057C243.525 314.503 252.479 292.852 252.479 265.691C252.479 239.78 243.681 218.325 226.281 201.95C208.881 185.614 185.029 177.329 155.312 177.329ZM124.187 212.736H149.759C167.394 212.736 181.08 217.465 190.386 226.766C199.692 236.067 204.423 249.081 204.423 265.417C204.423 281.167 199.731 294.024 190.542 303.599C181.353 313.135 167.785 317.981 150.229 317.981H124.148V212.736H124.187Z" fill="white"/>
<path d="M373.147 247.206C360.126 236.263 344.094 230.713 325.482 230.713C306.244 230.713 289.978 236.458 277.152 247.753C264.249 259.086 257.68 274.367 257.68 293.126C257.68 311.533 264.092 326.735 276.761 338.303C289.352 349.832 305.775 355.655 325.482 355.655C343.703 355.655 359.618 350.184 372.834 339.437C386.167 328.572 392.893 313.057 392.893 293.399C392.893 273.742 386.246 258.226 373.147 247.206ZM325.482 330.057C308.785 330.057 300.652 317.981 300.652 293.087C300.652 281.128 302.92 271.866 307.378 265.574C311.757 259.399 317.701 256.39 325.482 256.39C341.865 256.39 349.842 268.153 349.842 292.383C349.803 317.747 341.865 330.057 325.482 330.057Z" fill="white"/>
<path d="M551.098 201.95C533.737 185.614 509.885 177.329 480.129 177.329H402.199V353.428H475.319C507.734 353.428 533.072 345.572 550.668 330.057C568.342 314.503 577.296 292.852 577.296 265.691C577.296 239.78 568.498 218.325 551.098 201.95ZM449.043 212.736H474.615C492.25 212.736 505.936 217.465 515.242 226.766C524.548 236.067 529.279 249.081 529.279 265.417C529.279 281.167 524.587 294.024 515.398 303.599C506.209 313.135 492.641 317.981 475.085 317.981H449.004V212.736H449.043Z" fill="white"/>
<path d="M691.786 254.944C684.083 250.879 673.721 246.463 660.974 241.773C648.5 237.201 640.641 233.449 637.552 230.674C634.658 228.056 633.251 225.476 633.251 222.741C633.251 219.184 635.167 216.371 639.116 214.143C643.378 211.72 649.243 210.508 656.594 210.508C669.811 210.508 687.954 215.628 710.437 225.75L713.174 226.962V189.053L712.001 188.545C691.395 179.595 671.492 175.062 652.88 175.062C632.547 175.062 616.046 179.791 603.846 189.092C591.49 198.511 585.195 211.095 585.195 226.454C585.195 238.256 588.088 248.104 593.797 255.725C599.428 263.229 606.192 269.13 613.935 273.155C621.52 277.142 631.882 281.48 644.786 286.091C657.337 290.585 665.314 294.376 668.481 297.385C671.492 300.238 672.939 303.13 672.939 306.218C672.939 309.657 672.939 320.17 649.595 320.17C639.937 320.17 630.67 318.45 622.068 315.011C613.348 311.533 603.182 305.944 591.842 298.323L588.831 296.291V338.147L589.809 338.694C610.063 349.91 631.296 355.577 652.919 355.577C673.095 355.577 689.596 350.653 702.03 341C714.582 331.191 720.956 317.864 720.956 301.372C720.956 289.804 718.023 280.112 712.236 272.452C706.527 265.026 699.684 259.086 691.786 254.944Z" fill="white"/>
<path d="M723.927 212.736H786.333V353.388H833.138V212.736H895.544V177.329H723.927V212.736Z" fill="white"/>
<path d="M952.476 280.424H1031.03V245.017H952.476V212.736H1034.86V177.329H905.671V353.388H1036.58V317.981H952.476V280.424Z" fill="white"/>
<path d="M1202.06 177.329L1147.55 240.171L1093.01 177.329H1052.93V353.388H1099.69V249.159L1143.41 299.887H1151.66L1195.38 249.159V353.388H1242.18V177.329H1202.06Z" fill="white"/>
<path d="M103.971 404.117V411.738C98.81 409.393 94.6653 408.26 91.5763 408.26C89.8167 408.26 88.4481 408.572 87.3924 409.158C86.3757 409.745 85.8283 410.526 85.8283 411.503C85.8283 412.246 86.2193 412.949 86.9623 413.614C87.7052 414.278 89.543 415.138 92.3974 416.232C95.2518 417.326 97.5979 418.264 99.3184 419.202C101.039 420.101 102.564 421.391 103.815 423.071C105.066 424.713 105.692 426.823 105.692 429.363C105.692 432.959 104.323 435.851 101.586 438C98.8492 440.15 95.2127 441.205 90.716 441.205C85.8674 441.205 81.1752 439.954 76.6394 437.414V429.012C79.2593 430.77 81.5663 432.021 83.5604 432.841C85.5546 433.662 87.7052 434.053 89.9731 434.053C93.805 434.053 95.721 432.841 95.721 430.458C95.721 429.637 95.33 428.855 94.5871 428.152C93.805 427.409 91.9673 426.549 89.0738 425.494C86.1411 424.439 83.8341 423.501 82.1528 422.602C80.4323 421.703 78.9855 420.453 77.7343 418.772C76.483 417.131 75.8574 414.981 75.8574 412.402C75.8574 409.041 77.226 406.345 79.924 404.273C82.622 402.202 86.2584 401.186 90.7551 401.186C94.8999 401.108 99.3184 402.124 103.971 404.117Z" fill="white"/>
<path d="M131.303 433.426V439.367C128.058 440.539 125.086 441.125 122.388 441.125C117.735 441.125 114.021 439.875 111.244 437.374C108.468 434.872 107.1 431.59 107.1 427.486C107.1 423.461 108.507 420.178 111.323 417.559C114.138 414.941 117.696 413.651 122.036 413.651C124.813 413.651 127.784 414.238 130.912 415.371V421.546C128.605 420.373 126.377 419.787 124.148 419.787C121.685 419.787 119.69 420.491 118.204 421.858C116.719 423.226 115.976 425.102 115.976 427.408C115.976 429.753 116.719 431.629 118.165 433.036C119.612 434.442 121.528 435.185 123.913 435.185C125.634 435.224 128.097 434.638 131.303 433.426Z" fill="white"/>
<path d="M133.728 405.679C133.728 404.428 134.158 403.334 135.057 402.435C135.956 401.536 137.012 401.106 138.263 401.106C139.515 401.106 140.609 401.536 141.509 402.435C142.408 403.334 142.838 404.428 142.838 405.679C142.838 406.93 142.408 407.985 141.509 408.923C140.609 409.822 139.515 410.29 138.263 410.29C137.012 410.29 135.956 409.822 135.057 408.923C134.197 408.024 133.728 406.93 133.728 405.679ZM142.486 414.277V440.656H134.197V414.277H142.486Z" fill="white"/>
<path d="M172.438 432.449V437.686C169.271 439.992 165.361 441.164 160.669 441.164C156.016 441.164 152.301 439.914 149.525 437.413C146.748 434.911 145.38 431.629 145.38 427.525C145.38 423.5 146.67 420.178 149.29 417.599C151.91 415.019 155.233 413.729 159.261 413.729C163.328 413.729 166.651 415.097 169.271 417.833C171.891 420.569 173.103 424.203 172.907 428.815H153.943C154.1 431.199 154.96 433.035 156.485 434.325C158.01 435.615 160.082 436.279 162.624 436.279C165.752 436.201 168.997 434.95 172.438 432.449ZM154.1 424.399H165.556C165.126 420.569 163.21 418.654 159.808 418.654C156.446 418.654 154.53 420.569 154.1 424.399Z" fill="white"/>
<path d="M183.7 414.277V418.028C186.124 415.175 189.017 413.729 192.263 413.729C195 413.729 197.307 414.589 199.106 416.348C200.943 418.107 201.843 420.608 201.843 423.851V440.617H193.592V424.516C193.592 420.999 192.224 419.24 189.487 419.24C187.532 419.24 185.616 420.686 183.7 423.617V440.617H175.41V414.238H183.7V414.277Z" fill="white"/>
<path d="M228.979 433.426V439.367C225.734 440.539 222.762 441.125 220.064 441.125C215.411 441.125 211.696 439.875 208.92 437.374C206.144 434.872 204.775 431.59 204.775 427.486C204.775 423.461 206.183 420.178 208.998 417.559C211.814 414.941 215.372 413.651 219.712 413.651C222.488 413.651 225.46 414.238 228.588 415.371V421.546C226.281 420.373 224.052 419.787 221.824 419.787C219.36 419.787 217.366 420.491 215.88 421.858C214.394 423.226 213.651 425.102 213.651 427.408C213.651 429.753 214.394 431.629 215.841 433.036C217.288 434.442 219.204 435.185 221.589 435.185C223.31 435.224 225.773 434.638 228.979 433.426Z" fill="white"/>
<path d="M257.445 432.449V437.686C254.278 439.992 250.368 441.164 245.675 441.164C241.022 441.164 237.308 439.914 234.531 437.413C231.755 434.911 230.387 431.629 230.387 427.525C230.387 423.5 231.677 420.178 234.297 417.599C236.917 415.019 240.24 413.729 244.268 413.729C248.334 413.729 251.658 415.097 254.278 417.833C256.898 420.569 258.11 424.203 257.914 428.815H238.95C239.106 431.199 239.967 433.035 241.492 434.325C243.017 435.615 245.089 436.279 247.631 436.279C250.759 436.201 254.004 434.95 257.445 432.449ZM239.106 424.399H250.563C250.133 420.569 248.217 418.654 244.815 418.654C241.452 418.654 239.536 420.569 239.106 424.399Z" fill="white"/>
<path d="M272.734 420.882C272.734 419.514 273.203 418.341 274.22 417.364C275.197 416.387 276.37 415.879 277.739 415.879C279.107 415.879 280.28 416.348 281.258 417.364C282.236 418.341 282.744 419.514 282.744 420.882C282.744 422.249 282.275 423.422 281.258 424.399C280.28 425.376 279.107 425.884 277.739 425.884C276.37 425.884 275.197 425.376 274.22 424.399C273.242 423.422 272.734 422.249 272.734 420.882Z" fill="white"/>
<path d="M326.733 401.615V408.766H312.579V440.656H302.842V408.766H288.688V401.615H326.733Z" fill="white"/>
<path d="M345.189 432.449V437.686C342.022 439.992 338.112 441.164 333.42 441.164C328.766 441.164 325.052 439.914 322.276 437.413C319.499 434.911 318.131 431.629 318.131 427.525C318.131 423.5 319.421 420.178 322.041 417.599C324.661 415.019 327.984 413.729 332.012 413.729C336.078 413.729 339.402 415.097 342.022 417.833C344.642 420.569 345.854 424.203 345.658 428.815H326.694C326.85 431.199 327.711 433.035 329.236 434.325C330.761 435.615 332.833 436.279 335.375 436.279C338.503 436.201 341.748 434.95 345.189 432.449ZM326.85 424.399H338.307C337.877 420.569 335.961 418.654 332.559 418.654C329.197 418.654 327.281 420.569 326.85 424.399Z" fill="white"/>
<path d="M371.231 433.426V439.367C367.985 440.539 365.014 441.125 362.316 441.125C357.662 441.125 353.948 439.875 351.172 437.374C348.395 434.872 347.027 431.59 347.027 427.486C347.027 423.461 348.435 420.178 351.25 417.559C354.065 414.941 357.623 413.651 361.964 413.651C364.74 413.651 367.712 414.238 370.84 415.371V421.546C368.533 420.373 366.304 419.787 364.075 419.787C361.612 419.787 359.618 420.491 358.132 421.858C356.646 423.226 355.903 425.102 355.903 427.408C355.903 429.753 356.646 431.629 358.093 433.036C359.539 434.442 361.455 435.185 363.841 435.185C365.522 435.224 368.024 434.638 371.231 433.426Z" fill="white"/>
<path d="M382.336 401.614V418.107H382.453C384.76 415.176 387.536 413.691 390.821 413.691C393.636 413.691 395.943 414.589 397.781 416.348C399.58 418.146 400.518 420.608 400.518 423.773V440.617H392.229V425.532C392.229 421.702 390.821 419.787 387.966 419.787C386.09 419.787 384.213 421.116 382.414 423.773V440.617H374.125V401.575H382.336V401.614Z" fill="white"/>
<path d="M412.756 414.277V418.028C415.181 415.175 418.074 413.729 421.32 413.729C424.057 413.729 426.364 414.589 428.162 416.348C430 418.107 430.899 420.608 430.899 423.851V440.617H422.61V424.516C422.61 420.999 421.241 419.24 418.504 419.24C416.549 419.24 414.633 420.686 412.717 423.617V440.617H404.428V414.238H412.756V414.277Z" fill="white"/>
<path d="M448.574 413.69C452.718 413.69 456.237 414.902 459.092 417.325C461.985 419.748 463.393 423.109 463.393 427.447C463.393 431.785 461.946 435.146 459.014 437.53C456.081 439.914 452.601 441.125 448.574 441.125C444.194 441.125 440.597 439.836 437.821 437.295C435.044 434.755 433.637 431.433 433.637 427.369C433.637 423.226 435.044 419.904 437.899 417.403C440.753 414.941 444.311 413.69 448.574 413.69ZM448.574 436.201C452.562 436.201 454.517 433.192 454.517 427.212C454.517 421.468 452.523 418.615 448.574 418.615C446.658 418.615 445.172 419.357 444.116 420.881C443.06 422.405 442.513 424.555 442.513 427.369C442.513 433.27 444.507 436.201 448.574 436.201Z" fill="white"/>
<path d="M474.576 401.615V440.656H466.287V401.615H474.576Z" fill="white"/>
<path d="M492.367 413.69C496.512 413.69 500.031 414.902 502.886 417.325C505.779 419.748 507.187 423.109 507.187 427.447C507.187 431.785 505.74 435.146 502.808 437.53C499.875 439.914 496.395 441.125 492.367 441.125C487.988 441.125 484.391 439.836 481.615 437.295C478.838 434.755 477.431 431.433 477.431 427.369C477.431 423.226 478.838 419.904 481.693 417.403C484.547 414.941 488.105 413.69 492.367 413.69ZM492.367 436.201C496.356 436.201 498.311 433.192 498.311 427.212C498.311 421.468 496.317 418.615 492.367 418.615C490.451 418.615 488.966 419.357 487.91 420.881C486.854 422.405 486.307 424.555 486.307 427.369C486.307 433.27 488.34 436.201 492.367 436.201Z" fill="white"/>
<path d="M535.927 414.277V419.826H532.173C533.033 421.311 533.502 422.796 533.502 424.203C533.502 426.235 532.72 428.15 531.195 429.87C529.67 431.589 527.403 432.645 524.431 432.957C521.42 433.27 519.739 433.583 519.348 433.895C518.957 434.208 518.761 434.56 518.761 435.029C518.761 435.498 519.035 435.849 519.543 436.162C520.051 436.475 522.124 436.748 525.721 437.061C529.319 437.373 531.821 438.311 533.229 439.875C534.636 441.438 535.34 443.118 535.34 444.955C535.34 447.847 534.128 450.036 531.743 451.56C529.358 453.084 525.878 453.827 521.342 453.827C516.728 453.827 513.209 453.123 510.823 451.716C508.438 450.309 507.226 448.472 507.226 446.167C507.226 442.962 509.572 440.734 514.264 439.445C512.153 438.819 511.097 437.647 511.097 436.006C511.097 434.052 512.7 432.723 515.907 432.019C513.756 431.629 511.996 430.73 510.589 429.245C509.181 427.76 508.477 425.962 508.477 423.891C508.477 421.35 509.494 419.123 511.488 417.169C513.482 415.215 516.415 414.277 520.247 414.277H535.927ZM521.694 448.863C523.453 448.863 524.9 448.551 525.995 447.886C527.09 447.222 527.637 446.44 527.637 445.541C527.637 443.587 525.487 442.649 521.185 442.649C519.23 442.649 517.705 442.923 516.571 443.509C515.437 444.095 514.89 444.838 514.89 445.776C514.89 447.847 517.158 448.863 521.694 448.863ZM520.99 419.162C519.621 419.162 518.487 419.631 517.588 420.569C516.65 421.507 516.219 422.64 516.219 423.969C516.219 425.258 516.689 426.353 517.627 427.291C518.566 428.229 519.699 428.697 520.99 428.697C522.28 428.697 523.414 428.189 524.353 427.212C525.291 426.235 525.76 425.063 525.76 423.656C525.76 422.405 525.291 421.35 524.392 420.451C523.492 419.631 522.358 419.162 520.99 419.162Z" fill="white"/>
<path d="M564.08 414.277L546.406 453.319H537.569L545.311 436.357L534.988 414.277H543.864L549.456 427.877L555.399 414.277H564.08Z" fill="white"/>
<path d="M577.022 420.882C577.022 419.514 577.492 418.341 578.508 417.364C579.486 416.387 580.659 415.879 582.027 415.879C583.396 415.879 584.569 416.348 585.547 417.364C586.524 418.341 587.032 419.514 587.032 420.882C587.032 422.249 586.563 423.422 585.547 424.399C584.569 425.376 583.396 425.884 582.027 425.884C580.659 425.884 579.486 425.376 578.508 424.399C577.531 423.422 577.022 422.249 577.022 420.882Z" fill="white"/>
<path d="M633.25 433.466V440.617H604.472V401.575H632.859V408.727H614.169V416.895H631.96V424.047H614.169V433.426H633.25V433.466Z" fill="white"/>
<path d="M645.216 414.277V418.028C647.64 415.175 650.533 413.729 653.779 413.729C656.516 413.729 658.823 414.589 660.622 416.348C662.459 418.107 663.359 420.608 663.359 423.851V440.617H655.069V424.516C655.069 420.999 653.701 419.24 650.964 419.24C649.008 419.24 647.092 420.686 645.176 423.617V440.617H636.887V414.238H645.216V414.277Z" fill="white"/>
<path d="M694.327 414.277V419.826H690.573C691.433 421.311 691.903 422.796 691.903 424.203C691.903 426.235 691.121 428.15 689.596 429.87C688.071 431.589 685.803 432.645 682.831 432.957C679.82 433.27 678.139 433.583 677.748 433.895C677.357 434.208 677.161 434.56 677.161 435.029C677.161 435.498 677.435 435.849 677.943 436.162C678.452 436.436 680.524 436.748 684.122 437.061C687.719 437.373 690.221 438.311 691.629 439.875C693.037 441.438 693.741 443.118 693.741 444.955C693.741 447.847 692.528 450.036 690.143 451.56C687.758 453.084 684.278 453.827 679.742 453.827C675.128 453.827 671.609 453.123 669.224 451.716C666.839 450.309 665.626 448.472 665.626 446.167C665.626 442.962 667.973 440.734 672.665 439.445C670.553 438.819 669.497 437.647 669.497 436.006C669.497 434.052 671.101 432.723 674.307 432.019C672.156 431.629 670.397 430.73 668.989 429.245C667.582 427.76 666.878 425.962 666.878 423.891C666.878 421.35 667.894 419.123 669.889 417.169C671.883 415.215 674.815 414.277 678.647 414.277H694.327ZM680.055 448.863C681.815 448.863 683.261 448.551 684.356 447.886C685.451 447.222 685.998 446.44 685.998 445.541C685.998 443.587 683.848 442.649 679.547 442.649C677.592 442.649 676.067 442.923 674.933 443.509C673.799 444.095 673.251 444.838 673.251 445.776C673.251 447.847 675.519 448.863 680.055 448.863ZM679.39 419.162C678.022 419.162 676.888 419.631 675.988 420.569C675.089 421.507 674.62 422.64 674.62 423.969C674.62 425.258 675.089 426.353 676.027 427.291C676.966 428.229 678.1 428.697 679.39 428.697C680.681 428.697 681.814 428.189 682.753 427.212C683.691 426.235 684.161 425.063 684.161 423.656C684.161 422.405 683.691 421.35 682.792 420.451C681.854 419.631 680.72 419.162 679.39 419.162Z" fill="white"/>
<path d="M695.305 405.679C695.305 404.428 695.735 403.334 696.634 402.435C697.533 401.536 698.589 401.106 699.84 401.106C701.092 401.106 702.187 401.536 703.086 402.435C703.985 403.334 704.415 404.428 704.415 405.679C704.415 406.93 703.985 407.985 703.086 408.923C702.187 409.822 701.131 410.29 699.84 410.29C698.589 410.29 697.533 409.822 696.634 408.923C695.774 408.024 695.305 406.93 695.305 405.679ZM704.063 414.277V440.656H695.774V414.277H704.063Z" fill="white"/>
<path d="M716.537 414.277V418.028C718.961 415.175 721.855 413.729 725.1 413.729C727.837 413.729 730.144 414.589 731.943 416.348C733.781 418.107 734.68 420.608 734.68 423.851V440.617H726.39V424.516C726.39 420.999 725.022 419.24 722.285 419.24C720.33 419.24 718.414 420.686 716.498 423.617V440.617H708.208V414.238H716.537V414.277Z" fill="white"/>
<path d="M764.515 432.449V437.686C761.347 439.992 757.437 441.164 752.745 441.164C748.092 441.164 744.416 439.914 741.601 437.413C738.825 434.911 737.456 431.629 737.456 427.525C737.456 423.5 738.747 420.178 741.366 417.599C743.986 415.019 747.31 413.729 751.337 413.729C755.404 413.729 758.728 415.097 761.347 417.833C763.967 420.569 765.179 424.203 764.984 428.815H746.02C746.176 431.199 747.036 433.035 748.561 434.325C750.086 435.615 752.159 436.279 754.7 436.279C757.828 436.201 761.074 434.95 764.515 432.449ZM746.176 424.399H757.633C757.164 420.569 755.287 418.654 751.885 418.654C748.522 418.654 746.606 420.569 746.176 424.399Z" fill="white"/>
<path d="M793.215 432.449V437.686C790.048 439.992 786.138 441.164 781.445 441.164C776.792 441.164 773.117 439.914 770.301 437.413C767.525 434.911 766.157 431.629 766.157 427.525C766.157 423.5 767.447 420.178 770.067 417.599C772.687 415.019 776.01 413.729 780.038 413.729C784.104 413.729 787.428 415.097 790.048 417.833C792.668 420.569 793.88 424.203 793.684 428.815H774.72C774.876 431.199 775.737 433.035 777.262 434.325C778.787 435.615 780.859 436.279 783.401 436.279C786.568 436.201 789.813 434.95 793.215 432.449ZM774.916 424.399H786.372C785.903 420.569 784.026 418.654 780.624 418.654C777.222 418.654 775.346 420.569 774.916 424.399Z" fill="white"/>
<path d="M804.75 414.277V421.819H804.867C807.253 416.426 810.068 413.729 813.274 413.729C814.799 413.729 816.637 414.55 818.787 416.113L816.481 423.461C814.447 422.171 812.805 421.507 811.554 421.507C809.638 421.507 808.035 422.679 806.705 425.063C805.376 427.447 804.75 428.815 804.75 429.206V440.617H796.46V414.238H804.75V414.277Z" fill="white"/>
<path d="M818.709 405.679C818.709 404.428 819.139 403.334 820.039 402.435C820.938 401.536 821.994 401.106 823.245 401.106C824.496 401.106 825.591 401.536 826.49 402.435C827.39 403.334 827.82 404.428 827.82 405.679C827.82 406.93 827.39 407.985 826.49 408.923C825.591 409.822 824.496 410.29 823.245 410.29C821.994 410.29 820.938 409.822 820.039 408.923C819.178 408.024 818.709 406.93 818.709 405.679ZM827.468 414.277V440.656H819.178V414.277H827.468Z" fill="white"/>
<path d="M839.98 414.277V418.028C842.405 415.175 845.298 413.729 848.544 413.729C851.281 413.729 853.588 414.589 855.426 416.348C857.263 418.107 858.163 420.608 858.163 423.851V440.617H849.873V424.516C849.873 420.999 848.505 419.24 845.767 419.24C843.812 419.24 841.896 420.686 839.98 423.617V440.617H831.691V414.238H839.98V414.277Z" fill="white"/>
<path d="M889.053 414.277V419.826H885.299C886.16 421.311 886.629 422.796 886.629 424.203C886.629 426.235 885.847 428.15 884.322 429.87C882.797 431.589 880.529 432.645 877.557 432.957C874.585 433.27 872.865 433.583 872.474 433.895C872.083 434.208 871.887 434.56 871.887 435.029C871.887 435.498 872.161 435.849 872.67 436.162C873.178 436.436 875.25 436.748 878.848 437.061C882.445 437.373 884.947 438.311 886.355 439.875C887.763 441.438 888.467 443.118 888.467 444.955C888.467 447.847 887.254 450.036 884.869 451.56C882.484 453.084 879.004 453.827 874.468 453.827C869.854 453.827 866.335 453.123 863.95 451.716C861.565 450.309 860.353 448.472 860.353 446.167C860.353 442.962 862.699 440.734 867.391 439.445C865.279 438.819 864.224 437.647 864.224 436.006C864.224 434.052 865.827 432.723 869.033 432.019C866.882 431.629 865.123 430.73 863.715 429.245C862.308 427.76 861.604 425.962 861.604 423.891C861.604 421.35 862.62 419.123 864.615 417.169C866.609 415.215 869.541 414.277 873.412 414.277H889.053ZM874.82 448.863C876.58 448.863 878.026 448.551 879.121 447.886C880.216 447.222 880.764 446.44 880.764 445.541C880.764 443.587 878.613 442.649 874.312 442.649C872.357 442.649 870.832 442.923 869.698 443.509C868.564 444.095 868.016 444.838 868.016 445.776C868.016 447.847 870.284 448.863 874.82 448.863ZM874.116 419.162C872.748 419.162 871.614 419.631 870.714 420.569C869.815 421.507 869.346 422.64 869.346 423.969C869.346 425.258 869.815 426.353 870.754 427.291C871.692 428.229 872.826 428.697 874.116 428.697C875.407 428.697 876.541 428.189 877.479 427.212C878.417 426.235 878.887 425.063 878.887 423.656C878.887 422.405 878.417 421.35 877.518 420.451C876.619 419.631 875.485 419.162 874.116 419.162Z" fill="white"/>
<path d="M902.699 420.882C902.699 419.514 903.208 418.341 904.185 417.364C905.163 416.387 906.336 415.879 907.704 415.879C909.073 415.879 910.246 416.348 911.224 417.364C912.201 418.341 912.71 419.514 912.71 420.882C912.71 422.249 912.24 423.422 911.224 424.399C910.246 425.376 909.073 425.884 907.704 425.884C906.336 425.884 905.163 425.376 904.185 424.399C903.208 423.422 902.699 422.249 902.699 420.882Z" fill="white"/>
<path d="M951.029 416.074L963.581 401.615H972.027V440.656H962.29V416.309L951.733 428.541H950.286L939.729 416.309V440.656H929.992V401.615H938.438L951.029 416.074Z" fill="white"/>
<path d="M1003.82 434.13V438.741C1001.04 440.344 998.459 441.164 996.035 441.164C993.415 441.164 991.89 440.187 991.382 438.194C988.488 440.148 985.595 441.164 982.701 441.164C980.668 441.164 978.908 440.5 977.462 439.21C976.015 437.921 975.311 436.396 975.311 434.677C975.311 432.371 976.054 430.534 977.54 429.127C979.026 427.72 983.522 425.923 990.991 423.695C991.186 420.764 989.661 419.279 986.416 419.279C982.897 419.279 979.651 420.764 976.68 423.695V416.934C980.16 414.785 983.953 413.729 988.097 413.729C995.566 413.729 999.28 416.387 999.28 421.741V433.778C999.28 435.029 999.75 435.615 1000.65 435.615C1001.39 435.615 1002.41 435.107 1003.82 434.13ZM991.03 434.247V427.838C988.254 428.815 986.338 429.675 985.321 430.456C984.304 431.238 983.757 432.215 983.757 433.426C983.757 434.208 984.031 434.833 984.539 435.419C985.047 435.967 985.712 436.24 986.455 436.24C987.98 436.201 989.544 435.576 991.03 434.247Z" fill="white"/>
<path d="M1023.37 414.277V419.943H1013.75V430.808C1013.75 432.098 1014.1 433.153 1014.8 433.895C1015.51 434.638 1016.52 435.029 1017.78 435.029C1019.5 435.029 1021.33 434.521 1023.33 433.504V439.523C1020.67 440.617 1018.13 441.164 1015.62 441.164C1012.38 441.164 1009.88 440.344 1008.08 438.663C1006.28 436.983 1005.38 434.521 1005.38 431.277V419.943H1001.63V418.341L1012.65 405.991H1013.67V414.277H1023.37Z" fill="white"/>
<path d="M1033.18 401.614V418.107H1033.3C1035.61 415.176 1038.38 413.691 1041.67 413.691C1044.48 413.691 1046.79 414.589 1048.63 416.348C1050.43 418.146 1051.36 420.608 1051.36 423.773V440.617H1043.07V425.532C1043.07 421.702 1041.67 419.787 1038.81 419.787C1036.94 419.787 1035.06 421.116 1033.26 423.773V440.617H1024.97V401.575H1033.18V401.614Z" fill="white"/>
<path d="M1081.04 432.449V437.686C1077.87 439.992 1073.96 441.164 1069.27 441.164C1064.62 441.164 1060.9 439.914 1058.13 437.413C1055.35 434.911 1053.94 431.629 1053.94 427.525C1053.94 423.5 1055.23 420.178 1057.85 417.599C1060.47 415.019 1063.8 413.729 1067.83 413.729C1071.89 413.729 1075.22 415.097 1077.84 417.833C1080.46 420.569 1081.67 424.203 1081.47 428.815H1062.51C1062.66 431.199 1063.52 433.035 1065.05 434.325C1066.57 435.615 1068.65 436.279 1071.19 436.279C1074.36 436.201 1077.6 434.95 1081.04 432.449ZM1062.7 424.399H1074.16C1073.73 420.569 1071.81 418.654 1068.45 418.654C1065.05 418.654 1063.13 420.569 1062.7 424.399Z" fill="white"/>
<path d="M1092.46 414.277V417.677C1095.27 415.058 1098.32 413.729 1101.65 413.729C1106.18 413.729 1109.35 415.605 1111.15 419.357C1114.36 415.605 1117.8 413.729 1121.55 413.729C1124.6 413.729 1127.06 414.667 1128.98 416.504C1130.9 418.341 1131.87 420.764 1131.87 423.734V440.695H1123.58V425.219C1123.58 423.343 1123.15 421.897 1122.29 420.881C1121.43 419.865 1120.22 419.318 1118.7 419.318C1116.27 419.318 1114.08 420.803 1112.13 423.773V440.656H1103.84V425.024C1103.84 423.187 1103.37 421.78 1102.47 420.764C1101.53 419.787 1100.32 419.279 1098.79 419.279C1096.6 419.279 1094.49 420.49 1092.46 422.953V440.656H1084.17V414.277H1092.46Z" fill="white"/>
<path d="M1162.96 434.13V438.741C1160.18 440.344 1157.6 441.164 1155.18 441.164C1152.56 441.164 1151.03 440.187 1150.53 438.194C1147.63 440.148 1144.74 441.164 1141.84 441.164C1139.81 441.164 1138.05 440.5 1136.61 439.21C1135.16 437.921 1134.45 436.396 1134.45 434.677C1134.45 432.371 1135.2 430.534 1136.68 429.127C1138.17 427.72 1142.67 425.923 1150.13 423.695C1150.33 420.764 1148.8 419.279 1145.56 419.279C1142.04 419.279 1138.79 420.764 1135.82 423.695V416.934C1139.3 414.785 1143.1 413.729 1147.24 413.729C1154.71 413.729 1158.42 416.387 1158.42 421.741V433.778C1158.42 435.029 1158.89 435.615 1159.79 435.615C1160.5 435.615 1161.55 435.107 1162.96 434.13ZM1150.13 434.247V427.838C1147.36 428.815 1145.44 429.675 1144.43 430.456C1143.41 431.238 1142.86 432.215 1142.86 433.426C1142.86 434.208 1143.14 434.833 1143.64 435.419C1144.15 435.967 1144.82 436.24 1145.56 436.24C1147.12 436.201 1148.65 435.576 1150.13 434.247Z" fill="white"/>
<path d="M1182.47 414.277V419.943H1172.85V430.808C1172.85 432.098 1173.2 433.153 1173.91 433.895C1174.61 434.638 1175.63 435.029 1176.88 435.029C1178.6 435.029 1180.44 434.521 1182.43 433.504V439.523C1179.77 440.617 1177.23 441.164 1174.73 441.164C1171.48 441.164 1168.98 440.344 1167.18 438.663C1165.38 436.983 1164.48 434.521 1164.48 431.277V419.943H1160.73V418.341L1171.76 405.991H1172.77V414.277H1182.47Z" fill="white"/>
<path d="M1183.61 405.679C1183.61 404.428 1184.04 403.334 1184.93 402.435C1185.83 401.536 1186.89 401.106 1188.14 401.106C1189.39 401.106 1190.49 401.536 1191.39 402.435C1192.29 403.334 1192.72 404.428 1192.72 405.679C1192.72 406.93 1192.29 407.985 1191.39 408.923C1190.49 409.822 1189.39 410.29 1188.14 410.29C1186.89 410.29 1185.83 409.822 1184.93 408.923C1184.04 408.024 1183.61 406.93 1183.61 405.679ZM1192.36 414.277V440.656H1184.07V414.277H1192.36Z" fill="white"/>
<path d="M1219.62 433.426V439.367C1216.37 440.539 1213.4 441.125 1210.7 441.125C1206.05 441.125 1202.34 439.875 1199.56 437.374C1196.78 434.872 1195.38 431.59 1195.38 427.486C1195.38 423.461 1196.78 420.178 1199.6 417.559C1202.41 414.941 1205.97 413.651 1210.31 413.651C1213.09 413.651 1216.06 414.238 1219.19 415.371V421.546C1216.88 420.373 1214.65 419.787 1212.42 419.787C1209.96 419.787 1207.97 420.491 1206.48 421.858C1204.99 423.226 1204.25 425.102 1204.25 427.408C1204.25 429.753 1204.99 431.629 1206.44 433.036C1207.89 434.442 1209.8 435.185 1212.19 435.185C1213.91 435.224 1216.41 434.638 1219.62 433.426Z" fill="white"/>
<path d="M1240.46 415.645V421.546C1237.29 419.592 1234.36 418.654 1231.66 418.654C1229.67 418.654 1228.65 419.318 1228.65 420.686C1228.65 421.038 1228.85 421.39 1229.28 421.741C1229.71 422.093 1231.31 422.835 1234.09 423.93C1236.86 425.063 1238.86 426.314 1240.03 427.799C1241.16 429.245 1241.75 430.847 1241.75 432.567C1241.75 435.302 1240.81 437.413 1238.97 438.898C1237.1 440.383 1234.44 441.125 1231 441.125C1227.44 441.125 1224.31 440.461 1221.53 439.21V433.387C1224.94 434.872 1227.75 435.615 1230.06 435.615C1232.76 435.615 1234.09 434.951 1234.09 433.661C1234.09 433.153 1233.85 432.684 1233.34 432.254C1232.83 431.824 1231.19 431.043 1228.34 429.909C1225.52 428.815 1223.57 427.603 1222.51 426.275C1221.46 424.946 1220.95 423.461 1220.95 421.858C1220.95 419.435 1221.96 417.481 1223.96 415.996C1225.95 414.472 1228.61 413.73 1231.9 413.73C1235.06 413.691 1237.92 414.355 1240.46 415.645Z" fill="white"/>
<path d="M1241.4 129.728H1035.45V137.544H1241.4V129.728Z" fill="white"/>
<path d="M282.079 129.728H76.1313V137.544H282.079V129.728Z" fill="white"/>
<path d="M1241.36 377.228H76.1313V385.044H1241.36V377.228Z" fill="white"/>
</svg>
