<svg width="1278" height="301" viewBox="0 0 1278 301" fill="none" xmlns="http://www.w3.org/2000/svg">
<path d="M1062.25 64.6475C1062.25 64.6475 1055.63 62.0837 1049 72.3392L1024.33 116.292C1024.33 116.292 1085.08 116.292 1112.69 116.292C1144.35 116.292 1150.61 134.605 1127.79 174.895C1113.8 199.435 1075.87 267.561 1075.87 267.561C1075.87 267.561 1063.73 300.159 1022.49 300.159H898.05V238.626C898.05 238.626 973.156 238.626 984.201 238.626C994.878 238.626 1015.86 239.359 1023.96 224.341C1032.43 209.324 1050.1 178.191 1050.1 178.191C1050.1 178.191 995.246 178.191 965.056 178.191C934.867 178.191 928.608 151.82 938.917 133.506C949.225 115.193 986.41 50.363 997.087 32.0495C1007.76 13.736 1014.76 0.916504 1050.47 0.916504H1277.63V64.6475H1062.25Z" fill="white"/>
<path d="M0.0917969 167.57H243.082L338.805 2.3819H411.334L240.505 300.16H165.399L206.265 229.836H0.0917969V167.57Z" fill="white"/>
<path d="M311.561 300.16C311.561 300.16 331.81 264.631 338.805 252.911C345.801 241.19 349.114 229.47 329.233 229.836C323.342 229.836 299.78 229.836 299.78 229.836C299.78 229.836 325.919 181.488 334.019 167.57C350.218 167.57 375.254 166.471 380.04 178.558C384.458 170.866 483.863 2.3819 483.863 2.3819H554.919L382.985 300.16H311.561Z" fill="white"/>
<path d="M412.438 300.16L586.949 2.3819H656.901L486.071 300.16H412.438Z" fill="white"/>
<path d="M608.303 300.16C608.303 300.16 608.303 259.137 608.303 251.079C608.303 237.527 603.885 229.836 579.586 229.836C562.283 229.836 548.66 229.836 544.242 229.836C544.242 229.836 574.432 177.093 579.586 167.57C592.104 167.57 603.149 166.471 606.831 175.262L607.199 121.42L667.21 18.4978V210.79L791.65 2.3819H865.284L694.454 300.16H608.303Z" fill="white"/>
<path d="M875.96 300.159H815.949C815.949 300.159 815.949 270.125 815.949 254.009C815.949 233.498 809.322 229.469 785.76 229.469C771.033 229.469 757.411 229.469 752.993 229.469C752.993 229.469 782.446 176.726 788.337 167.203C805.641 166.837 809.322 167.203 814.108 175.261V126.914L875.592 18.4975V300.159H875.96Z" fill="white"/>
</svg>
