<svg width="1448" height="647" viewBox="0 0 1448 647" fill="none" xmlns="http://www.w3.org/2000/svg">
<path d="M203.968 428.072C206.186 449.424 210.264 453.808 229.832 450.789C250.148 447.655 270.14 442.277 290.141 437.343C297.221 435.596 302.99 434.755 306.259 445.964C324.362 398.321 341.631 352.869 358.903 307.418C361.217 301.33 363.434 295.202 365.887 289.17C373.29 270.962 376.217 269.674 397.065 275.178C395.12 306.269 415.68 329.416 426.395 355.954C438.166 385.104 452.908 413.051 466.212 441.588C468.22 445.895 470.967 450.173 469.963 455.325C450.267 463.734 443.939 461.054 437.482 441.58C433.042 428.189 428.109 414.926 424.451 401.322C421.437 390.113 414.844 387.351 403.998 387.85C371.079 389.362 349.536 407.102 339.744 436.677C333.224 456.367 322.738 460.458 303.847 459.677C267.515 458.176 231.072 458.996 194.683 459.465C182.62 459.62 176.583 456.054 176.703 442.91C177.167 391.858 176.972 340.801 177.226 289.746C177.263 282.313 176.517 273.915 187.637 272.727C199.314 271.48 204.278 275.66 204.144 288.105C203.647 334.268 203.953 380.439 203.968 428.072ZM403.17 331.771C399.697 323.097 399.68 312.864 390.804 303.885C378.927 330.945 369.064 356.726 360.386 384.339C375.828 386.59 388.433 379.906 401.668 379.644C414.537 379.389 415.725 372.229 412.572 362.165C409.661 352.871 406.771 343.57 403.17 331.771Z" fill="white"/>
<path d="M716.117 47.0347C738.16 94.2833 759.797 140.362 781.536 186.66C756.59 193.621 752.067 191.26 744.862 168.659C740.743 155.738 736.74 142.78 732.502 129.899C729.258 120.04 722.435 117.287 712.2 118.344C680.186 121.651 658.058 138.353 648.332 168.36C642.515 186.31 633.334 190.711 615.359 189.933C578.023 188.318 540.557 189.064 503.163 189.775C490.677 190.012 485.736 186.572 485.894 173.405C486.498 122.916 486.27 72.4155 486.167 21.9198C486.145 11.6898 487.009 3.97796 500.786 4.30026C513.893 4.60702 513.958 12.2538 513.936 21.5617C513.83 67.7138 513.833 113.866 513.918 160.018C513.954 179.243 516.516 181.577 535.436 181.389C556.967 181.175 576.793 173.117 597.309 168.21C605.294 166.301 614.248 163.07 614.977 177.324C634.497 126.254 654.039 75.1924 673.529 24.1108C681.827 2.36211 681.836 2.31075 707.113 6.58449C702.589 21.1252 710.207 33.2222 716.117 47.0347ZM714.553 72.4253C709.894 60.9153 710.217 47.2886 698.803 35.1696C688.003 63.6924 678.047 89.9849 667.189 118.663C678.41 116.439 685.773 114.921 693.16 113.526C725.57 107.404 725.573 107.417 714.553 72.4253Z" fill="white"/>
<path d="M623.24 443.158C627.002 447.709 630.018 451.352 633.238 455.241C616.058 462.045 603.368 459.092 591.608 443.8C580.728 429.652 571.811 414.013 561.391 399.489C552.168 386.635 540.283 378.082 523.287 378.126C512.469 378.153 507.099 381.997 507.285 393.3C507.571 410.659 507.076 428.03 507.361 445.389C507.514 454.716 504.358 459.548 494.248 459.323C485.443 459.126 479.466 457.13 479.486 446.74C479.593 390.36 479.537 333.981 479.537 274.15C509.321 280.936 536.313 265.421 565.444 271.379C593.137 277.044 611.685 290.368 615.544 311.014C619.619 332.815 608.062 351.088 581.078 365.603C578.251 367.124 575.555 368.886 570.163 372.113C595.488 390.618 605.694 418.719 623.24 443.158ZM572.291 286.706C557.576 274.747 541.502 275.845 524.777 281.472C512.625 285.56 505.807 292.456 507.102 306.501C508.19 318.3 507.335 330.277 507.357 342.175C507.411 370.592 509.551 373.026 538.124 369.453C557.632 367.014 575.005 359.394 582.903 339.402C590.226 320.866 588.428 303.368 572.291 286.706Z" fill="white"/>
<path d="M796.781 339.297C802.168 374.945 807.194 409.223 812.45 443.465C813.578 450.818 815.521 458.104 804.538 458.932C795.332 459.625 786.445 459.674 786.464 446.65C786.544 392.855 786.538 339.061 786.718 285.266C786.762 272.108 794.235 271.207 804.179 275.635C810.414 278.411 813.949 284.025 817.898 289.227C846.803 327.313 875.684 365.417 904.818 403.327C909.25 409.093 912.414 416.485 922.162 419.711C924.577 394.894 917.291 371.995 914.452 348.76C911.824 327.254 908.387 305.835 904.793 284.464C903.47 276.6 906.27 272.85 913.763 272.724C920.509 272.609 928.716 270.503 930.793 280.492C931.557 284.164 931.367 288.064 931.368 291.86C931.386 341.309 931.478 390.76 931.201 440.208C931.165 446.691 934.439 455.808 925.038 458.365C915.291 461.016 908.799 454.283 903.359 447.089C875.172 409.82 847.152 372.423 818.733 335.331C812.761 327.536 808.116 317.971 797.269 313.094C793.122 322.293 794.233 330.078 796.781 339.297Z" fill="white"/>
<path d="M1325.62 423.467C1326.63 430.806 1327.47 436.704 1328.25 442.611C1329.26 450.242 1331.43 458.264 1319.3 459.089C1308.89 459.797 1302.49 456.894 1302.52 445.071C1302.65 392.445 1302.52 339.817 1302.69 287.191C1302.71 281.982 1302.21 275.417 1309.02 273.657C1315.89 271.88 1322.19 274.957 1326.55 279.992C1334 288.602 1340.69 297.868 1347.58 306.949C1372.53 339.818 1397.33 372.806 1422.47 405.53C1426.24 410.442 1429.41 416.543 1438.7 419.191C1437.81 370.151 1424.41 323.589 1420.85 276.308C1441.87 268.78 1446.82 271.802 1446.86 291.704C1446.96 341.123 1447.02 390.543 1446.74 439.961C1446.7 446.395 1450.32 455.572 1440.99 458.242C1432.2 460.755 1425.56 455.053 1420.35 448.208C1389.77 408.027 1359.23 367.817 1328.57 327.695C1324.73 322.68 1322.02 316.288 1311.37 313.726C1312.19 351.139 1320.95 386.373 1325.62 423.467Z" fill="white"/>
<path d="M1205.24 13.0529C1205.43 66.695 1205.51 118.811 1205.49 170.927C1205.49 179.982 1207.53 189.937 1192.48 189.545C1177.24 189.148 1180.48 178.561 1180.34 169.972C1180.01 150.433 1180.58 130.876 1180.05 111.346C1179.56 93.0553 1174.81 89.3509 1156.71 92.0051C1114.34 98.2182 1087.68 118.397 1090.66 168.085C1091.08 175.051 1093.87 183.958 1084.96 188.46C1073.75 194.128 1063.24 187.664 1063.19 174.708C1062.96 122.592 1063.19 70.4745 1063 18.3587C1062.97 9.00183 1066.04 4.51539 1076.14 4.44751C1086.48 4.37813 1091.09 8.13458 1090.94 18.664C1090.64 39.2888 1090.72 59.9236 1091 80.5491C1091.08 86.2505 1089.32 92.5563 1095.47 98.9324C1119.02 89.669 1144.69 86.5601 1170.14 82.2192C1179.86 80.5621 1180.08 71.78 1180.18 64.1406C1180.41 45.2459 1180.25 26.3465 1180.25 6.33907C1190.09 5.82915 1199.21 -0.640121 1205.24 13.0529Z" fill="white"/>
<path d="M1017.25 459.69C999.484 459.574 983.216 459.2 966.949 459.227C958.839 459.24 952.894 457.228 952.89 447.755C952.865 390.922 952.877 334.09 952.877 274.869C974.814 277.214 994.523 269.72 1014.82 269.924C1050.76 270.285 1080.36 292.509 1092.18 326.865C1101.69 354.498 1101.5 382.416 1089.49 409.217C1075.92 439.474 1051.27 455.347 1017.25 459.69ZM980.361 369.22C980.383 390.4 980.443 411.58 980.409 432.761C980.394 441.852 983.39 448.61 993.126 450.896C1020.06 457.219 1043.74 447.171 1056.08 422.192C1075.05 383.745 1074.32 344.776 1055.78 306.245C1050.2 294.642 1041.25 285.934 1029.32 280.789C1002.01 269.012 980.38 282.943 980.345 312.193C980.324 330.115 980.354 348.036 980.361 369.22Z" fill="white"/>
<path d="M1118.97 406.177C1109.93 381.835 1109.67 358.376 1115.67 334.66C1125.89 294.268 1161.32 267.347 1201.81 269.21C1242.97 271.104 1276.76 301.551 1283.56 342.558C1286.42 359.861 1286.82 377.007 1282.4 394.107C1272.08 434.051 1241.69 460.944 1201.5 462.657C1171.08 463.953 1135.15 448.606 1118.97 406.177ZM1255.34 347.988C1252.28 332.026 1249.48 316.02 1240.23 302.053C1217.08 267.095 1174.11 268.268 1155.12 305.574C1135.54 344.016 1135.41 383.928 1153.55 423.107C1162.23 441.861 1176.38 454.712 1198.91 454.534C1221.53 454.355 1234.33 440.471 1243.75 422.202C1255.33 399.761 1256.83 375.559 1255.34 347.988Z" fill="white"/>
<path d="M1310.77 59.9641C1315.74 46.5739 1320.24 34.3613 1324.87 22.2023C1332.03 3.41527 1335.4 1.84092 1357.9 7.14156C1353.33 19.4864 1359.37 29.7518 1364.48 40.4963C1384.75 83.1066 1404.7 125.864 1424.7 168.602C1427.39 174.369 1431.58 179.722 1430.73 186.665C1408.66 193.459 1404.41 191.417 1397.46 170.594C1393.35 158.252 1389.17 145.924 1385.36 133.488C1381.58 121.146 1374.68 117.084 1361.04 118.714C1328.38 122.621 1309.8 141.636 1298.41 170.581C1289.85 192.328 1289.52 192.199 1263.39 186.941C1279.14 144.762 1294.75 102.964 1310.77 59.9641ZM1339.47 114.861C1347.51 113.835 1355.57 112.954 1363.58 111.731C1369.08 110.89 1376.28 108.973 1374.57 102.467C1368.77 80.4086 1361.53 58.728 1354.84 36.9031C1353.17 37.0557 1351.5 37.2083 1349.82 37.361C1338.59 63.0065 1328.86 89.2072 1319.42 117.775C1327.42 116.557 1332.15 115.838 1339.47 114.861Z" fill="white"/>
<path d="M745.555 439.971C753.145 438.703 759.17 435.475 765.725 436.985C771.293 457.148 769.882 459.221 750.338 459.245C719.918 459.284 689.494 458.949 659.079 459.342C647.441 459.492 642.502 455.456 642.606 443.243C643.044 392.189 643.173 341.124 642.591 290.073C642.425 275.426 648.37 271.452 662.073 271.814C691.391 272.59 720.744 271.95 750.082 272.124C769.342 272.239 771.016 274.763 765.998 295.26C750.804 294.681 736.731 288.435 721.973 285.552C716.659 284.514 711.519 282.59 706.205 281.552C676.338 275.712 670.518 280.55 670.508 310.945C670.501 329.773 670.506 348.601 670.506 371.884C694.453 357.182 717.501 353.421 741.419 352.301C755.6 351.638 760.703 355.816 756.531 370.281C745.405 372.814 736.494 365.85 726.623 364.23C701.767 360.149 683.951 369.669 676.034 393.671C671.762 406.623 670.064 420.008 670.442 433.745C670.777 445.906 676.24 451.551 688.524 451.406C707.835 451.179 725.777 444.463 745.555 439.971Z" fill="white"/>
<path d="M986.078 184.19C991.821 184.006 996.28 184.382 1000.48 183.517C1011.01 181.352 1020.47 177.002 1023.66 165.613C1026.85 154.207 1023.98 144.125 1014.83 136.158C1000.77 123.914 984.547 115.111 968.026 106.787C952.385 98.9068 937.813 89.5852 926.2 76.1968C904.815 51.5434 912.683 19.0114 942.976 7.25987C969.353 -2.97232 995.233 -0.297417 1020.5 11.0761C1029.77 15.2462 1036.98 21.9389 1038.64 32.58C1039.97 41.0639 1036.5 47.6746 1028.33 50.817C1019.22 54.3227 1017.47 46.6925 1014.64 40.9704C1001.5 14.4615 987.591 6.29279 962.082 10.0867C939.164 13.4951 929.866 35.0554 943.495 53.8774C953.349 67.4854 967.971 75.1966 982.229 83.05C997.464 91.4409 1013.13 99.1257 1026.83 109.964C1040.68 120.929 1050.6 134.501 1047.79 153.235C1044.96 172.132 1031.42 181.941 1014.52 187.598C985.635 197.262 957.689 193.432 930.772 180.401C923.914 177.081 917.913 172.184 915.501 164.254C912.686 154.998 916.082 147.969 924.115 143.697C933.647 138.627 936.006 146.429 939.159 152.959C948.34 171.975 962.333 184.23 986.078 184.19Z" fill="white"/>
<path d="M0.187012 361.544C4.20901 325.403 17.0574 295.977 50.1482 279.566C83.3264 263.112 116.475 267.453 148.916 282.123C156.947 285.755 163.187 292.276 164.305 301.834C165.319 310.501 161.032 316.695 153.41 319.963C143.729 324.114 142.98 315.206 140.447 309.827C129.869 287.372 113.079 275.836 87.5298 277.383C69.476 278.476 57.0558 288.134 47.5188 301.944C24.0011 335.996 24.7316 396.149 48.4955 430.128C73.2475 465.52 120.072 462.333 139.799 423.825C143.04 417.5 145.049 409.613 154.817 414.205C163.501 418.286 166.393 425.668 163.607 434.518C159.556 447.389 148.421 452.631 136.837 456.057C62.502 478.039 2.56455 441.945 0.187012 361.544Z" fill="white"/>
<path d="M846.653 149.637C846.622 159.317 846.306 167.467 846.637 175.59C847.015 184.833 843.952 189.602 833.731 189.664C823.306 189.727 817.526 185.427 819.228 175.307C827.044 128.847 805.088 92.6291 780.226 56.9564C769.239 41.1928 759.926 24.2637 749.519 7.32021C775.226 1.17354 778.767 2.56543 790.193 20.9689C804.212 43.5494 818.355 66.0538 832.543 88.5288C835.918 93.8762 838.425 100.291 846.263 101.707C854.341 96.6519 855.628 87.5806 858.531 79.7441C865.873 59.9207 872.402 39.7971 879.681 19.949C885.904 2.98169 890.086 1.45144 910.03 8.01965C908.396 17.2814 902.096 24.3195 897.751 32.1663C885.402 54.4661 873.033 76.7699 859.971 98.6542C850.79 114.036 845.872 130.207 846.653 149.637Z" fill="white"/>
<path d="M1229.41 44.7472C1229.42 35.536 1229.77 27.9252 1229.35 20.3566C1228.78 9.92897 1231.71 4.17246 1243.76 4.35362C1255.16 4.52521 1257.28 10.4608 1257.25 19.8497C1257.06 71.366 1256.96 122.883 1257.05 174.4C1257.06 184.013 1254.6 189.548 1243.39 189.681C1231.04 189.829 1229.29 183.303 1229.34 173.261C1229.57 130.964 1229.42 88.6647 1229.41 44.7472Z" fill="white"/>
<path d="M643.34 611.988C643.359 594.083 643.461 577.778 643.4 561.473C643.363 551.621 647.294 546.019 657.945 546.586C666.069 547.019 674.35 546.235 682.321 547.499C717.414 553.065 734.296 583.424 720.933 616.376C714.856 631.363 703.175 639.301 687.516 641.621C682.705 642.334 677.771 642.38 672.89 642.426C643.574 642.706 643.574 642.676 643.34 611.988ZM702.466 571.673C698.101 564.162 691.288 560.043 683.046 558.356C665.265 554.718 660.76 558.451 660.68 576.629C660.618 590.664 660.642 604.7 660.757 618.735C660.796 623.551 660.569 628.354 666.683 630.604C680.954 635.856 698.703 628.047 704.212 613.445C709.189 600.253 708.713 587.023 702.466 571.673Z" fill="white"/>
<path d="M1142.83 628.048C1126.57 605.814 1126.47 579.568 1141.74 563.139C1157.48 546.208 1185.95 542.298 1205.85 554.333C1225.31 566.104 1233.3 590.324 1225.03 612.505C1213.27 644.062 1173.95 652.006 1142.83 628.048ZM1205.99 573.986C1192.86 557.382 1179.16 553.558 1164 562.262C1149.8 570.416 1142.89 591.194 1148.79 607.988C1154.73 624.886 1169.15 633.714 1185.35 630.371C1201.33 627.072 1210.78 613.295 1210.49 593.644C1210.4 587.664 1210.08 581.717 1205.99 573.986Z" fill="white"/>
<path d="M242.281 549.292C271.458 543.258 296.564 556.177 303.714 580.025C310.927 604.082 299.954 628.623 277.684 638.238C253.36 648.739 224.368 639.567 212.727 617.688C198.487 590.924 210.388 562.21 242.281 549.292ZM270.943 627.178C274.515 623.91 278.726 621.113 281.547 617.291C292.926 601.872 290.208 577.511 276.199 565.656C263.729 555.103 246.763 555.727 234.95 567.174C222.79 578.957 220.399 599.78 229.437 615.188C237.506 628.943 249.867 633.077 270.943 627.178Z" fill="white"/>
<path d="M554.683 619.198C542.614 602.593 531.19 586.971 519.766 571.349C518.285 571.526 516.803 571.703 515.322 571.879C515.322 594.915 515.322 617.95 515.322 641.364C503.708 639.474 505.43 632.971 505.375 628.08C505.125 605.825 505.213 583.567 505.294 561.31C505.314 555.964 504.527 549.738 511.177 547.554C518.002 545.312 523.807 547.221 528.246 553.392C541.208 571.408 554.385 589.269 569.062 609.359C572.603 587.687 567.721 567.315 572.502 547.188C582.935 551.319 581.29 558.018 581.356 563.56C581.6 584.184 581.594 604.815 581.361 625.44C581.296 631.1 583.231 638.768 575.903 640.91C568.568 643.055 566.459 635.148 562.821 630.827C560.037 627.52 557.805 623.747 554.683 619.198Z" fill="white"/>
<path d="M298.125 78.4221C298.332 103.778 298.435 127.618 298.385 151.457C298.374 156.803 298.984 162.992 290.895 163.233C282.719 163.476 281.191 157.926 280.993 151.382C280.96 150.299 280.959 149.215 280.921 148.132C279.945 120.636 273.251 115.645 245.649 120.826C238.789 122.114 236.68 125.772 236.654 131.951C236.621 139.534 236.501 147.119 236.293 154.699C236.155 159.775 233.892 162.901 228.312 162.571C223.526 162.289 221.693 159.124 221.673 154.982C221.547 129.523 221.54 104.062 221.598 78.6027C221.609 73.6791 223.555 70.2323 229.314 70.4804C235.157 70.7322 236.18 74.7646 236.419 79.3734C236.588 82.6176 236.975 85.9304 236.536 89.1125C234.442 104.317 239.926 110.716 256.136 109.661C278.066 108.234 282.55 112.349 280.953 84.327C280.655 79.0971 280.219 72.7001 286.962 70.737C292.031 69.2608 296.773 70.4476 298.125 78.4221Z" fill="white"/>
<path d="M1303.2 577.805C1302.93 599.524 1302.66 620.135 1302.37 642.182C1289.94 638.901 1291.64 632.104 1291.59 626.741C1291.36 605.594 1291.37 584.442 1291.6 563.295C1291.66 557.169 1289.56 549.507 1298.72 547.405C1306.82 545.545 1312.02 549.885 1316.42 556.052C1328.65 573.219 1341.01 590.295 1354.96 609.681C1358.98 587.767 1353.91 567.388 1358.4 548.194C1360.12 548.281 1361.83 548.369 1363.55 548.456C1363.55 578.941 1363.55 609.425 1363.55 640.04C1354.43 642.559 1352.13 635.094 1348.55 630.254C1335.34 612.383 1322.45 594.273 1309.35 576.32C1307.37 573.617 1304.72 568.285 1303.2 577.805Z" fill="white"/>
<path d="M442.078 567.171C442.066 583.39 442.294 598.071 441.974 612.74C441.604 629.763 431.157 642.408 415.699 645.285C396.75 648.812 378.758 641.759 373.006 626.248C364.266 602.682 369.225 577.885 369.375 553.595C369.406 548.625 374.042 546.628 379.036 547.291C385.407 548.137 386.406 552.861 386.432 558.056C386.516 574.905 386.407 591.756 386.589 608.604C386.791 627.311 391.918 633.807 406.314 634.153C422.805 634.549 430.164 627.15 430.634 608.865C431.026 593.654 430.634 578.424 430.995 563.212C431.124 557.728 429.022 550.852 437.215 548.165C444.713 552.406 441.011 559.711 442.078 567.171Z" fill="white"/>
<path d="M805.358 609.8C796.004 613.682 795.83 622.283 792.331 628.777C789.687 633.687 789.604 640.8 781.735 641.152C776.463 637.523 779.065 633.182 780.527 629.403C789.726 605.61 799.109 581.888 808.493 558.167C810.276 553.658 811.768 548.029 817.681 548.061C823.689 548.092 824.903 553.984 826.621 558.402C836.989 585.063 847.189 611.789 857.605 638.907C843.373 646.379 839.443 637.765 836.712 628.638C832.121 613.29 823.141 605.695 805.358 609.8ZM816.205 597.82C824.175 590.878 824.098 590.137 813.118 576.827C812.421 584.658 799.37 591.235 816.205 597.82Z" fill="white"/>
<path d="M352.423 116.449C352.428 111.583 352.014 108.268 352.515 105.097C354.301 93.7895 346.153 77.3086 357.829 72.1237C372.267 65.7124 389.933 68.597 409.606 71.8893C400.168 81.1583 391.814 78.2661 384.501 78.3701C375.466 78.4984 369.776 80.9265 370.249 91.2301C370.638 99.6981 368.152 109.626 382.232 109.034C386.178 108.869 392.159 107.767 392.414 114.012C392.713 121.317 386.229 120.3 381.666 120.394C364.686 120.744 371.537 133.585 370.396 141.924C368.965 152.388 375.278 154.563 384.322 154.496C393.196 154.43 402.39 152.732 412.003 156.315C409.232 166.071 401.601 164.542 396.033 164.677C385.243 164.939 374.426 163.659 363.611 163.39C354.911 163.173 352.629 157.876 352.56 150.555C352.457 139.726 352.463 128.896 352.423 116.449Z" fill="white"/>
<path d="M953.98 565.296C953.662 585.675 953.837 604.658 953.344 623.624C953.164 630.544 956.361 641.19 945.017 641.461C931.902 641.775 936.308 630.115 936.006 622.992C935.364 607.837 935.095 592.591 936.028 577.466C936.898 563.359 933.38 555.354 917.368 557.676C913.289 558.268 908.621 558.503 905.234 554.821C911.745 543.996 971.693 542.368 985.141 552.98C977.545 564.518 960.842 550.549 953.98 565.296Z" fill="white"/>
<path d="M124.72 94.7187C124.777 84.2535 119.952 80.8662 111.409 80.6538C105.261 80.501 98.2987 82.1657 93.4303 76.0273C101.678 68.5713 152.321 66.6192 173.043 72.7526C172.829 81.8213 165.681 80.9918 160.406 80.4931C144.741 79.0121 140.908 86.5293 141.73 100.76C142.73 118.065 141.959 135.474 141.897 152.837C141.879 157.876 141.717 162.957 134.771 163.358C127.544 163.775 125.175 159.349 125.109 153.176C124.907 134.187 124.882 115.196 124.72 94.7187Z" fill="white"/>
<path d="M133.054 588.503C142.592 593.76 138.574 597.063 132.154 596.664C116.428 595.689 115.554 604.095 117.493 616.117C118.426 621.905 117.767 628.012 117.327 633.937C116.966 638.794 114.32 641.967 108.953 641.916C103.631 641.865 100.935 638.975 100.919 633.846C100.839 607.848 100.834 581.85 100.908 555.852C100.918 552.485 102.062 548.691 105.647 548.189C121.806 545.924 137.993 544.667 155.624 549.467C148.905 561.039 140.509 556.797 133.727 557.857C126.857 558.93 116.536 555.044 117.022 567.241C117.397 576.667 115.178 589.611 133.054 588.503Z" fill="white"/>
<path d="M1065.4 595.974C1065.35 608.973 1065.33 620.367 1065.22 631.76C1065.16 637.008 1064.13 641.751 1057.45 641.835C1050.89 641.918 1049.48 637.606 1049.44 632.1C1049.24 608.783 1048.69 585.463 1048.91 562.15C1048.96 556.222 1047.85 547.617 1057.56 547.464C1067.97 547.301 1065.39 555.752 1065.49 561.815C1065.66 572.663 1065.45 583.517 1065.4 595.974Z" fill="white"/>
</svg>
