<svg width="1562" height="241" viewBox="0 0 1562 241" fill="none" xmlns="http://www.w3.org/2000/svg">
<path d="M145.929 16.4077L237.642 224.871H183.662L163.747 176.684H74.131L54.2163 224.871H0.236816L90.9013 16.4077H145.405H145.929ZM87.7569 143.162H149.597L118.677 67.2142L87.7569 143.162Z" fill="white"/>
<path d="M463.513 120.649C463.513 178.789 422.111 227.5 347.169 227.5C272.227 227.5 231.873 177.218 231.873 120.649C231.873 64.0815 266.986 13.7988 348.217 13.7988C429.448 13.7988 463.513 60.9388 463.513 120.649ZM285.852 121.173C285.852 157.314 311.008 181.932 347.169 181.932C383.33 181.932 409.534 158.885 409.534 120.649C409.534 82.4137 387.523 59.8913 347.693 59.8913C307.864 59.8913 285.852 85.0326 285.852 121.173Z" fill="white"/>
<path d="M540.034 16.4077V129.544C540.034 163.589 557.329 182.969 590.869 182.969C624.41 182.969 641.18 166.732 641.18 130.067V16.4077H693.588V131.115C693.588 192.921 655.33 227.49 590.345 227.49C525.36 227.49 486.579 191.349 486.579 132.163V16.4077H538.986H540.034Z" fill="white"/>
<path d="M841.375 16.4077L933.088 224.871H879.108L859.194 176.684H769.577L749.663 224.871H695.683L786.348 16.4077H840.851H841.375ZM783.727 143.162H845.568L814.648 67.2142L783.727 143.162Z" fill="white"/>
<path d="M915.787 16.4077H932.033L1005.4 193.445L1078.25 16.4077H1094.5L1006.98 228.014H1003.83L915.787 16.4077Z" fill="white"/>
<path d="M1222.9 16.4077V30.5497H1129.09V112.259H1220.28V126.925H1129.09V210.206H1225.52V224.348H1112.85V16.4077H1222.38H1222.9Z" fill="white"/>
<path d="M1460.83 119.602C1460.83 179.836 1416.81 227.5 1351.82 227.5C1286.84 227.5 1244.91 178.789 1244.91 122.221C1244.91 65.6528 1288.93 13.7988 1351.82 13.7988C1414.71 13.7988 1460.3 63.0339 1460.3 119.602H1460.83ZM1262.2 121.173C1262.2 173.027 1302.03 212.834 1351.82 212.311C1413.14 212.311 1444.58 165.171 1444.58 120.649C1444.58 76.1284 1409.47 28.9884 1353.92 28.9884C1298.37 28.9884 1261.68 71.9382 1261.68 121.173H1262.2Z" fill="white"/>
<path d="M1525.81 0.150391C1545.73 0.150391 1561.97 16.3875 1561.97 36.8148C1561.97 57.2422 1546.25 72.9555 1525.81 72.9555C1505.37 72.9555 1489.13 57.2422 1489.13 36.8148C1489.13 16.3875 1504.85 0.150391 1525.81 0.150391ZM1525.81 68.2415C1543.63 68.2415 1557.26 53.5757 1557.26 36.8148C1557.26 20.0539 1543.11 5.38817 1525.81 5.38817C1508.52 5.38817 1494.37 19.5302 1494.37 36.8148C1494.37 54.0995 1508.52 68.2415 1525.81 68.2415ZM1508.52 16.3875H1528.43C1537.34 16.3875 1542.58 20.5777 1542.58 27.3868C1542.58 34.1959 1537.87 37.8624 1531.05 38.3862C1534.72 39.9575 1536.29 41.5288 1538.91 45.7191L1545.73 56.7184H1533.67L1528.43 47.2904C1525.81 42.0526 1524.76 41.5288 1521.1 41.5288H1519V56.7184H1508.52V16.3875ZM1523.72 34.1959C1527.91 34.1959 1531.05 32.6246 1531.05 28.4344C1531.05 24.2442 1528.43 23.1966 1524.24 23.1966H1519.52V34.1959H1524.24H1523.72Z" fill="white"/>
<path d="M350.311 135.314C356.6 157.836 378.611 216.499 409.007 240.069L459.318 234.308V228.546C433.114 218.071 415.296 196.072 409.007 175.121C395.381 170.931 366.557 157.312 350.311 134.79V135.314Z" fill="white"/>
</svg>
