<svg width="619" height="705" viewBox="0 0 619 705" fill="none" xmlns="http://www.w3.org/2000/svg">
<path d="M27.3456 464.762C27.8167 463.945 28.8192 463.601 29.694 463.955L167.475 519.706C169.46 520.509 168.787 523.467 166.649 523.336L2.49163 513.294C1.0912 513.209 0.269176 511.684 0.969258 510.471L27.3456 464.762Z" fill="white"/>
<path d="M592.41 464.801C591.941 463.966 590.919 463.615 590.034 463.982L455.922 519.711C453.952 520.53 454.638 523.468 456.767 523.335L616.554 513.297C617.943 513.209 618.765 511.704 618.084 510.492L592.41 464.801Z" fill="white"/>
<path d="M56.874 416.189C57.4212 415.235 58.6672 414.948 59.5781 415.567L171.385 491.488C173.162 492.695 171.864 495.453 169.799 494.86L36.4287 456.548C35.2512 456.209 34.7025 454.86 35.3109 453.799L56.874 416.189Z" fill="white"/>
<path d="M563.664 416.244C563.119 415.268 561.848 414.976 560.93 415.616L452.138 491.48C450.381 492.705 451.701 495.441 453.757 494.834L583.53 456.551C584.692 456.209 585.235 454.88 584.646 453.825L563.664 416.244Z" fill="white"/>
<path d="M84.4997 366.137C85.1126 365.068 86.571 364.862 87.4567 365.72L192.34 467.268C193.894 468.773 192.102 471.281 190.169 470.304L63.7101 406.388C62.7453 405.9 62.3865 404.706 62.9236 403.769L84.4997 366.137Z" fill="white"/>
<path d="M536.771 366.205C536.161 365.112 534.673 364.904 533.785 365.787L431.767 467.223C430.234 468.747 432.054 471.229 433.973 470.232L556.979 406.387C557.924 405.896 558.276 404.724 557.758 403.796L536.771 366.205Z" fill="white"/>
<path d="M115.016 318.468C115.745 317.37 117.35 317.338 118.123 318.406L209.682 444.837C210.973 446.621 208.678 448.792 206.962 447.409L92.6117 355.284C91.853 354.672 91.6849 353.585 92.2237 352.774L115.016 318.468Z" fill="white"/>
<path d="M507.069 318.548C506.342 317.424 504.706 317.392 503.935 318.486L414.922 444.714C413.652 446.514 415.976 448.656 417.674 447.251L528.846 355.274C529.582 354.664 529.746 353.601 529.227 352.799L507.069 318.548Z" fill="white"/>
<path d="M148.393 261.582C149.179 260.323 151.047 260.421 151.697 261.755L233.517 429.717C234.48 431.693 231.854 433.437 230.399 431.788L121.05 307.898C120.498 307.273 120.422 306.361 120.864 305.654L148.393 261.582Z" fill="white"/>
<path d="M474.576 261.682C473.795 260.397 471.896 260.495 471.252 261.853L391.717 429.522C390.774 431.51 393.425 433.226 394.86 431.556L501.155 307.883C501.687 307.264 501.76 306.374 501.336 305.677L474.576 261.682Z" fill="white"/>
<path d="M195.061 184.266C195.937 182.851 198.087 183.178 198.5 184.79L257.09 413.515C257.634 415.637 254.724 416.823 253.623 414.927L156.742 248.058C156.393 247.457 156.403 246.713 156.769 246.122L195.061 184.266Z" fill="white"/>
<path d="M429.147 184.391C428.279 182.951 426.1 183.277 425.693 184.908L368.739 413.238C368.208 415.369 371.138 416.533 372.22 414.62L466.397 248.039C466.731 247.447 466.721 246.722 466.37 246.14L429.147 184.391Z" fill="white"/>
<path d="M301.125 1.83317C302.109 0.114842 304.743 0.875856 304.654 2.85293L286.745 402.992C286.651 405.078 283.735 405.489 283.066 403.511L204.627 171.619C204.455 171.108 204.509 170.548 204.777 170.08L301.125 1.83317Z" fill="white"/>
<path d="M325.902 2.03224C324.932 0.293763 322.275 1.04355 322.362 3.03112L339.782 402.731C339.873 404.826 342.81 405.23 343.466 403.238L419.763 171.6C419.927 171.1 419.875 170.554 419.619 170.094L325.902 2.03224Z" fill="white"/>
<path d="M269.791 575.532V667.943C269.791 674.441 268.857 680.006 266.987 684.639C265.118 689.271 262.586 693.062 259.39 696.01C256.254 698.958 252.606 701.124 248.446 702.507C244.285 703.891 239.883 704.583 235.241 704.583C230.778 704.583 226.497 703.861 222.397 702.417C218.297 701.033 214.649 698.958 211.453 696.19C208.317 693.423 205.785 689.993 203.855 685.902C201.986 681.751 201.052 676.968 201.052 671.553V662.348H214.438V670.019C214.438 673.93 215.071 677.299 216.337 680.126C217.603 682.954 219.231 685.301 221.221 687.166C223.271 689.031 225.533 690.414 228.005 691.317C230.537 692.219 233.07 692.671 235.602 692.671C237.592 692.671 239.793 692.31 242.205 691.588C244.617 690.806 246.878 689.542 248.988 687.797C251.099 685.992 252.848 683.616 254.234 680.668C255.682 677.72 256.405 674.02 256.405 669.568V575.532H269.791Z" fill="white"/>
<path d="M321.287 683.917V701.424H304.192V683.917H321.287Z" fill="white"/>
<path d="M366.903 575.532V701.424H353.517V575.532H366.903Z" fill="white"/>
<path d="M420.298 683.917V701.424H403.203V683.917H420.298Z" fill="white"/>
</svg>
