<svg width="1492" height="272" viewBox="0 0 1492 272" fill="none" xmlns="http://www.w3.org/2000/svg">
<g clip-path="url(#clip0_8218_208)">
<path d="M208.64 3.88647C134.223 3.88647 73.9113 63.0489 73.9113 135.625C73.9113 208.45 134.223 267.363 208.64 267.363C283.016 267.363 343.369 208.45 343.369 135.625C343.369 63.4781 284.006 3.88647 208.64 3.88647ZM170.62 41.0626L208.385 163.07L208.64 163.319L208.895 163.07L246.659 41.0626L295.396 197.501H286.21C286.21 197.501 280.097 170.186 270.135 153.838C264.684 145.176 256.366 138.1 245.128 138.369C237.126 138.479 230.084 142.361 221.653 154.088C216.407 161.154 208.639 179.038 208.639 179.038C208.639 179.038 200.862 161.154 195.626 154.088C187.042 142.361 180.265 138.479 172.406 138.369C161.107 138.099 152.686 145.176 147.144 153.838C137.213 170.186 131.068 197.501 131.068 197.501H121.882L170.62 41.0626ZM626.044 88.4683C619.195 88.5322 611.111 89.4563 604.865 90.7139C577.96 95.9534 544.308 119.357 550.259 149.846C555.158 175.356 590.371 189.178 630.126 181.533C667.473 174.557 691.775 146.533 686.774 121.902C681.568 97.66 652.489 88.4683 626.044 88.4683ZM886.57 88.4683C879.568 88.5322 871.434 89.4563 865.136 90.7139C838.384 95.9534 804.426 119.357 810.275 149.846C815.378 175.356 850.846 189.178 890.653 181.533C927.897 174.557 952.036 146.533 946.79 121.902C941.84 97.66 912.873 88.4683 886.57 88.4683ZM1169.55 88.4683C1162.45 88.5322 1154.68 89.4563 1148.12 90.7139C1121.57 95.9534 1087.61 119.357 1093.51 149.846C1098.46 175.356 1133.79 189.178 1173.38 181.533C1210.73 174.557 1235.12 146.533 1229.77 121.902C1224.87 97.66 1195.74 88.4683 1169.55 88.4683ZM1575.27 88.9673C1550.5 88.9598 1532.8 98.8875 1528.06 116.163C1527.39 118.518 1527.04 120.714 1527.04 122.65C1527.12 136.503 1542.52 139.277 1557.41 141.114C1572.46 142.92 1586.97 144.028 1586.75 152.591C1586.75 153.429 1586.77 154.327 1586.5 155.335C1583.96 164.677 1571.74 171.813 1553.07 171.803C1537.98 171.769 1529.1 166.603 1529.08 157.581C1529.08 156.393 1529.26 155.186 1529.59 153.838L1529.85 153.09H1515.05L1514.79 153.589C1514.35 155.875 1514.28 158.04 1514.28 160.076C1514.32 175.506 1527.02 182.761 1549.75 182.781C1576.62 182.781 1595.86 172.232 1600.79 154.338C1601.36 152.182 1601.81 150.036 1601.81 148.1C1601.82 140.036 1596.35 134.088 1584.97 132.132L1552.81 126.393C1544.23 124.876 1541.86 121.713 1541.84 118.16C1541.84 117.341 1541.88 116.513 1542.1 115.665C1544.67 106.193 1557.15 99.9359 1569.91 99.9459C1583.4 99.9534 1594.13 102.79 1594.15 112.421C1594.15 113.249 1594.05 114.227 1593.9 115.166V115.665H1608.44L1608.7 115.415C1609.13 113.349 1609.21 111.453 1609.21 109.677C1609.17 93.5389 1592.18 88.9872 1575.27 88.9673ZM1689.58 88.9673C1651.41 88.9673 1631.34 114.716 1625.54 135.874C1624.31 140.295 1623.5 144.776 1623.5 149.347C1623.5 157.95 1626.07 166.343 1632.43 172.551C1638.79 178.779 1648.98 182.781 1664.07 182.781C1702.24 182.781 1722.31 157.301 1728.11 136.123C1729.32 131.682 1729.9 126.962 1729.9 122.401C1729.9 113.788 1727.57 105.415 1721.22 99.1969C1714.87 92.9693 1704.67 88.9673 1689.58 88.9673ZM2168.02 88.9673C2129.84 88.9673 2109.76 114.706 2103.98 135.874C2102.75 140.305 2102.19 144.796 2102.19 149.347C2102.19 157.95 2104.5 166.343 2110.87 172.551C2117.21 178.769 2127.41 182.791 2142.51 182.781C2180.67 182.788 2200.75 157.291 2206.55 136.123C2207.76 131.692 2208.6 126.962 2208.6 122.401C2208.6 113.788 2206.01 105.415 2199.66 99.1969C2193.31 92.9693 2183.11 88.9673 2168.02 88.9673ZM2400.74 88.9673C2375.98 88.9598 2358.28 98.8875 2353.53 116.163C2352.87 118.518 2352.51 120.714 2352.51 122.65C2352.58 136.483 2367.99 139.267 2382.88 141.114C2397.94 142.92 2412.69 144.028 2412.47 152.591C2412.47 153.429 2412.25 154.327 2411.96 155.335C2409.44 164.677 2397.45 171.803 2378.79 171.803C2363.7 171.763 2354.57 166.583 2354.55 157.581C2354.55 156.383 2354.74 155.186 2355.06 153.838L2355.32 153.09H2340.52V153.589C2340.07 155.875 2339.75 158.04 2339.75 160.076C2339.79 175.506 2352.51 182.761 2375.22 182.781C2402.1 182.781 2421.34 172.232 2426.25 154.338C2426.84 152.172 2427.27 150.026 2427.27 148.1C2427.31 140.026 2421.82 134.088 2410.43 132.132L2378.28 126.393C2369.7 124.876 2367.32 121.713 2367.31 118.16C2367.31 117.341 2367.6 116.513 2367.82 115.665C2370.4 106.213 2382.62 99.9359 2395.38 99.9459C2408.87 99.9534 2419.59 102.79 2419.62 112.421C2419.62 113.249 2419.52 114.217 2419.36 115.166V115.665H2434.16V115.415C2434.6 113.349 2434.93 111.453 2434.93 109.677C2434.89 93.5389 2417.65 88.9872 2400.74 88.9673ZM1763.07 91.2128L1762.82 91.7119L1738.58 180.535H1820.49L1823.29 169.557H1755.42L1777.11 91.2128H1763.07ZM2241.26 91.2128L2216.76 180.535H2230.8L2251.21 105.934L2285.66 180.535H2304.03L2328.52 91.2128H2314.49V91.7119L2294.08 166.064L2259.63 91.2128H2241.26ZM1855.7 91.4621L1841.15 144.357C1839.96 148.728 1839.37 152.68 1839.37 156.333C1839.4 173.888 1852.89 182.74 1873.3 182.78C1897.98 182.78 1919.16 169.966 1926.12 144.606L1940.92 91.4621H1926.89L1926.64 91.7113L1912.09 145.105C1907.49 161.762 1894.57 171.782 1876.11 171.802C1861.16 171.738 1853.7 165.325 1853.66 154.087C1853.66 151.403 1854.05 148.558 1854.93 145.355L1869.73 91.4617L1855.7 91.4621ZM1962.87 91.4621L1959.55 103.189H1997.83L1976.65 180.535H1990.68L2011.86 103.189H2050.14L2053.45 91.4621H1962.87ZM2076.16 91.4621V91.7113L2051.67 180.535H2065.7L2090.2 91.4617L2076.16 91.4621ZM497.949 91.7113L464.777 129.636L453.295 92.2103H407.875L381.337 180.036H409.916L424.461 131.632L437.474 180.036H455.846L497.949 134.626L484.425 180.036H520.914L546.176 91.7113H497.949ZM702.339 91.7113L694.939 120.654H732.704L718.159 180.036H753.372L769.193 120.405H807.723L814.358 92.2111L702.339 91.7113ZM1397.93 91.7113L1336.94 180.036H1367.31L1377.77 164.816L1378.02 164.317H1421.15V164.816L1424.97 180.036H1460.44L1440.03 91.7113H1397.93ZM974.348 92.2103L948.576 180.036H982.003L989.658 153.588L1016.45 154.087C1026.15 153.129 1026.66 159.826 1026.66 159.826C1026.66 159.826 1026.28 165.864 1025.64 172.051C1025.19 178.898 1032.02 180.036 1032.02 180.036H1068.25C1065.35 177.77 1065.19 173.179 1065.19 170.305C1065.19 168.079 1068.98 162.76 1067.74 154.337C1066.89 146.991 1058.49 145.105 1057.28 144.107C1056.19 143.668 1057.53 142.361 1057.53 142.361C1057.53 142.361 1080.33 135.983 1082.54 114.915C1085.18 93.8669 1060.34 92.2103 1060.34 92.2103H974.348ZM1256.31 92.2103L1233.09 180.036H1323.93L1330.31 155.834H1274.17L1290.76 92.2103H1256.31ZM1686.78 99.9449C1704.52 99.9927 1714.79 109.626 1714.85 124.895C1714.85 128.279 1714.39 131.981 1713.31 135.873C1707.4 157.431 1688.53 171.802 1666.87 171.802C1649.1 171.754 1638.58 162.361 1638.55 147.101C1638.55 143.718 1639.26 140.015 1640.34 136.123C1646.27 114.566 1665.09 99.9449 1686.78 99.9449ZM2165.22 99.9449C2182.98 99.9849 2193.49 109.626 2193.54 124.895C2193.54 128.279 2192.83 131.981 2191.75 135.873C2185.83 157.421 2166.99 171.802 2145.31 171.802C2127.55 171.762 2117.29 162.371 2117.25 147.101C2117.25 143.718 2117.72 140.015 2118.78 136.123C2124.72 114.576 2143.56 99.9449 2165.22 99.9449ZM1164.96 111.173C1166.27 111.083 1167.75 111.139 1169.3 111.173C1180.21 112.031 1190.76 116.562 1192.52 124.646C1197.56 148.898 1171.14 159.117 1174.14 157.58C1158.9 165.275 1135.55 162.73 1132.81 147.351C1130.05 132.63 1141.73 117.889 1151.43 114.416C1157.58 112.275 1161.03 111.441 1164.96 111.173ZM621.961 111.422C623.297 111.366 624.538 111.502 625.788 111.671C636.679 111.671 647.61 116.561 649.009 124.645C654.306 148.897 627.799 159.117 631.147 157.58C615.694 165.274 592.157 162.729 589.555 147.35C586.799 132.629 598.741 117.889 608.437 114.416C613.574 112.709 617.954 111.594 621.961 111.422ZM882.232 111.422C883.601 111.366 885.026 111.502 886.315 111.671C897.012 111.671 907.729 116.561 909.28 124.645C914.73 148.897 888.224 159.117 891.418 157.58C876.016 165.274 852.235 162.729 849.826 147.35C847.182 132.629 858.961 117.889 868.708 114.416C873.73 112.709 878.125 111.594 882.232 111.422ZM1002.67 112.42L1039.93 112.669C1039.93 112.669 1047.12 112.17 1046.56 119.406C1046.07 127.769 1036.86 129.386 1036.86 129.386H998.334L1002.67 112.42ZM1409.92 117.659L1416.04 143.608H1415.53H1392.57H1392.06L1409.92 117.659Z" fill="white"/>
</g>
<defs>
<clipPath id="clip0_8218_208">
<rect width="1490.22" height="270.948" fill="white" transform="translate(0.963623 0.150391)"/>
</clipPath>
</defs>
</svg>
