<svg width="1318" height="710" viewBox="0 0 1318 710" fill="none" xmlns="http://www.w3.org/2000/svg">
<path d="M982.683 651.171V616.507C982.683 616.507 982.237 608.514 972.763 608.364C963.289 608.214 962.751 616.507 962.751 616.507V700.783C962.751 700.783 963.213 707.394 972.688 707.469C982.162 707.545 982.683 700.783 982.683 700.783V670.886H1014.96V700.783C1014.96 700.783 1015.54 709.239 1024.89 709.177C1034.23 709.115 1035.11 700.783 1035.11 700.783V670.886C1035.11 670.886 1042.72 669.158 1042.84 661.028C1042.96 652.898 1035.11 651.171 1035.11 651.171V616.507C1035.11 616.507 1033.17 608.258 1025.09 608.157C1017.02 608.056 1014.96 616.507 1014.96 616.507V651.171H982.683Z" fill="white"/>
<path d="M352.143 432.537H270.64V446.327H302.817V546.04H318.551V446.327H350.375L352.143 432.537Z" fill="white"/>
<path d="M1049.77 432.537H968.27V446.327H1000.45V546.04H1016.18V446.327H1048L1049.77 432.537Z" fill="white"/>
<path d="M391.594 76.7643L404.265 287.801C404.269 287.859 404.3 287.906 404.356 287.921C405.715 288.288 422.827 293.258 419.563 310.258C416.31 327.2 396.96 325.089 395.309 324.877C395.238 324.868 395.188 324.904 395.172 324.974C394.837 326.455 390.951 342.114 376.516 342.047C362.183 341.98 357.616 327.848 357.165 326.322C357.143 326.247 357.077 326.208 357.002 326.234C355.284 326.836 336.343 333.052 331.896 316.204C327.425 299.266 342.74 292.441 343.988 291.916C344.041 291.893 344.066 291.844 344.062 291.786L331.172 80.2899C331.082 78.82 329.821 77.699 328.351 77.7817L264.279 81.3885C264.214 81.3921 264.163 81.4303 264.154 81.4944C263.96 82.8878 261.54 98.4753 249.751 101.542C237.939 104.615 228.29 92.4777 227.48 91.4269C227.444 91.3794 227.396 91.3659 227.34 91.3865C225.938 91.8989 207.663 98.2741 200.39 85.0919C193.264 72.176 203.912 62.0488 205.173 60.9162C205.236 60.8594 205.235 60.7657 205.169 60.7117C203.836 59.616 192.232 49.5376 199.444 36.1539C205.349 25.1955 214.471 25.6737 218.315 26.4582C219.481 26.6961 220.722 26.6107 221.76 26.0293L225.117 24.1493C225.471 23.9511 225.865 23.8359 226.27 23.8126L490.101 8.62974C490.714 8.59441 491.328 8.70065 491.895 8.94026L494.356 9.98167C495.889 10.6303 497.637 10.5114 499.22 9.99598C503.173 8.70898 511.184 7.62205 517.484 16.5616C525.726 28.258 516.29 40.5917 515.25 41.8858C515.199 41.949 515.218 42.0355 515.285 42.0812C516.551 42.9473 526.887 50.5332 523.458 65.2626C519.945 80.3518 497.472 76.0103 495.782 75.6613C495.718 75.648 495.668 75.6751 495.642 75.7354C495.112 76.98 489.222 89.9625 474.923 87.8294C460.701 85.708 459.281 71.7105 459.17 70.2329C459.164 70.1587 459.101 70.1103 459.027 70.1147L394.108 73.9334C392.631 74.0203 391.506 75.2883 391.594 76.7643Z" fill="white"/>
<path d="M67.8294 114.749L91.8632 133.035L151.068 173.011L177.281 192.4L200.951 213.134C200.955 213.129 200.955 213.129 200.955 213.129L200.956 213.13L200.961 213.134L201.029 213.188C201.073 213.223 201.137 213.274 201.218 213.339L201.324 213.424L201.485 213.555C201.61 213.656 201.755 213.774 201.921 213.909C202.525 214.404 203.392 215.125 204.465 216.045C206.609 217.882 209.582 220.52 212.916 223.736C219.541 230.128 227.777 238.983 233.724 248.513C245.234 266.962 245.714 283.212 245.734 284.781C245.735 284.81 245.735 284.837 245.735 284.861C245.736 284.892 245.735 284.919 245.735 284.942C245.734 285.032 245.731 285.114 245.727 285.182C245.725 285.215 245.722 285.245 245.72 285.272C245.718 285.297 245.716 285.32 245.714 285.339C245.71 285.385 245.705 285.43 245.7 285.474C245.694 285.514 245.689 285.554 245.683 285.592C245.672 285.665 245.657 285.757 245.634 285.862C245.341 287.301 242.521 299.249 227.884 312.283C212.902 325.624 185.914 339.769 137.546 345.282C89.228 350.79 59.8171 345.229 42.2588 337.906C24.8547 330.647 19.3191 321.747 18.7021 320.67C18.6876 320.645 18.6768 320.625 18.6718 320.617C18.658 320.592 18.6471 320.572 18.6406 320.56C18.634 320.547 18.6236 320.528 18.6112 320.504C18.6058 320.494 18.593 320.469 18.577 320.438L18.5764 320.436C17.8013 318.897 12.4956 306.651 20.9171 275.773C25.218 260.003 31.9294 247.111 37.5546 238.167C39.4619 235.134 41.2497 232.547 42.7845 230.446C43.2535 229.481 43.7965 228.545 44.4124 227.646L68.0789 193.098C71.1583 188.603 72.1417 183.532 67.2774 181.077C61.1629 177.991 55.6242 182.118 51.9701 187.911L28.5321 225.069C19.7442 239.001 12.5023 253.857 7.09453 269.417C5.65287 273.564 4.4293 277.898 3.48893 281.56C1.94346 287.578 0.926998 293.716 0.586347 299.92C0.18873 307.161 0.190395 316.867 2.42402 322.26C5.81984 330.459 11.4478 337.623 18.7882 342.611L22.8848 345.394C25.9976 347.509 29.3113 349.312 32.7779 350.776L37.3322 352.701C45.8721 356.309 54.8437 358.795 64.0227 360.097L71.8579 361.209L75.4639 361.588C89.201 363.035 103.03 363.415 116.825 362.725L126.338 362.25L154.153 358.136L160.67 356.878C177.482 353.632 193.809 348.244 209.25 340.845L221.889 333.886C232.121 328.253 241.293 320.881 248.994 312.1L251.329 309.137C257.547 301.243 260.928 291.486 260.928 281.437C260.928 274.443 259.289 267.547 256.143 261.3L250.543 250.183C247.993 245.121 245.006 240.291 241.614 235.75L235.776 227.933C226.56 215.595 216.006 204.316 204.306 194.303L194.024 185.503L163.093 161.321L88.9702 111.284C83.16 107.362 77.7198 102.917 72.7175 98.0063L68.5867 93.9506C68.3249 93.6936 68.0598 93.4343 67.7924 93.1727L67.7797 93.1603L67.7785 93.1592C61.9204 87.4291 54.9627 80.6237 56.9868 72.8467C57.4745 70.9731 58.9105 69.0767 60.4882 67.4554C63.7303 64.1238 67.8313 61.7887 72.0469 59.8291C76.4396 57.7871 82.6092 55.3251 88.6863 54.2642C95.0987 53.1449 99.5797 52.6629 102.25 52.4553C104.25 52.2998 106.27 52.3134 108.275 52.3889C118.368 52.7685 125.734 53.8494 131.11 55.209C141.279 57.781 139.138 67.0343 129.626 71.4543L121.451 75.2527C121.126 75.4037 120.794 75.5568 120.458 75.7121L120.456 75.7131C113.577 78.889 104.652 83.0103 108.533 89.2207C108.598 89.3247 108.665 89.4264 108.732 89.5258C115.59 99.6195 131.57 90.1362 141.433 82.9504C151.006 75.9754 153.478 68.0275 153.974 65.9956C154.054 65.6659 154.081 65.3322 154.081 64.9928C154.081 64.5732 154.087 64.1295 154.093 63.6699C154.129 61.0628 154.172 57.9413 153.152 55.7911C152.794 55.0361 152.337 54.1533 151.756 53.1214C150.641 51.1379 149.373 49.5214 148.139 48.2276C144.829 44.7575 137.636 40.3458 133.06 38.9102C125.979 36.6885 121.733 36.2574 114.318 35.9522C111.719 35.8452 108.688 35.8831 105.252 36.1848C102.324 36.4419 99.5558 36.7763 97.0247 37.14C87.2581 38.5431 77.5601 40.7874 68.3989 44.4519C68.1325 44.5584 67.8691 44.6659 67.6088 44.7742C57.4683 48.993 46.3256 55.1969 42.9845 65.6595C42.2953 67.8176 41.8051 69.7262 41.4618 71.3982C40.1726 77.6762 42.2153 83.9215 44.9261 89.729C45.4137 90.7738 45.938 91.8767 46.4934 93.0175C47.7445 95.5874 49.9551 98.455 52.2045 101.013C56.7943 106.234 62.2973 110.539 67.8294 114.749Z" fill="white"/>
<path fill-rule="evenodd" clip-rule="evenodd" d="M42.9462 247.35C38.3054 255.366 33.3231 265.87 29.9504 278.236C22.8892 304.127 26.3721 314.751 26.9119 316.145C27.652 317.247 32.394 323.647 45.8629 329.264C61.5348 335.801 89.2392 341.365 136.486 335.979C183.464 330.624 208.47 317.033 221.657 305.291C232.87 295.306 235.809 286.417 236.355 284.412C236.229 281.72 235.141 268.473 225.78 253.469C220.424 244.886 212.813 236.647 206.415 230.475C204.425 228.555 202.57 226.851 200.962 225.419C184.374 229.969 166.93 230.478 150.093 226.896C144.258 225.654 138.329 224.9 132.369 224.641L123.529 224.256C112.558 223.779 101.57 224.696 90.83 226.985C77.4264 229.842 64.5595 234.803 52.7075 241.683L42.9462 247.35ZM108.923 264.096C109.493 263.405 110.422 263.204 111.306 263.06L139.183 258.507C139.828 258.401 140.486 258.326 141.124 258.466C142.255 258.715 144.02 259.487 144.42 261.879C144.816 264.239 143.386 265.546 142.362 266.163C141.759 266.527 141.058 266.672 140.362 266.778L114.065 270.779C112.036 271.088 109.677 271.01 108.724 269.193C108.456 268.683 108.245 268.055 108.156 267.288C107.973 265.703 108.424 264.702 108.923 264.096ZM115.345 289.603C114.457 289.719 113.522 289.889 112.93 290.562C112.412 291.151 111.928 292.137 112.06 293.727C112.124 294.497 112.314 295.131 112.565 295.65C113.459 297.497 115.814 297.651 117.852 297.408L144.265 294.264C144.965 294.18 145.669 294.058 146.285 293.714C147.328 293.131 148.8 291.871 148.481 289.499C148.158 287.095 146.419 286.267 145.297 285.981C144.664 285.82 144.004 285.874 143.356 285.958L115.345 289.603ZM115.982 317.875C116.511 317.441 117.203 317.303 117.879 317.195L148.425 312.307C149.381 312.154 150.373 312.063 151.269 312.427C152.326 312.857 153.638 313.805 153.923 315.887C154.337 318.901 151.638 319.946 150.744 320.207C150.557 320.262 150.367 320.294 150.175 320.324L120.707 324.878C118.665 325.194 116.277 325.146 115.286 323.332C114.995 322.8 114.775 322.14 114.709 321.328C114.557 319.459 115.322 318.418 115.982 317.875ZM109.085 235.838C108.104 236.002 107.055 236.249 106.533 237.097C106.156 237.708 105.863 238.651 106.029 240.063C106.096 240.632 106.222 241.125 106.384 241.551C107.185 243.665 109.79 243.874 112.024 243.529L134.702 240.031C135.478 239.911 136.264 239.747 136.898 239.285C137.785 238.638 138.869 237.371 138.507 235.161C138.139 232.921 136.718 232.082 135.703 231.767C135.006 231.552 134.266 231.639 133.546 231.759L109.085 235.838Z" fill="white"/>
<path d="M25.9338 314.895L25.96 314.919L25.9075 314.872L25.8713 314.839C25.8959 314.861 25.9176 314.88 25.9338 314.895Z" fill="white"/>
<path d="M25.6595 314.661C25.6732 314.672 25.6888 314.685 25.7055 314.698L25.6562 314.66L25.6135 314.628L25.5419 314.574C25.5888 314.608 25.6301 314.638 25.6595 314.661Z" fill="white"/>
<path d="M25.206 314.345C25.2295 314.36 25.2562 314.377 25.2847 314.396C25.1995 314.345 25.0843 314.28 24.9666 314.217C25.0633 314.266 25.1483 314.311 25.206 314.345Z" fill="white"/>
<path d="M24.3818 313.945C24.4219 313.961 24.4667 313.98 24.5143 314.001C24.3419 313.942 24.0949 313.871 23.842 313.81C24.0601 313.855 24.2552 313.904 24.3818 313.945Z" fill="white"/>
<path d="M22.8099 313.656C22.8674 313.659 22.9301 313.665 22.9966 313.672C22.6356 313.685 22.1106 313.761 21.6166 313.871C22.0679 313.755 22.5184 313.671 22.8099 313.656Z" fill="white"/>
<path d="M20.4408 314.271C20.4759 314.254 20.5132 314.237 20.5523 314.22C19.9826 314.595 19.1852 315.35 18.8149 315.835C19.1711 315.362 19.9396 314.605 20.4408 314.271Z" fill="white"/>
<path d="M18.187 317.339C18.26 317.053 18.4887 316.446 18.6825 316.052C18.4844 316.459 18.2591 317.077 18.1758 317.401L18.182 317.366L18.187 317.339Z" fill="white"/>
<path d="M18.0815 318.198C18.0859 318.11 18.0991 317.97 18.1166 317.821C18.0996 317.988 18.0864 318.158 18.0812 318.276C18.0811 318.248 18.0812 318.221 18.0815 318.198Z" fill="white"/>
<path d="M18.0954 318.724C18.0924 318.682 18.0895 318.62 18.0871 318.551C18.0917 318.639 18.0976 318.73 18.1032 318.8C18.1001 318.772 18.0974 318.746 18.0954 318.724Z" fill="white"/>
<path d="M18.1367 319.067C18.1335 319.046 18.1296 319.017 18.1254 318.985L18.1344 319.046C18.1392 319.077 18.144 319.108 18.1485 319.135L18.1433 319.106L18.1367 319.067Z" fill="white"/>
<path d="M18.1807 319.305L18.1736 319.27L18.1838 319.318L18.1807 319.305Z" fill="white"/>
<path d="M18.2444 319.569C18.2368 319.541 18.2288 319.511 18.2208 319.479L18.2316 319.521L18.2444 319.569Z" fill="white"/>
<path d="M27.368 317.508L27.3542 317.434L27.3614 317.47L27.368 317.508Z" fill="white"/>
<path d="M27.4165 317.853L27.4121 317.815L27.406 317.764L27.4008 317.722L27.4068 317.766L27.4121 317.806L27.4165 317.853Z" fill="white"/>
<path d="M27.4422 318.332C27.4419 318.348 27.4414 318.364 27.4407 318.382C27.4402 318.314 27.4385 318.235 27.4362 318.162L27.4379 318.2L27.4396 318.24C27.4408 318.274 27.4418 318.305 27.4422 318.332Z" fill="white"/>
<path d="M27.3484 319.26C27.366 319.157 27.3836 319.031 27.3987 318.909C27.3863 319.023 27.3722 319.134 27.3579 319.221L27.3484 319.26Z" fill="white"/>
<path d="M23.9468 322.792C24.3172 322.695 24.6848 322.577 24.9618 322.457C24.9286 322.479 24.8962 322.5 24.8647 322.519C24.6225 322.619 24.2937 322.713 23.9468 322.792Z" fill="white"/>
<path d="M21.7118 322.871C21.9761 322.926 22.2703 322.975 22.516 323.001C22.4683 323.003 22.4234 323.003 22.382 323.003C22.1948 322.979 21.9519 322.929 21.7118 322.871Z" fill="white"/>
<path d="M20.5849 322.473C20.7167 322.539 20.8664 322.611 20.9966 322.668C20.9769 322.661 20.9582 322.655 20.9407 322.648L20.906 322.635C20.8162 322.594 20.7005 322.534 20.5849 322.473Z" fill="white"/>
<path d="M20.0104 322.122C20.079 322.17 20.1559 322.224 20.224 322.269C20.2033 322.257 20.1847 322.245 20.1685 322.235C20.1245 322.205 20.0681 322.164 20.0104 322.122Z" fill="white"/>
<path d="M19.6832 321.863L19.7141 321.889C19.7431 321.914 19.7731 321.94 19.8007 321.963L19.7671 321.936C19.7438 321.916 19.7142 321.89 19.6832 321.863Z" fill="white"/>
<path d="M19.4775 321.673C19.4993 321.695 19.5224 321.717 19.5437 321.737L19.5243 321.719C19.5112 321.707 19.4949 321.69 19.4775 321.673Z" fill="white"/>
<path d="M105.254 210.355C105.677 209.248 106.941 208.911 108.115 208.747L127.608 206.031C128.475 205.91 129.391 205.829 130.15 206.263C130.94 206.715 131.86 207.657 132.105 209.616C132.347 211.546 131.685 212.712 131.018 213.379C130.354 214.042 129.386 214.219 128.455 214.335L111.121 216.492C108.5 216.818 105.552 216.217 105.085 213.618C105.043 213.387 105.01 213.143 104.988 212.883C104.89 211.755 105.031 210.939 105.254 210.355Z" fill="white"/>
<path fill-rule="evenodd" clip-rule="evenodd" d="M805.841 234.489L821.96 264.823C822.239 265.348 822.138 265.994 821.712 266.409L794.922 292.504C794.501 292.914 793.863 293.001 793.348 292.721L763.002 276.187C762.619 275.978 762.159 275.969 761.768 276.163L743.771 285.083C743.374 285.28 743.1 285.661 743.04 286.101L738.418 319.892C738.336 320.485 737.871 320.952 737.278 321.035L699.759 326.282C699.17 326.364 698.597 326.047 698.354 325.504L684.164 293.864C683.976 293.446 683.588 293.153 683.135 293.087L663.102 290.184C662.68 290.123 662.254 290.267 661.955 290.571L637.838 315.168C637.427 315.587 636.792 315.689 636.271 315.421L603.539 298.579C603.014 298.308 602.728 297.726 602.836 297.146L609.228 262.63C609.306 262.207 609.176 261.773 608.879 261.462L594.792 246.749C594.475 246.418 594.011 246.272 593.562 246.362L560.289 253.049C559.698 253.168 559.101 252.877 558.83 252.338L541.992 218.82C541.724 218.287 541.841 217.642 542.279 217.237L567.644 193.786C567.969 193.486 568.124 193.046 568.06 192.609L565.083 172.402C565.019 171.967 564.746 171.591 564.351 171.397L533.229 156.076C532.697 155.813 532.401 155.231 532.502 154.646L538.859 118.096C538.959 117.517 539.426 117.072 540.008 116.998L574.007 112.688C574.437 112.634 574.814 112.375 575.018 111.992L584.576 94.1314C584.783 93.7444 584.787 93.2804 584.586 92.8899L568.619 61.7523C568.348 61.2249 568.457 60.5824 568.886 60.1735L595.745 34.5858C596.17 34.1812 596.809 34.1005 597.321 34.3868L627.008 50.9862C627.382 51.1952 627.833 51.2126 628.222 51.0329L646.866 42.4159C647.279 42.2251 647.567 41.8377 647.63 41.3874L652.411 7.27662C652.494 6.68543 652.959 6.22073 653.55 6.13771L690.906 0.891969C691.495 0.809312 692.068 1.125 692.312 1.66688L706.175 32.421C706.357 32.8257 706.729 33.1135 707.166 33.1893L727.053 36.6343C727.479 36.7081 727.914 36.5718 728.221 36.2684L752.817 11.9917C753.234 11.5808 753.869 11.488 754.385 11.7626L786.973 29.0899C787.49 29.3648 787.768 29.9437 787.659 30.519L781.274 64.3594C781.193 64.7912 781.329 65.2354 781.638 65.5479L795.402 79.4681C795.702 79.7716 796.128 79.9137 796.551 79.8506L830.757 74.7356C831.326 74.6504 831.887 74.9397 832.147 75.4535L849.002 108.687C849.273 109.22 849.157 109.868 848.718 110.274L822.806 134.254C822.608 134.438 822.359 134.557 822.091 134.596L607.299 166.032C606.656 166.126 606.179 166.666 606.197 167.316C606.384 173.841 609.109 207.639 644.806 236.421C650.341 240.884 656.755 244.082 663.393 246.631L663.953 246.846C674.083 250.736 684.841 252.73 695.692 252.73C702.402 252.73 709.116 252.034 715.611 250.352C734.596 245.436 743.637 240.461 762.067 222.331C762.274 222.127 762.547 221.99 762.834 221.952L811.939 215.354C812.989 215.213 813.778 216.288 813.329 217.247L805.811 233.294C805.633 233.675 805.644 234.118 805.841 234.489ZM618.117 122.022L757.989 102.763C759.04 102.618 759.504 101.408 758.76 100.652C751.762 93.5433 723.212 67.8315 682.132 74.5872C641.269 81.3074 621.544 111.777 616.812 120.198C616.291 121.124 617.064 122.167 618.117 122.022Z" fill="white"/>
<path d="M1003.7 127.27C1003.88 126.966 1003.93 126.601 1003.85 126.256L989.054 66.6988C988.767 65.5432 987.227 65.3105 986.611 66.3297L850.963 290.915C849.06 294.066 850.061 298.162 853.202 300.08L881.156 317.155C884.319 319.087 888.45 318.078 890.366 314.905L1003.7 127.27Z" fill="white"/>
<path d="M1210.4 159.16C1210.58 158.856 1210.63 158.491 1210.55 158.146L1195.75 98.5886C1195.47 97.4329 1193.93 97.2002 1193.31 98.2195L1057.66 322.805C1055.76 325.956 1056.76 330.052 1059.9 331.97L1087.86 349.044C1091.02 350.977 1095.15 349.967 1097.07 346.795L1210.4 159.16Z" fill="white"/>
<path d="M1090.33 252.549C1090.41 252.893 1090.35 253.256 1090.17 253.558L1058.48 305.909C1057.86 306.927 1056.32 306.693 1056.03 305.537L993.509 52.5275C992.621 48.9337 994.821 45.3021 998.418 44.4254L1030.9 36.5082C1034.49 35.6331 1038.11 37.835 1038.98 41.4254L1090.33 252.549Z" fill="white"/>
<path d="M1316.93 362.709C1317.63 365.581 1315.87 368.476 1313 369.175L1278.58 377.555C1275.71 378.252 1272.82 376.499 1272.12 373.635L1200.72 83.6366C1199.84 80.0442 1202.04 76.4163 1205.63 75.5401L1238.12 67.6208C1241.71 66.746 1245.33 68.9461 1246.2 72.5347L1316.93 362.709Z" fill="white"/>
<path d="M396.01 658.457C396.01 664.105 391.432 668.683 385.784 668.683C380.136 668.683 375.557 664.105 375.557 658.457C375.557 652.809 380.136 648.23 385.784 648.23C391.432 648.23 396.01 652.809 396.01 658.457Z" fill="white"/>
<path d="M622.879 658.457C622.879 664.105 618.3 668.683 612.652 668.683C607.004 668.683 602.426 664.105 602.426 658.457C602.426 652.809 607.004 648.23 612.652 648.23C618.3 648.23 622.879 652.809 622.879 658.457Z" fill="white"/>
<path d="M881.449 658.457C881.449 664.105 876.87 668.683 871.223 668.683C865.575 668.683 860.996 664.105 860.996 658.457C860.996 652.809 865.575 648.23 871.223 648.23C876.87 648.23 881.449 652.809 881.449 658.457Z" fill="white"/>
<path fill-rule="evenodd" clip-rule="evenodd" d="M717.231 697.065L721.873 678.619C722.172 677.43 723.241 676.596 724.467 676.596H754.365C755.646 676.596 756.747 677.505 756.991 678.763L760.541 697.08C760.971 699.296 761.63 701.493 763.008 703.28C764.788 705.587 767.829 708.412 771.944 708.177C775.164 707.993 777.318 705.827 778.698 703.576C780.65 700.392 780.437 696.466 779.67 692.811L776.471 677.57C776.349 676.992 776.617 676.403 777.115 676.086C779.485 674.576 785.896 669.875 784.235 664.098C782.692 658.73 775.18 657.502 771.68 657.221C770.591 657.134 769.619 656.506 769.19 655.501C765.485 646.822 747.656 606.579 735.586 606.579C722.077 606.579 707.475 657.863 707.432 658.016L697.72 692.896C697.273 694.501 696.934 696.154 697.157 697.805C697.569 700.853 699.226 705.742 705.536 706.86C713.554 708.28 716.32 700.454 716.939 698.227C717.01 697.972 717.072 697.717 717.134 697.461C717.166 697.33 717.198 697.198 717.231 697.065ZM748.221 657.317L737.5 635.829L728.484 657.317H748.221Z" fill="white"/>
<path fill-rule="evenodd" clip-rule="evenodd" d="M85.2476 546.189L121.87 432.708H141.677L178.299 546.189H161.607L152.888 517.788H109.912L101.317 546.189H85.2476ZM148.903 504.989L131.498 445.882L113.24 504.989H148.903Z" fill="white"/>
<path d="M265.244 441.861L256.334 451.986C256.334 451.986 250.119 442.849 234.287 443.119C218.454 443.389 212.796 452.998 212.796 452.998C212.796 452.998 204.291 459.369 204.291 488.902C204.291 518.435 212.796 525.493 212.796 525.493C212.796 525.493 220.772 534.359 233.171 534.989C245.571 535.618 258.561 525.493 258.561 525.493L266.661 535.618L256.334 543.111C256.334 543.111 244.996 550.453 228.922 548.261C212.848 546.069 204.291 537.238 204.291 537.238C204.291 537.238 185.742 520.848 185.742 490.849C185.742 467.354 195.751 451.384 200.091 445.564C201.343 443.885 202.829 442.411 204.511 441.163C209.423 437.522 221.223 430.097 235.406 430.443C254.163 430.9 265.244 441.861 265.244 441.861Z" fill="white"/>
<path d="M760.896 441.861L751.986 451.986C751.986 451.986 745.772 442.849 729.939 443.119C714.107 443.389 708.449 452.998 708.449 452.998C708.449 452.998 699.944 459.369 699.944 488.902C699.944 518.435 708.449 525.493 708.449 525.493C708.449 525.493 716.424 534.359 728.824 534.989C741.223 535.618 754.214 525.493 754.214 525.493L762.314 535.618L751.986 543.111C751.986 543.111 740.648 550.453 724.575 548.261C708.501 546.069 699.944 537.238 699.944 537.238C699.944 537.238 681.395 520.848 681.395 490.849C681.395 467.354 691.404 451.384 695.744 445.564C696.996 443.885 698.482 442.411 700.164 441.163C705.076 437.522 716.875 430.097 731.058 430.443C749.815 430.9 760.896 441.861 760.896 441.861Z" fill="white"/>
<path d="M370.547 432.537H385.946V546.04H370.547V432.537Z" fill="white"/>
<path fill-rule="evenodd" clip-rule="evenodd" d="M422.339 530.407C418.185 524.431 410.909 510.82 410.909 488.791C410.909 465.845 419.323 452.516 423.626 447.199C425.161 445.303 426.753 443.43 428.437 441.666C432.575 437.33 442.436 429.528 459.86 429.474C479.141 429.414 489.84 440.159 493.364 444.483C494.298 445.63 495.146 446.824 495.969 448.053C499.25 452.95 507.674 467.59 507.674 488.791C507.674 510.606 498.754 526.717 495.697 531.598C495.637 531.693 495.577 531.789 495.518 531.884C494.924 532.834 494.335 533.776 493.665 534.678C490.75 538.61 481.125 548.678 459.163 548.403C440.918 548.175 431.866 541.789 427.873 537.586C425.849 535.456 424.141 532.998 422.462 530.583L422.339 530.407ZM433.4 519.746C431.001 514.704 428.243 505.347 428.16 488.905C428.085 474.079 430.413 465.204 432.727 460.057C434.884 455.26 438.652 451.112 443.001 448.155C446.71 445.633 452.265 443.175 459.851 443.147C471.599 443.102 478.786 449.644 481.63 452.894C482.628 454.034 483.522 455.266 484.272 456.583C486.454 460.415 490.761 470.323 490.807 488.905C490.85 506.522 486.376 517.27 483.754 522.05C482.644 524.074 481.461 526.096 479.957 527.848C477.196 531.067 471.12 535.823 459.4 535.646C450.092 535.505 444.35 532.548 441.001 529.784C437.783 527.128 435.193 523.513 433.4 519.746Z" fill="white"/>
<path d="M547.95 546.147H532.764V432.959H552.81L599.786 528.531L597.964 432.959H612.745V546.147H591.687L545.723 451.182L547.95 546.147Z" fill="white"/>
<path d="M885.071 546.147H869.885V432.959H889.931L936.907 528.531L935.085 432.959H949.866V546.147H928.808L882.844 451.182L885.071 546.147Z" fill="white"/>
<path d="M843.468 432.476L840.884 445.16H797.429V482.038H835.482V494.488H797.429V533.949H843.468V545.929H781.692V432.476H843.468Z" fill="white"/>
<path d="M1130.93 432.476L1128.34 445.16H1084.89V482.038H1122.94V494.488H1084.89V533.949H1130.93V545.929H1069.15V432.476H1130.93Z" fill="white"/>
<path fill-rule="evenodd" clip-rule="evenodd" d="M1156.08 545.995H1171.86V497.873H1189.76L1216.9 545.995H1235.77L1204.97 495.178C1204.97 495.178 1234.81 483.427 1228.92 458.131C1223.06 432.944 1195.77 432.813 1195.54 432.813H1156.08V545.995ZM1172.08 444.947V485.525H1192.82C1192.82 485.525 1213.26 484.311 1212.86 464.781C1212.45 445.25 1192.82 444.947 1192.82 444.947H1172.08Z" fill="white"/>
<path d="M489.023 631.296H468.996C468.996 631.296 459.633 631.296 459.739 621.182C459.844 611.067 468.996 611.067 468.996 611.067H528.516C528.516 611.067 537.784 611.067 537.798 621.182C537.811 631.296 528.516 631.296 528.516 631.296H508.847V701.288C508.847 701.288 508.847 709.102 498.853 708.99C488.858 708.878 489.023 701.288 489.023 701.288V631.296Z" fill="white"/>
<path d="M238.705 668.09V617.75C238.705 617.75 238.705 609.386 228.986 609.28C219.266 609.174 218.818 617.75 218.818 617.75C218.818 617.75 218.262 659.473 218.818 670.628C219.375 681.783 226.276 691.395 226.276 691.395C226.276 691.395 235.227 708.086 255.658 708.086C271.658 708.086 280.786 697.85 283.993 693.41C284.935 692.106 285.663 690.669 286.357 689.217L286.541 688.832C289.89 681.831 292.189 674.376 293.365 666.705C293.936 662.988 294.24 659.235 294.276 655.475L294.638 617.75C294.638 617.75 294.638 609.28 285.105 609.28C275.571 609.28 274.18 617.75 274.18 617.75L272.886 668.09C272.886 668.09 270.031 687.588 255.674 687.742C241.318 687.897 238.705 668.09 238.705 668.09Z" fill="white"/>
</svg>
