<svg width="690" height="663" viewBox="0 0 690 663" fill="none" xmlns="http://www.w3.org/2000/svg">
<path d="M469.573 39.3614C466.008 39.3614 463.117 42.2579 463.117 45.8308V124.155L357.504 46.3719C352.212 42.4744 345.01 42.4617 339.704 46.3405L60.14 250.722L134.816 252.658V600.689C134.816 611.408 143.488 620.097 154.184 620.097H224.954V658.913H154.184C122.094 658.913 96.0802 632.845 96.0802 600.689V290.483L27.537 288.706C0.839485 288.013 -9.8028 253.806 11.7721 238.034L316.874 14.9826C335.823 1.12957 361.544 1.17496 380.444 15.0947L424.381 47.4539V45.8308C424.381 20.8203 444.614 0.545166 469.573 0.545166H515.535C540.494 0.545166 560.727 20.8202 560.727 45.8308V144.356L673.977 226.259C683.476 233.129 689.104 244.154 689.104 255.893C689.104 276.077 672.775 292.44 652.633 292.44H601.808V420.353H563.072V253.623H645.623L521.991 164.212V45.8308C521.991 42.2579 519.101 39.3614 515.535 39.3614H469.573Z" fill="white"/>
<path d="M281.499 649.979C281.499 657.125 275.563 662.917 268.24 662.917C260.917 662.917 254.981 657.125 254.981 649.979C254.981 642.833 260.917 637.04 268.24 637.04C275.563 637.04 281.499 642.833 281.499 649.979Z" fill="white"/>
<path d="M316.592 232.454V291.984H299.097V232.454H291.632V216.091H299.097V188.274H316.592V216.091H330.2V232.454H316.592Z" fill="white"/>
<path fill-rule="evenodd" clip-rule="evenodd" d="M204.403 319.047H224.484C238.203 319.047 248.111 321.631 254.209 326.797C260.934 332.548 264.296 340.14 264.296 349.575C264.296 356.943 262.189 363.277 257.975 368.579C253.76 373.88 248.201 377.272 241.297 378.754L273.442 423.097H252.554L222.897 380.507H221.794V423.097H204.403V319.047ZM221.794 366.827H225.049C239.889 366.827 247.309 361.143 247.309 349.777C247.309 339.129 240.091 333.806 225.654 333.806H221.794V366.827Z" fill="white"/>
<path d="M220.072 464.918H261.7V450.16H204.403V554.209H261.7V539.451H220.072V504.678H260.49V489.92H220.072V464.918Z" fill="white"/>
<path d="M296.222 619.611C296.222 643.832 313.576 660.29 337.747 660.29C353.552 660.29 367.032 653.769 373.23 638.863L355.876 629.858C352.157 638.553 345.805 642.279 337.592 642.279C325.352 642.279 316.21 632.963 316.21 619.611C316.21 605.947 325.197 596.786 337.283 596.786C344.875 596.786 351.228 600.668 354.791 607.81L371.99 598.494C366.257 586.384 353.242 578.776 337.128 578.776C313.731 578.776 296.222 595.389 296.222 619.611Z" fill="white"/>
<path fill-rule="evenodd" clip-rule="evenodd" d="M384.698 619.611C384.698 643.832 402.827 660.29 426.223 660.29C449.775 660.29 467.748 643.832 467.748 619.611C467.748 595.389 449.775 578.776 426.223 578.776C402.827 578.776 384.698 595.389 384.698 619.611ZM447.606 619.611C447.606 632.963 438.619 642.279 426.223 642.279C413.828 642.279 404.686 632.963 404.686 619.611C404.686 606.102 413.828 596.942 426.223 596.942C438.619 596.942 447.606 606.102 447.606 619.611Z" fill="white"/>
<path d="M578.152 578.776C595.816 578.776 605.113 590.11 605.113 612.313V658.582H585.28V616.039C585.28 602.687 580.941 596.631 571.8 596.631C562.193 596.631 555.995 605.637 555.995 615.884V658.582H536.162V616.039C536.162 602.687 531.669 596.631 522.682 596.631C512.921 596.631 506.878 605.637 506.878 617.592V658.582H487.045V580.484H506.568V591.973C511.371 583.123 519.893 578.776 529.81 578.776C540.501 578.776 548.093 583.589 551.967 592.905C559.404 582.347 569.011 578.776 578.152 578.776Z" fill="white"/>
<path fill-rule="evenodd" clip-rule="evenodd" d="M363.661 391.816H307.919C308.398 398.218 310.474 403.313 314.148 407.101C317.821 410.835 322.533 412.703 328.283 412.703C332.755 412.703 336.455 411.636 339.384 409.502C342.259 407.368 345.533 403.42 349.206 397.658L364.38 406.141C362.037 410.142 359.561 413.583 356.953 416.464C354.344 419.291 351.549 421.639 348.567 423.506C345.586 425.32 342.365 426.654 338.904 427.507C335.444 428.361 331.69 428.788 327.644 428.788C316.038 428.788 306.721 425.053 299.693 417.584C292.666 410.062 289.152 400.085 289.152 387.655C289.152 375.331 292.559 365.355 299.374 357.726C306.242 350.203 315.346 346.442 326.686 346.442C338.132 346.442 347.183 350.097 353.838 357.405C360.44 364.661 363.741 374.718 363.741 387.575L363.661 391.816ZM345.213 377.092C342.711 367.489 336.668 362.687 327.085 362.687C324.902 362.687 322.853 363.034 320.936 363.727C319.019 364.368 317.262 365.328 315.665 366.608C314.121 367.835 312.79 369.329 311.672 371.09C310.554 372.85 309.702 374.851 309.117 377.092H345.213Z" fill="white"/>
<path fill-rule="evenodd" clip-rule="evenodd" d="M463.762 348.603H445.714V357.646C438.526 350.177 430.407 346.442 421.357 346.442C410.868 346.442 402.137 350.337 395.163 358.126C388.188 365.915 384.701 375.651 384.701 387.335C384.701 399.232 388.188 409.155 395.163 417.104C402.19 424.893 411.081 428.788 421.836 428.788C430.354 428.788 438.313 425.32 445.714 418.384V426.547H463.762V348.603ZM409.058 405.58C405.065 400.886 403.069 394.804 403.069 387.335C403.069 380.346 405.118 374.477 409.218 369.729C413.371 365.035 418.535 362.687 424.711 362.687C431.259 362.687 436.583 365.008 440.683 369.649C444.782 374.397 446.832 380.426 446.832 387.735C446.832 395.044 444.782 401.072 440.683 405.821C436.583 410.409 431.206 412.703 424.551 412.703C418.322 412.703 413.158 410.329 409.058 405.58Z" fill="white"/>
<path d="M502.608 319.84V426.547H488.423V319.84H502.608Z" fill="white"/>
<path d="M309.163 498.965L323.626 491.251C318.909 481.225 311.703 476.212 302.009 476.212C295.426 476.212 289.827 478.368 285.213 482.68C280.704 486.991 278.449 492.446 278.449 499.043C278.449 504.03 279.77 508.107 282.414 511.276C284.488 513.769 288.065 516.263 293.145 518.756C294.959 519.639 296.748 520.496 298.51 521.328C300.273 522.159 302.035 523.016 303.798 523.899C308.359 526.6 310.64 529.509 310.64 532.626C310.64 538.028 307.686 540.729 301.776 540.729C298.821 540.729 296.281 539.742 294.156 537.768C293.067 536.782 291.486 534.47 289.412 530.834L274.483 537.768C279.77 550.184 288.764 556.391 301.465 556.391C308.878 556.391 315.202 554.054 320.438 549.378C325.829 544.444 328.525 538.314 328.525 530.99C328.525 525.276 326.918 520.73 323.704 517.354C320.49 513.977 314.243 510.289 304.964 506.289C298.225 503.432 294.855 500.549 294.855 497.64C294.855 495.978 295.426 494.627 296.566 493.588C297.707 492.498 299.08 491.952 300.687 491.952C304.057 491.952 306.882 494.29 309.163 498.965Z" fill="white"/>
<path d="M362.35 494.679V554.209H344.854V494.679H337.389V478.316H344.854V450.499H362.35V478.316H375.957V494.679H362.35Z" fill="white"/>
<path fill-rule="evenodd" clip-rule="evenodd" d="M462.658 478.316H445.084V487.121C438.086 479.849 430.181 476.212 421.368 476.212C411.156 476.212 402.654 480.005 395.863 487.589C389.072 495.173 385.677 504.653 385.677 516.029C385.677 527.613 389.072 537.275 395.863 545.015C402.706 552.599 411.363 556.391 421.835 556.391C430.129 556.391 437.879 553.015 445.084 546.262V554.209H462.658V478.316ZM409.393 533.795C405.505 529.223 403.561 523.302 403.561 516.029C403.561 509.224 405.557 503.51 409.549 498.887C413.592 494.316 418.62 492.03 424.634 492.03C431.01 492.03 436.194 494.29 440.185 498.809C444.177 503.432 446.173 509.302 446.173 516.419C446.173 523.535 444.177 529.405 440.185 534.028C436.194 538.496 430.958 540.729 424.478 540.729C418.413 540.729 413.385 538.418 409.393 533.795Z" fill="white"/>
<path d="M502.781 494.679V554.209H485.285V494.679H477.82V478.316H485.285V450.499H502.781V478.316H516.388V494.679H502.781Z" fill="white"/>
<path fill-rule="evenodd" clip-rule="evenodd" d="M544.381 520.393H598.656L598.734 516.263C598.734 503.744 595.52 493.952 589.092 486.887C582.612 479.771 573.8 476.212 562.654 476.212C551.613 476.212 542.748 479.875 536.061 487.199C529.426 494.627 526.108 504.341 526.108 516.341C526.108 528.444 529.529 538.158 536.372 545.482C543.215 552.755 552.287 556.391 563.588 556.391C567.527 556.391 571.182 555.976 574.551 555.144C577.921 554.313 581.057 553.015 583.96 551.248C586.863 549.43 589.585 547.145 592.125 544.392C594.665 541.586 597.075 538.236 599.356 534.34L584.582 526.081C581.005 531.691 577.817 535.535 575.018 537.613C572.167 539.69 568.564 540.729 564.21 540.729C558.611 540.729 554.023 538.911 550.446 535.275C546.87 531.587 544.848 526.626 544.381 520.393ZM563.043 492.03C572.374 492.03 578.258 496.705 580.694 506.055H545.548C546.118 503.874 546.947 501.926 548.036 500.212C549.125 498.497 550.421 497.043 551.924 495.848C553.479 494.601 555.19 493.666 557.056 493.043C558.922 492.368 560.918 492.03 563.043 492.03Z" fill="white"/>
<path fill-rule="evenodd" clip-rule="evenodd" d="M415.857 216.091H398.284V224.896C391.286 217.623 383.38 213.987 374.568 213.987C364.355 213.987 355.854 217.779 349.063 225.363C342.272 232.947 338.877 242.427 338.877 253.804C338.877 265.388 342.272 275.049 349.063 282.789C355.906 290.374 364.563 294.166 375.034 294.166C383.328 294.166 391.078 290.789 398.284 284.036V291.984H415.857V216.091ZM362.593 271.569C358.705 266.998 356.761 261.076 356.761 253.804C356.761 246.999 358.757 241.285 362.748 236.661C366.792 232.09 371.82 229.805 377.833 229.805C384.21 229.805 389.394 232.064 393.385 236.583C397.377 241.207 399.372 247.077 399.372 254.193C399.372 261.31 397.377 267.18 393.385 271.803C389.394 276.27 384.158 278.504 377.678 278.504C371.613 278.504 366.585 276.192 362.593 271.569Z" fill="white"/>
<path d="M206.165 266.667V189.768H223.381V266.667C223.381 269.142 223.85 270.415 224.299 271.043C226.69 274.387 231.436 279.045 240.167 279.045C248.897 279.045 253.644 274.387 256.035 271.043C256.484 270.415 256.952 269.142 256.952 266.667V189.768H274.168V266.667C274.168 270.857 273.454 276.3 270.03 281.09C265.665 287.196 256.305 296.297 240.167 296.297C224.029 296.297 214.669 287.196 210.304 281.09C206.879 276.3 206.165 270.857 206.165 266.667Z" fill="white"/>
<path d="M437.721 292.415V185.023H454.937V222.099C456.964 220.778 459.14 219.645 461.447 218.728C468.984 215.731 477.414 215.937 484.796 219.3L485.993 219.845C497.748 225.199 505.294 236.943 505.294 249.882V292.415H488.078V249.882C488.078 243.708 484.477 238.105 478.869 235.551L477.672 235.005C474.55 233.583 470.984 233.496 467.797 234.763C460.294 237.747 455.368 245.017 455.368 253.105V292.073H454.937V292.415H437.721Z" fill="white"/>
</svg>
