<?xml version="1.0" encoding="UTF-8"?>
<svg id="Layer_1" data-name="Layer 1" xmlns="http://www.w3.org/2000/svg" version="1.1" viewBox="0 0 300 48">
  <defs>
    <style>
      .cls-1 {
        fill: #FFF;
      }

      .cls-1, .cls-2 {
        stroke-width: 0px;
      }

      .cls-2 {
        fill: #FFF;
      }
    </style>
  </defs>
  <path class="cls-2" d="M28.8,4.1l17.5,39.8h-10.3l-3.8-9.2H15.1l-3.8,9.2H1L18.3,4.1h10.4ZM17.7,28.3h11.8l-5.9-14.5-5.9,14.5Z"/>
  <path class="cls-2" d="M89.4,24c0,11.1-7.9,20.4-22.2,20.4s-22-9.6-22-20.4S51.9,3.6,67.4,3.6s22,9,22,20.4ZM55.5,24.1c0,6.9,4.8,11.6,11.7,11.6s11.9-4.4,11.9-11.7-4.2-11.6-11.8-11.6-11.8,4.8-11.8,11.7Z"/>
  <path class="cls-2" d="M104,4.1v21.6c0,6.5,3.3,10.2,9.7,10.2s9.6-3.1,9.6-10.1V4.1h10v21.9c0,11.8-7.3,18.4-19.7,18.4s-19.8-6.9-19.8-18.2V4.1h10Z"/>
  <path class="cls-2" d="M161.5,4.1l17.5,39.8h-10.3l-3.8-9.2h-17.1l-3.8,9.2h-10.3l17.3-39.8h10.4ZM150.5,28.3h11.8l-5.9-14.5-5.9,14.5Z"/>
  <path class="cls-1" d="M175.7,4.1h3.1l14,33.8h0l13.9-33.8h3.1l-16.7,40.4h-.6l-16.8-40.4Z"/>
  <path class="cls-1" d="M234.3,4.1v2.7h-17.9v15.6h17.4v2.8h-17.4v15.9h18.4v2.7h-21.5V4.1h20.9Z"/>
  <path class="cls-1" d="M279.7,23.8c0,11.5-8.4,20.6-20.8,20.6s-20.4-9.3-20.4-20.1,8.4-20.7,20.4-20.7,20.7,9.4,20.7,20.2ZM241.8,24.1c0,9.9,7.6,17.5,17.1,17.4,11.7,0,17.7-9,17.7-17.5s-6.7-17.5-17.3-17.5-17.6,8.2-17.6,17.6Z"/>
  <path class="cls-1" d="M292.1,1c3.8,0,6.9,3.1,6.9,7s-3,6.9-6.9,6.9-7-3-7-6.9,3-7,7-7ZM292.1,14c3.4,0,6-2.8,6-6s-2.7-6-6-6-6,2.7-6,6,2.7,6,6,6ZM288.8,4.1h3.8c1.7,0,2.7.8,2.7,2.1s-.9,2-2.2,2.1c.7.3,1,.6,1.5,1.4l1.3,2.1h-2.3l-1-1.8c-.5-1-.7-1.1-1.4-1.1h-.4v2.9h-2v-7.7ZM291.7,7.5c.8,0,1.4-.3,1.4-1.1s-.5-1-1.3-1h-.9v2.1h.9Z"/>
  <path class="cls-2" d="M67.8,26.8c1.2,4.3,5.4,15.5,11.2,20l9.6-1.1v-1.1c-5-2-8.4-6.2-9.6-10.2-2.6-.8-8.1-3.4-11.2-7.7Z"/>
</svg>