<svg version="1.1" id="Layer_1" xmlns="http://www.w3.org/2000/svg" xmlns:xlink="http://www.w3.org/1999/xlink" x="0px" y="0px"
	 width="100%" viewBox="0 0 400 298" enable-background="new 0 0 400 298" xml:space="preserve">


<path fill="#ECECEC" opacity="1.000000" stroke="none" 
	d="
M136.042404,182.065598 
	C127.618080,183.630539 123.759514,180.034363 120.414253,172.768372 
	C110.686516,151.639511 99.941902,130.978882 89.604851,110.130264 
	C89.024017,108.958794 88.521500,107.748489 87.839745,106.240410 
	C110.781448,101.086906 133.454971,95.993027 156.128799,90.900467 
	C179.475342,85.656837 202.813919,80.377083 226.181488,75.228905 
	C228.542618,74.708717 231.197174,74.456604 233.517471,74.971947 
	C279.905609,85.274895 326.264618,95.709045 373.067963,106.215134 
	C372.586060,107.522652 372.267059,108.718376 371.727234,109.804337 
	C360.484772,132.420715 349.131927,154.982925 338.043213,177.674271 
	C336.302490,181.236404 334.202362,182.161423 330.409637,182.154160 
	C265.784882,182.030243 201.159836,182.065460 136.042404,182.065598 
M221.618500,80.268692 
	C222.743591,79.843475 223.868683,79.418259 225.620636,79.273224 
	C226.744431,78.845909 227.868225,78.418594 229.721237,77.993309 
	C231.816223,78.326546 233.911209,78.659790 236.122208,79.611374 
	C236.707047,80.022575 237.291870,80.433769 237.876709,80.844971 
	C238.058563,80.529999 238.240417,80.215034 238.422272,79.900063 
	C237.612595,79.602188 236.802933,79.304314 235.861282,78.293747 
	C233.611588,77.356422 231.447586,74.335960 228.395187,77.700478 
	C227.265701,78.136017 226.136200,78.571556 224.340027,78.932144 
	C223.228928,79.290253 222.117844,79.648361 220.372513,80.049149 
	C219.785690,80.486916 219.198868,80.924683 218.612030,81.362442 
	C218.888916,81.619736 219.165787,81.877029 219.442657,82.134323 
	C219.959686,81.420555 220.476715,80.706795 221.618500,80.268692 
M165.136902,92.872307 
	C158.356613,94.371574 151.576340,95.870834 143.977798,97.422302 
	C139.164352,98.562828 134.350922,99.703362 128.463974,101.098251 
	C134.119675,103.668869 139.038788,105.295937 143.308136,107.963120 
	C154.619537,115.029663 165.813629,115.681801 178.507568,111.118256 
	C192.624878,106.043007 207.447388,102.929329 223.158524,98.634888 
	C213.660309,93.971130 205.310455,89.621635 196.705399,85.855202 
	C194.970016,85.095619 192.267441,86.545776 189.796310,87.495979 
	C190.529510,87.731087 191.262711,87.966194 192.773010,88.040390 
	C194.009674,88.295753 195.246323,88.551117 195.879211,89.069229 
	C195.585968,89.390038 195.292709,89.710846 194.521088,90.398193 
	C177.687042,94.635101 160.864853,98.920570 144.002960,103.043571 
	C142.034271,103.524956 139.846161,103.108917 137.759766,103.108917 
	C137.723022,102.566597 137.686279,102.024269 137.649551,101.481949 
	C140.095322,100.735138 142.541107,99.988327 145.823120,99.185013 
	C149.473267,98.336098 153.167831,97.639793 156.760803,96.594368 
	C160.199997,95.593697 163.533646,94.230286 167.601578,93.086586 
	C168.585587,93.228584 169.569611,93.370583 171.351089,93.627663 
	C169.200699,90.676003 167.700012,89.858574 165.136902,92.872307 
M302.188934,93.853615 
	C295.848450,92.593849 289.507965,91.334084 282.554230,89.634888 
	C278.115936,88.750542 273.677643,87.866196 268.949097,86.323090 
	C267.372772,86.126465 265.494720,85.274323 264.268616,85.838608 
	C255.723053,89.771461 247.312592,93.997826 238.411957,98.348579 
	C239.554199,98.902077 239.979080,99.194809 240.448883,99.323105 
	C259.673401,104.573059 278.898926,109.819565 298.138336,115.014519 
	C299.194183,115.299629 300.543549,115.533165 301.463531,115.127258 
	C311.519196,110.690460 321.516510,106.121414 332.919617,100.959084 
	C325.621216,99.453781 319.806732,98.254539 313.644531,96.737656 
	C313.176575,96.683228 312.708588,96.628792 311.813232,95.875793 
	C308.867340,95.253685 305.921478,94.631584 302.188934,93.853615 
M247.918335,82.911461 
	C248.623749,83.154037 249.329163,83.396614 250.034576,83.639198 
	C249.997513,84.080467 249.960449,84.521744 249.923386,84.963013 
	C248.337112,84.963013 246.601761,85.389000 245.188568,84.894424 
	C235.452499,81.487045 225.806564,81.315407 216.044662,84.828362 
	C214.567032,85.360123 212.681320,84.757896 210.984360,84.680206 
	C211.000351,84.262238 211.016342,83.844269 211.032333,83.426308 
	C211.973068,83.261986 212.913788,83.097664 214.502762,82.955963 
	C214.853806,82.528770 215.204834,82.101570 215.555878,81.674377 
	C214.988281,81.472214 214.420670,81.270050 213.073730,81.110992 
	C210.088257,81.811897 207.102768,82.512810 202.818039,83.518745 
	C208.785004,86.370155 213.968903,88.184868 218.416519,91.116592 
	C226.591232,96.505089 234.137665,96.947487 242.412292,91.231323 
	C246.865448,88.155052 252.210510,86.369888 258.367554,83.420425 
	C253.598282,82.421135 250.376236,81.746017 246.504669,81.043175 
	C246.151611,81.468765 245.798538,81.894356 245.445480,82.319954 
	C246.014252,82.523254 246.583038,82.726555 247.918335,82.911461 
M185.558167,139.961578 
	C189.031082,144.936935 193.740097,146.090820 199.730530,145.973694 
	C219.544647,145.586304 239.376602,145.560211 259.189789,145.970154 
	C266.282257,146.116913 271.863281,144.913971 276.567444,139.059509 
	C282.112549,132.158508 288.495392,125.930618 294.440887,119.491127 
	C294.647369,119.612419 294.259003,119.270149 293.808685,119.136169 
	C273.735107,113.163986 253.673843,107.148628 233.551010,101.346855 
	C231.481827,100.750259 228.924667,101.021179 226.792816,101.609840 
	C217.662140,104.131050 208.606491,106.923828 199.522507,109.614334 
	C188.252319,112.952339 176.981201,116.287132 166.561020,119.371559 
	C172.732651,126.075890 178.892975,132.767944 185.558167,139.961578 
M213.500397,150.624969 
	C207.026932,150.624969 200.553452,150.624969 193.740540,150.624969 
	C191.394318,160.003555 189.110611,169.132217 186.753494,178.554321 
	C216.080826,178.554321 244.946152,178.554321 274.326996,178.554321 
	C271.922638,169.078537 269.609436,159.961899 267.240295,150.624939 
	C249.422333,150.624939 231.961349,150.624939 213.500397,150.624969 
M326.065613,152.408569 
	C330.865234,152.909744 335.658905,153.488068 340.468719,153.856461 
	C341.634003,153.945694 343.530457,153.726334 343.942261,152.998825 
	C348.543579,144.869873 352.919586,136.613434 357.602692,127.934662 
	C339.420898,125.571640 322.116547,123.295319 304.797913,121.133156 
	C303.639404,120.988518 301.956543,121.313011 301.220917,122.087433 
	C293.571320,130.140427 286.066040,138.330490 277.824677,147.234497 
	C294.222290,148.996429 309.690521,150.658508 326.065613,152.408569 
M152.051559,121.707993 
	C136.012573,123.754913 119.973579,125.801842 103.410927,127.915604 
	C107.781189,136.037277 111.892113,143.257034 115.557693,150.696198 
	C117.020386,153.664703 118.765472,154.215042 121.792152,153.862320 
	C134.686737,152.359528 147.609253,151.097534 160.518707,149.720764 
	C167.759430,148.948563 174.994568,148.123840 183.196655,147.216034 
	C175.822433,139.274002 168.887634,132.162720 162.407608,124.658722 
	C159.629929,121.442131 156.859589,120.209236 152.051559,121.707993 
M327.071320,159.518875 
	C309.534424,156.710815 291.997498,153.902756 273.700317,150.972961 
	C276.540436,160.097275 279.059479,168.484375 281.857971,176.777161 
	C282.178131,177.725861 284.059357,178.720963 285.220520,178.725433 
	C299.379150,178.780197 313.538757,178.677658 327.697083,178.523697 
	C328.726990,178.512497 330.258484,178.085052 330.692871,177.344452 
	C333.672729,172.263794 336.422028,167.047913 339.461334,161.480377 
	C335.140900,160.792114 331.537903,160.218140 327.071320,159.518875 
M133.238174,178.573868 
	C147.059143,178.653809 160.880402,178.792908 174.700714,178.729233 
	C176.211777,178.722275 178.706253,177.895447 179.069244,176.861008 
	C181.973801,168.583511 184.474823,160.164398 187.356369,150.968582 
	C165.066208,154.534607 143.530487,157.979950 121.531494,161.499405 
	C123.424232,164.943268 124.789528,167.778061 126.478279,170.404922 
	C128.292007,173.226181 130.409561,175.852097 133.238174,178.573868 
M128.570633,120.015251 
	C135.621353,119.112976 142.672073,118.210701 149.722794,117.308418 
	C140.523865,112.093193 131.327667,107.918739 122.108543,103.795586 
	C121.242882,103.408424 120.153252,102.993080 119.301682,103.185173 
	C110.791542,105.104912 102.309540,107.149399 93.368820,109.265404 
	C95.698372,113.654930 97.618233,117.690552 99.981537,121.447205 
	C100.614220,122.452896 102.660988,123.191048 103.955269,123.056686 
	C111.880875,122.233902 119.776779,121.124886 128.570633,120.015251 
M314.412964,114.834900 
	C313.359894,115.433472 312.306824,116.032036 310.209869,117.223946 
	C327.006287,119.355835 342.608704,121.365494 358.227448,123.239548 
	C359.086761,123.342659 360.494141,122.556824 360.943634,121.778778 
	C363.247742,117.790428 365.321411,113.668953 367.655762,109.253296 
	C364.747314,108.565559 362.235016,108.276871 359.960480,107.383125 
	C347.116333,102.336105 334.922974,103.093552 323.241516,110.789398 
	C320.776093,112.413635 317.838837,113.321640 314.412964,114.834900 
M181.392303,88.023003 
	C180.025848,89.000687 178.659393,89.978371 177.292953,90.956047 
	C177.504654,91.246552 177.716370,91.537048 177.928085,91.827545 
	C179.779785,91.354103 181.631485,90.880661 183.967087,90.283493 
	C183.199615,89.400764 182.644775,88.762611 181.392303,88.023003 
M241.600052,80.079918 
	C241.373245,80.606987 241.146454,81.134064 240.919647,81.661140 
	C241.651535,81.694778 242.383438,81.728416 243.115311,81.762062 
	C242.822479,81.215302 242.529633,80.668541 241.600052,80.079918 
M187.234619,88.375580 
	C186.729538,88.604851 186.214737,88.817307 185.736786,89.093521 
	C185.696060,89.117065 185.900879,89.565483 185.991638,89.816528 
	C186.526062,89.480583 187.060471,89.144638 187.234619,88.375580 
M173.416000,91.700455 
	C173.634415,91.992996 173.852814,92.285530 174.071213,92.578056 
	C174.258804,92.400108 174.446396,92.222168 174.633987,92.044228 
	C174.350235,91.814346 174.066467,91.584457 173.416000,91.700455 
z"/>
<path fill="#F5F5F5" opacity="1.000000" stroke="none" 
	d="
M313.959930,191.832642 
	C293.514923,191.832642 273.069946,191.832642 252.030106,191.832642 
	C253.023010,194.688324 253.904129,197.222534 254.878647,200.025360 
	C238.643967,200.025360 222.720657,200.025360 206.087601,200.025360 
	C207.136795,197.333221 208.059982,194.964371 209.144119,192.182556 
	C207.857635,192.026123 206.816422,191.899506 204.931763,191.762848 
	C197.112961,191.743179 190.137604,191.728287 183.162262,191.725174 
	C173.197296,191.720718 163.231628,191.670685 153.268372,191.801178 
	C152.152863,191.815781 148.900055,190.270874 150.023773,193.948853 
	C142.963562,193.160599 136.324219,192.480560 129.684860,191.800507 
	C127.706894,191.800507 125.728935,191.800507 123.122597,191.800507 
	C123.122597,199.399979 123.122597,206.908936 123.122597,214.417908 
	C122.723877,214.511917 122.325157,214.605911 121.926430,214.699921 
	C120.354424,211.388428 118.763046,208.085983 117.213486,204.764038 
	C105.903618,180.517899 94.592865,156.272171 83.304428,132.016068 
	C80.405632,125.787270 81.592682,112.004326 85.539352,107.835632 
	C89.245308,115.358780 92.877846,122.785759 96.556465,130.189850 
	C104.993286,147.170914 113.501099,164.117020 121.850060,181.141098 
	C123.092911,183.675339 124.419487,184.797913 127.452858,184.793350 
	C196.082230,184.690216 264.711823,184.688583 333.341187,184.794357 
	C336.565155,184.799332 337.932373,183.561340 339.259705,180.869766 
	C351.240723,156.574707 363.367523,132.351532 376.708893,107.757141 
	C377.522186,110.367256 378.752075,112.927437 379.072113,115.596687 
	C380.105927,124.219765 377.996460,132.077164 374.162628,139.995209 
	C362.360260,164.370697 351.212524,189.063126 339.796082,213.625717 
	C339.593994,214.060486 339.212128,214.411697 338.196136,215.742218 
	C338.196136,207.184845 338.196136,199.558517 338.196136,191.765076 
	C335.537323,191.765076 333.560272,191.765076 330.855133,191.833313 
	C324.738007,191.878586 319.348969,191.855606 313.959930,191.832642 
z"/>
<path fill="#EEEEEE" opacity="1.000000" stroke="none" 
	d="
M129.220581,192.335449 
	C136.324219,192.480560 142.963562,193.160599 150.522354,194.012604 
	C169.269928,194.185318 187.098053,194.186035 204.926193,194.186768 
	C203.708405,201.607468 202.490601,209.028183 201.183090,216.995514 
	C197.225616,216.995514 192.185226,216.995514 186.873840,216.995514 
	C186.873840,211.642288 186.873840,206.348755 186.873840,200.649918 
	C183.087967,200.649918 179.557388,200.649918 175.446198,200.649918 
	C175.446198,205.729355 175.446198,210.786789 175.446198,215.975616 
	C158.480194,215.975616 142.078735,215.975616 125.104134,215.975616 
	C125.104134,209.500702 124.883072,203.219009 125.270493,196.975067 
	C125.359528,195.540283 127.538910,194.235184 129.220581,192.335449 
M139.289230,207.085770 
	C138.886505,210.546036 140.496887,211.069565 143.624817,209.895767 
	C143.624817,208.730377 143.898575,207.511108 143.567932,206.486954 
	C142.875580,204.342392 145.723221,200.700027 141.305527,200.377365 
	C140.778641,200.338898 139.967606,204.191132 139.289230,207.085770 
M130.113022,208.407562 
	C131.183716,209.195465 132.254410,209.983368 134.187134,211.405609 
	C134.187134,208.940109 134.330750,208.113953 134.160599,207.358475 
	C133.618484,204.951553 132.959671,202.570923 132.345947,200.180130 
	C127.762497,201.432266 131.183380,205.146439 130.113022,208.407562 
M148.892166,200.994614 
	C148.892166,204.035904 148.892166,207.077179 148.892166,210.118469 
	C149.388107,210.363434 149.884048,210.608414 150.379990,210.853378 
	C151.175995,209.685593 152.870560,208.217514 152.599472,207.406357 
	C151.787109,204.975616 155.830093,200.149857 148.892166,200.994614 
M196.708023,201.083786 
	C194.393906,199.491714 192.690811,199.408951 192.594193,202.858032 
	C192.526581,205.271133 192.581146,207.687668 192.581146,210.102661 
	C193.139893,210.366028 193.698654,210.629395 194.257401,210.892761 
	C195.122971,209.745972 196.422653,208.708984 196.747406,207.425369 
	C197.181366,205.710007 196.858948,203.803268 196.708023,201.083786 
M157.740875,202.816422 
	C157.740875,205.205734 157.740875,207.595047 157.740875,211.437592 
	C159.624817,209.926376 161.252182,209.205017 161.230988,208.535889 
	C161.143707,205.782501 160.555527,203.045013 160.151550,200.301651 
	C159.349731,200.829025 158.547928,201.356400 157.740875,202.816422 
M170.262878,209.573608 
	C170.294373,207.078812 170.528809,204.559082 170.227325,202.105194 
	C170.142548,201.415100 168.484390,200.918304 167.547913,200.332840 
	C167.275238,202.905045 166.776703,205.485382 166.868835,208.044449 
	C166.896133,208.802948 168.586472,209.501572 170.262878,209.573608 
z"/>
<path fill="#F0F0F0" opacity="1.000000" stroke="none" 
	d="
M313.414337,192.463928 
	C319.348969,191.855606 324.738007,191.878586 330.093811,191.865936 
	C331.694855,192.917236 333.329071,194.004135 335.300720,195.315445 
	C335.300720,201.884415 335.300720,208.799866 335.300720,215.942322 
	C318.856506,215.942322 302.620789,215.942322 285.976257,215.942322 
	C285.976257,210.779327 285.976257,205.846207 285.976257,200.581497 
	C282.015991,200.581497 278.460541,200.581497 274.589874,200.581497 
	C274.589874,206.013474 274.589874,211.301910 274.589874,216.980804 
	C269.255707,216.980804 264.208679,216.980804 259.252289,216.980804 
	C258.584686,209.544907 257.915527,202.091553 257.205750,194.186005 
	C263.753998,194.186005 271.195282,194.186401 278.636536,194.185913 
	C288.136383,194.185303 297.636902,194.242691 307.135498,194.133698 
	C309.050323,194.111740 310.957855,193.457794 313.414337,192.463928 
M326.396088,209.539383 
	C327.657379,209.876846 328.918671,210.214325 330.692719,210.688980 
	C330.692719,207.583176 330.930389,205.260406 330.589294,203.025986 
	C330.426453,201.959274 329.164459,201.060349 328.400299,200.085434 
	C327.715790,201.138306 326.652130,202.118988 326.434692,203.260818 
	C326.099304,205.021881 326.343506,206.893326 326.396088,209.539383 
M303.686279,209.583801 
	C303.710846,207.096680 303.903381,204.592834 303.658386,202.132553 
	C303.584137,201.386948 302.301147,200.233612 301.569214,200.231659 
	C300.852081,200.229736 299.649384,201.371582 299.510864,202.160797 
	C299.200226,203.930603 299.527985,205.801147 299.395752,207.616104 
	C299.169708,210.717972 300.804138,210.889160 303.686279,209.583801 
M290.437195,208.700851 
	C291.623871,209.403839 292.810547,210.106827 294.457397,211.082443 
	C295.173248,200.295624 295.173248,200.295624 290.444275,200.553177 
	C290.444275,202.972656 290.444275,205.424805 290.437195,208.700851 
M264.235565,201.181427 
	C264.235565,204.098206 264.235565,207.014984 264.235565,210.247360 
	C270.833221,210.786102 267.792480,205.892166 268.355774,203.419189 
	C269.013458,200.531769 267.514435,199.501755 264.235565,201.181427 
M322.101044,209.441238 
	C322.101044,206.530457 322.101044,203.619690 322.101044,200.708908 
	C321.668182,200.391357 321.235352,200.073807 320.802490,199.756271 
	C319.893524,200.813248 318.006317,202.266983 318.246063,202.858063 
	C319.247986,205.328430 314.662201,210.493317 322.101044,209.441238 
M308.832306,204.692657 
	C308.832306,206.450272 308.832306,208.207886 308.832306,209.942627 
	C313.164612,210.107056 313.265778,210.100372 312.843384,203.705032 
	C312.763062,202.489151 311.529724,201.349426 310.828400,200.174561 
	C310.163239,201.374527 309.498047,202.574509 308.832306,204.692657 
z"/>
<path fill="#DDDDDD" opacity="1.000000" stroke="none" 
	d="
M227.000305,220.225647 
	C235.321243,220.226395 243.144836,220.124283 250.960678,220.324707 
	C252.333313,220.359894 253.673431,221.663254 255.028564,222.380936 
	C253.759857,222.996078 252.496017,224.134171 251.221695,224.146027 
	C237.411392,224.274612 223.599030,224.274475 209.788727,224.146484 
	C208.511078,224.134659 207.243835,223.003021 205.971756,222.391357 
	C207.323303,221.670197 208.650146,220.387466 210.030762,220.326752 
	C215.511505,220.085693 221.009033,220.226395 227.000305,220.225647 
z"/>
<path fill="#E4E4E4" opacity="1.000000" stroke="none" 
	d="
M237.878189,203.981079 
	C239.062424,204.137207 240.873489,204.607925 240.927689,205.231384 
	C241.214478,208.529953 241.171875,211.873749 240.971909,215.185471 
	C240.926407,215.938919 239.805817,216.627441 239.180054,217.345825 
	C238.671005,216.508682 237.761368,215.689392 237.723129,214.831268 
	C237.567993,211.349380 237.680573,207.855576 237.878189,203.981079 
z"/>
<path fill="#DDDDDD" opacity="1.000000" stroke="none" 
	d="
M278.081848,208.913727 
	C278.552063,206.273376 276.464386,202.154068 281.999390,203.516693 
	C281.999390,206.679855 281.999390,209.784637 281.999390,213.176041 
	C277.865540,214.936615 278.022888,212.092636 278.081848,208.913727 
z"/>
<path fill="#E4E4E4" opacity="1.000000" stroke="none" 
	d="
M178.784546,211.628387 
	C178.786240,208.726212 178.786240,206.273651 178.786240,203.704193 
	C181.793396,202.590988 183.420914,202.985718 183.156479,206.458984 
	C183.044250,207.933014 183.300720,209.448151 183.076111,210.895966 
	C182.927704,211.852509 182.221146,212.722458 181.764481,213.631180 
	C180.770599,213.113449 179.776733,212.595718 178.784546,211.628387 
z"/>
<path fill="#E4E4E4" opacity="1.000000" stroke="none" 
	d="
M223.083588,214.510223 
	C222.382538,215.861008 221.684006,216.769531 220.985474,217.678055 
	C220.555038,217.428864 220.124619,217.179672 219.694183,216.930481 
	C219.694183,213.159561 219.594925,209.384003 219.770523,205.621277 
	C219.809814,204.779190 220.812500,203.982071 221.371643,203.164246 
	C221.943039,203.985535 222.942535,204.774658 223.007156,205.634064 
	C223.217453,208.431519 223.086014,211.254669 223.083588,214.510223 
z"/>
<path fill="#E4E4E4" opacity="1.000000" stroke="none" 
	d="
M232.151901,217.002945 
	C231.775085,212.909042 231.644882,209.102402 231.740616,205.301453 
	C231.758636,204.585220 232.676819,203.891678 233.179642,203.187668 
	C233.811584,203.777618 234.960861,204.342911 234.990341,204.961563 
	C235.163544,208.596695 235.178268,212.250443 234.959946,215.880692 
	C234.928757,216.399094 233.343018,216.824005 232.151901,217.002945 
z"/>
<path fill="#D8D8D8" opacity="1.000000" stroke="none" 
	d="
M247.011780,204.521332 
	C247.087280,208.292892 247.193344,211.621780 247.006973,214.934204 
	C246.959808,215.772598 245.980225,216.558533 245.429092,217.368591 
	C244.911407,216.528473 243.997406,215.711349 243.947098,214.844116 
	C243.764587,211.697937 243.772232,208.530823 243.903412,205.379745 
	C243.995483,203.168167 244.907257,202.148895 247.011780,204.521332 
z"/>
<path fill="#D8D8D8" opacity="1.000000" stroke="none" 
	d="
M229.120850,213.962509 
	C228.568298,215.424255 228.016968,216.396774 227.465622,217.369278 
	C226.944763,216.531036 226.025208,215.716125 225.974579,214.850388 
	C225.791016,211.710907 225.808304,208.549973 225.961853,205.407486 
	C225.999176,204.643463 226.846375,203.918991 227.321182,203.176331 
	C227.921219,203.955917 228.968781,204.697632 229.038605,205.522125 
	C229.261612,208.155975 229.121796,210.820557 229.120850,213.962509 
z"/>
<path fill="#E4E4E4" opacity="1.000000" stroke="none" 
	d="
M217.104599,213.003311 
	C216.542542,214.779907 215.980957,216.067184 215.419373,217.354462 
	C214.847839,216.085419 213.902100,214.850601 213.782211,213.540237 
	C213.527756,210.759125 213.597061,207.931793 213.778229,205.139267 
	C213.822906,204.450577 214.805252,203.822708 215.356552,203.166885 
	C215.939362,203.808182 216.967819,204.412415 217.024811,205.097473 
	C217.229248,207.554871 217.105042,210.039612 217.104599,213.003311 
z"/>
<path fill="#D8D8D8" opacity="1.000000" stroke="none" 
	d="
M211.124084,215.922745 
	C210.059875,216.065399 208.121933,215.786591 208.088074,215.357605 
	C207.828323,212.064545 207.852997,208.738556 207.997681,205.431915 
	C208.031250,204.664703 208.865891,203.932541 209.331940,203.184250 
	C209.936646,203.953552 211.016037,204.695023 211.063080,205.497040 
	C211.256775,208.798599 211.136902,212.118530 211.124084,215.922745 
z"/>
<path fill="#D8D8D8" opacity="1.000000" stroke="none" 
	d="
M250.985138,217.284668 
	C250.287643,213.123001 250.015335,209.055023 249.920914,204.982925 
	C249.907349,204.397644 250.647369,203.609024 251.241425,203.272797 
	C251.545135,203.100891 252.792923,203.763153 252.775269,203.980255 
	C252.411942,208.451752 251.927643,212.913406 250.985138,217.284668 
z"/>





<path fill="#DDDDDD" opacity="1.000000" stroke="none" 
	d="
M314.036621,98.795654 
	C317.075012,99.614197 320.113403,100.432739 323.151794,101.251289 
	C323.248901,101.625351 323.346008,101.999420 323.443085,102.373482 
	C321.669739,102.754471 319.733765,103.801666 318.147888,103.414612 
	C299.937805,98.970215 281.780945,94.307945 263.509613,88.916634 
	C265.308075,88.501007 267.106537,88.085381 269.072174,87.325806 
	C273.677643,87.866196 278.115936,88.750542 282.927002,90.210159 
	C289.310394,92.505959 295.311066,94.264153 301.356689,95.851288 
	C301.710724,95.944237 302.427551,94.655327 302.975586,94.009476 
	C305.921478,94.631584 308.867340,95.253685 311.960815,96.544708 
	C312.751129,97.740959 313.393890,98.268303 314.036621,98.795654 
z"/>


<path fill="#DDDDDD" opacity="1.000000" stroke="none" 
	d="
M181.741119,88.073730 
	C182.644775,88.762611 183.199615,89.400764 183.967087,90.283493 
	C181.631485,90.880661 179.779785,91.354103 177.928085,91.827545 
	C177.716370,91.537048 177.504654,91.246552 177.292953,90.956047 
	C178.659393,89.978371 180.025848,89.000687 181.741119,88.073730 
z"/>
<path fill="#D8D8D8" opacity="1.000000" stroke="none" 
	d="
M236.006195,78.993034 
	C233.911209,78.659790 231.816223,78.326546 229.360840,77.996933 
	C229.000427,78.000565 229.008118,78.011826 229.008118,78.011826 
	C231.447586,74.335960 233.611588,77.356422 235.930634,78.646873 
	C236.000000,79.000000 236.006195,78.993034 236.006195,78.993034 
z"/>
<path fill="#DDDDDD" opacity="1.000000" stroke="none" 
	d="
M167.257629,93.056442 
	C166.913681,93.026306 166.437134,92.980240 166.211456,92.900368 
	C167.700012,89.858574 169.200699,90.676003 171.351089,93.627663 
	C169.569611,93.370583 168.585587,93.228584 167.257629,93.056442 
z"/>
<path fill="#D8D8D8" opacity="1.000000" stroke="none" 
	d="
M225.006714,79.007095 
	C226.136200,78.571556 227.265701,78.136017 228.701660,77.856155 
	C229.008118,78.011826 229.000427,78.000565 228.996216,77.995926 
	C227.868225,78.418594 226.744431,78.845909 225.310318,79.136650 
	C225.000000,79.000076 225.006714,79.007095 225.006714,79.007095 
z"/>
<path fill="#D8D8D8" opacity="1.000000" stroke="none" 
	d="
M221.006744,80.006462 
	C222.117844,79.648361 223.228928,79.290253 224.673370,78.969620 
	C225.006714,79.007095 225.000000,79.000076 224.996887,78.996559 
	C223.868683,79.418259 222.743591,79.843475 221.309250,80.134346 
	C221.000000,80.000000 221.006744,80.006462 221.006744,80.006462 
z"/>
<path fill="#D8D8D8" opacity="1.000000" stroke="none" 
	d="
M241.918427,80.100845 
	C242.529633,80.668541 242.822479,81.215302 243.115326,81.762062 
	C242.383438,81.728416 241.651535,81.694778 240.919647,81.661133 
	C241.146454,81.134064 241.373245,80.606987 241.918427,80.100845 
z"/>

<path fill="#DDDDDD" opacity="1.000000" stroke="none" 
	d="
M187.414764,88.592133 
	C187.060471,89.144638 186.526062,89.480583 185.991638,89.816528 
	C185.900879,89.565483 185.696060,89.117065 185.736786,89.093521 
	C186.214737,88.817307 186.729538,88.604851 187.414764,88.592133 
z"/>
<path fill="#D8D8D8" opacity="1.000000" stroke="none" 
	d="
M235.996628,79.003220 
	C236.802933,79.304314 237.612595,79.602188 238.422272,79.900063 
	C238.240417,80.215034 238.058563,80.529999 237.876709,80.844971 
	C237.291870,80.433769 236.707047,80.022575 236.064209,79.302200 
	C236.006195,78.993034 236.000000,79.000000 235.996628,79.003220 
z"/>
<path fill="#D8D8D8" opacity="1.000000" stroke="none" 
	d="
M220.996872,79.996513 
	C220.476715,80.706795 219.959686,81.420555 219.442657,82.134323 
	C219.165787,81.877029 218.888916,81.619736 218.612030,81.362442 
	C219.198868,80.924683 219.785690,80.486916 220.689636,80.027802 
	C221.006744,80.006462 221.000000,80.000000 220.996872,79.996513 
z"/>
<path fill="#DDDDDD" opacity="1.000000" stroke="none" 
	d="
M173.599365,91.527512 
	C174.066467,91.584457 174.350235,91.814346 174.633972,92.044220 
	C174.446396,92.222168 174.258804,92.400108 174.071228,92.578064 
	C173.852814,92.285530 173.634415,91.992996 173.599365,91.527512 
z"/>
<path fill="#D8D8D8" opacity="1.000000" stroke="none" 
	d="
M214.178635,82.944649 
	C213.972885,82.507622 214.091263,82.081909 214.031342,81.362045 
	C214.420670,81.270050 214.988281,81.472214 215.555878,81.674377 
	C215.204834,82.101570 214.853806,82.528770 214.178635,82.944649 
z"/>
<path fill="#D8D8D8" opacity="1.000000" stroke="none" 
	d="
M246.829422,81.057037 
	C247.035660,81.494797 246.917160,81.918678 246.975220,82.636215 
	C246.583038,82.726555 246.014252,82.523254 245.445465,82.319946 
	C245.798538,81.894356 246.151611,81.468765 246.829422,81.057037 
z"/>
<path fill="#DDDDDD" opacity="1.000000" stroke="none" 
	d="
M189.903534,87.236557 
	C190.478104,87.339684 190.945450,87.702217 191.704346,88.133026 
	C191.262711,87.966194 190.529510,87.731087 189.903534,87.236557 
z"/>
<path fill="#DDDDDD" opacity="1.000000" stroke="none" 
	d="
M196.181091,88.937851 
	C196.709229,89.066612 196.935486,89.326752 197.161728,89.586899 
	C196.616959,89.761505 196.072174,89.936104 195.263428,90.071182 
	C195.292709,89.710846 195.585968,89.390038 196.181091,88.937851 
z"/>






<path fill="#F8F8F8" opacity="1.000000" stroke="none" 
	d="
M272.793945,132.218475 
	C262.050568,129.019485 251.715973,125.847183 241.296707,122.982834 
	C239.584061,122.512009 237.506073,123.524368 235.585281,123.621864 
	C232.340759,123.786552 228.487701,124.878296 225.995300,123.533157 
	C223.156326,122.000961 221.125137,122.450089 218.668961,123.180168 
	C208.309296,126.259468 197.996506,129.509293 187.566772,132.327393 
	C185.811859,132.801559 183.100281,132.027328 181.638260,130.837570 
	C178.106216,127.963257 175.051514,124.502357 171.302231,120.779366 
	C183.875183,117.020691 196.119263,114.333588 207.575821,109.699524 
	C223.414276,103.293022 238.421524,103.727654 254.141251,109.917511 
	C265.231018,114.284264 276.977570,116.982811 288.427612,120.436920 
	C288.559570,120.476738 288.648041,120.660789 289.480896,121.554832 
	C285.648468,125.179489 281.883759,129.007965 277.772247,132.418350 
	C276.875854,133.161880 274.739685,132.410706 272.793945,132.218475 
z"/>
<path fill="#F3F3F3" opacity="1.000000" stroke="none" 
	d="
M247.999908,174.962082 
	C228.698898,174.962082 209.897842,174.962082 190.577179,174.962082 
	C191.106796,172.751099 191.522766,171.014572 191.985886,169.081146 
	C217.548264,169.081146 242.990219,169.081146 268.912048,169.081146 
	C269.377197,170.795288 269.872833,172.621872 270.507874,174.962082 
	C262.778229,174.962082 255.639038,174.962082 247.999908,174.962082 
z"/>
<path fill="#E4E4E4" opacity="1.000000" stroke="none" 
	d="
M266.440491,160.896667 
	C267.276367,162.301743 267.701447,163.522446 268.287445,165.205261 
	C242.991348,165.205261 218.181900,165.205261 193.211914,165.205261 
	C193.029388,161.952499 194.128983,160.525574 197.695740,160.551056 
	C220.472946,160.713715 243.251526,160.680832 266.440491,160.896667 
z"/>
<path fill="#D2D2D2" opacity="1.000000" stroke="none" 
	d="
M240.000076,154.276733 
	C264.635071,154.276413 264.635071,154.276413 266.008087,157.505463 
	C242.385361,157.505463 218.917175,157.505463 195.296738,157.505463 
	C194.679779,153.659348 197.490433,154.299942 199.631638,154.294617 
	C212.921036,154.261566 226.210587,154.277222 240.000076,154.276733 
z"/>
<path fill="#F3F3F3" opacity="1.000000" stroke="none" 
	d="
M316.946136,129.853760 
	C320.834808,123.023888 326.144165,127.689476 331.766510,127.025642 
	C326.712555,134.378632 322.281372,140.932785 317.681732,147.366470 
	C317.171448,148.080231 315.676758,148.456070 314.678894,148.388992 
	C311.229004,148.157089 307.796906,147.659912 303.585083,147.174667 
	C308.263794,141.120239 312.500000,135.638428 316.946136,129.853760 
z"/>
<path fill="#F1F1F1" opacity="1.000000" stroke="none" 
	d="
M334.948425,150.641174 
	C331.593750,150.252563 328.651520,149.874908 324.766479,149.376236 
	C329.375519,142.314102 333.529053,135.652908 338.096344,129.288651 
	C338.742706,128.387985 341.415192,128.753693 343.130676,128.855698 
	C345.240265,128.981140 347.329742,129.445068 349.881042,129.831284 
	C346.151306,136.406601 342.816315,142.525177 339.189026,148.465302 
	C338.518250,149.563843 336.667206,149.941681 334.948425,150.641174 
z"/>
<path fill="#F0F0F0" opacity="1.000000" stroke="none" 
	d="
M300.020477,141.096390 
	C294.916107,147.073685 293.776398,147.349976 285.246613,144.592026 
	C291.476654,137.905960 297.254486,131.082047 303.801178,125.099556 
	C305.525452,123.523888 309.626678,124.549347 314.178741,124.293747 
	C308.858032,130.598907 304.550873,135.702972 300.020477,141.096390 
z"/>
<path fill="#F3F3F3" opacity="1.000000" stroke="none" 
	d="
M140.538239,143.447723 
	C136.855194,138.117996 133.391174,133.075897 129.879471,127.964386 
	C139.474167,124.665176 140.139847,124.839493 145.780243,132.096237 
	C149.352127,136.691681 152.906754,141.300598 156.446732,145.920609 
	C156.619324,146.145859 156.576523,146.536148 156.630188,146.850296 
	C146.373871,149.739243 144.726898,149.415894 140.538239,143.447723 
z"/>
<path fill="#F1F1F1" opacity="1.000000" stroke="none" 
	d="
M115.989639,129.003571 
	C120.851074,127.600082 123.661560,129.135910 125.925186,133.280380 
	C128.854080,138.642944 132.497360,143.615326 136.274872,149.436569 
	C132.298981,149.889053 128.903793,150.514801 125.504311,150.539032 
	C124.227234,150.548126 122.425369,149.474686 121.744072,148.357361 
	C118.207848,142.557983 114.956352,136.584961 111.285553,130.107574 
	C112.940277,129.703629 114.258942,129.381729 115.989639,129.003571 
z"/>
<path fill="#F0F0F0" opacity="1.000000" stroke="none" 
	d="
M165.966797,134.028198 
	C169.320862,137.676529 172.452377,141.049118 175.712372,144.560074 
	C167.519897,147.431503 165.986313,147.030762 160.963257,141.060638 
	C156.614471,135.891891 152.248322,130.737747 147.816177,125.489914 
	C153.910416,122.717018 158.282364,124.294052 161.741547,129.323364 
	C162.859375,130.948563 164.398071,132.284302 165.966797,134.028198 
z"/>
<path fill="#F3F3F3" opacity="1.000000" stroke="none" 
	d="
M320.556946,174.950378 
	C309.612885,174.951157 299.116028,174.722153 288.637177,175.057678 
	C284.074646,175.203781 282.766541,173.238190 282.762512,168.853989 
	C291.324493,168.853989 299.788422,169.058960 308.228943,168.705490 
	C310.261383,168.620361 313.129425,167.174530 314.026855,165.502853 
	C316.260040,161.342972 318.998322,160.292099 323.310333,161.699051 
	C325.490509,162.410400 327.867981,162.517181 331.283569,163.084579 
	C327.118225,167.085327 328.153076,174.163040 320.556946,174.950378 
z"/>
<path fill="#E7E7E7" opacity="1.000000" stroke="none" 
	d="
M286.152954,155.749634 
	C293.929199,156.987381 301.267059,158.183304 308.776581,159.407211 
	C307.260193,164.191757 304.485962,166.133316 299.531952,165.662079 
	C294.755463,165.207718 289.895081,165.405136 285.084778,165.616531 
	C281.815613,165.760178 279.924042,164.828400 280.112366,160.842316 
	C282.446167,160.729767 284.870911,160.612839 287.295654,160.495911 
	C287.425598,160.095886 287.555573,159.695862 287.685516,159.295837 
	C284.385986,158.330032 281.086426,157.364212 277.786896,156.398407 
	C277.922974,155.821869 278.059052,155.245316 278.195129,154.668777 
	C280.701599,155.015137 283.208099,155.361481 286.152954,155.749634 
z"/>
<path fill="#F3F3F3" opacity="1.000000" stroke="none" 
	d="
M150.742737,168.843689 
	C160.152863,168.849777 169.130157,168.849777 178.147308,168.849777 
	C178.505066,173.683838 176.548019,175.189209 172.028961,175.046936 
	C162.207764,174.737732 152.355392,174.635406 142.545654,175.091354 
	C137.944778,175.305176 135.449005,173.748444 133.785782,169.748337 
	C132.907211,167.635315 131.572296,165.712036 130.109406,163.108673 
	C134.311172,162.367310 137.970428,161.470642 141.674271,161.211655 
	C142.882507,161.127213 144.359589,162.542252 145.443451,163.559448 
	C147.183884,165.192841 148.699387,167.065857 150.742737,168.843689 
z"/>
<path fill="#E7E7E7" opacity="1.000000" stroke="none" 
	d="
M182.549423,155.010712 
	C181.618973,156.100891 180.431396,157.212357 179.026093,157.714691 
	C177.210938,158.363541 175.221756,158.525528 173.307510,158.897156 
	C173.347290,159.375732 173.387070,159.854309 173.426849,160.332886 
	C175.923355,160.520233 178.419861,160.707596 180.873138,160.891693 
	C181.094711,164.565201 179.525375,165.783829 176.117706,165.622375 
	C171.136230,165.386337 166.100540,165.197632 161.152344,165.667252 
	C156.286987,166.128998 153.872986,163.862747 151.988358,159.345367 
	C162.277374,157.783936 172.236435,156.272568 182.549423,155.010712 
z"/>
<path fill="#E7E7E7" opacity="1.000000" stroke="none" 
	d="
M191.025177,99.971725 
	C196.574463,98.582451 201.679123,97.052368 206.888275,96.084671 
	C209.205048,95.654289 211.732483,96.357811 214.164291,96.546661 
	C214.191757,97.097527 214.219223,97.648392 214.246689,98.199257 
	C205.690338,100.532494 197.132706,102.861000 188.578049,105.200340 
	C180.575958,107.388565 172.517868,109.398476 164.602264,111.865021 
	C160.785675,113.054291 158.018921,111.837662 154.384521,109.408989 
	C166.998383,106.154755 178.810745,103.107300 191.025177,99.971725 
z"/>
<path fill="#E4E4E4" opacity="1.000000" stroke="none" 
	d="
M197.909241,95.882996 
	C182.544357,99.733101 167.595779,103.586067 152.597473,107.234596 
	C150.787170,107.674965 148.707962,107.009872 146.753387,106.857140 
	C146.719025,106.353714 146.684647,105.850281 146.650284,105.346855 
	C154.382614,103.384750 162.114548,101.421143 169.847351,99.460930 
	C179.502441,97.013443 189.135010,94.469551 198.831436,92.198433 
	C201.025681,91.684486 203.442978,92.122833 205.757614,92.122833 
	C205.790756,92.645775 205.823883,93.168716 205.857025,93.691650 
	C203.341522,94.402443 200.826019,95.113228 197.909241,95.882996 
z"/>
<path fill="#E7E7E7" opacity="1.000000" stroke="none" 
	d="
M302.695007,111.690781 
	C300.929993,111.950027 299.411346,112.475426 298.122467,112.133881 
	C281.419434,107.707733 264.748077,103.161919 248.075775,98.620453 
	C247.637787,98.501144 247.279175,98.090446 246.809891,96.645493 
	C249.201294,96.414841 251.753311,95.522812 253.958618,96.058411 
	C271.229126,100.252861 288.433136,104.721100 306.602325,109.345306 
	C304.987579,110.348763 304.017853,110.951370 302.695007,111.690781 
z"/>
<path fill="#E4E4E4" opacity="1.000000" stroke="none" 
	d="
M269.816559,94.064529 
	C284.981384,97.883835 299.742462,101.609703 314.503540,105.335564 
	C314.546326,105.761543 314.589142,106.187523 314.631958,106.613495 
	C312.724457,106.907974 310.664215,107.825188 308.933044,107.400658 
	C291.513947,103.129166 274.148224,98.639992 256.771851,94.195023 
	C256.311798,94.077354 255.900970,93.767387 255.203125,93.412979 
	C260.285095,89.552116 264.781860,93.647392 269.816559,94.064529 
z"/>
<path fill="#ECECEC" opacity="1.000000" stroke="none" 
	d="
M108.499596,108.502823 
	C111.799721,107.710442 114.674728,106.839127 117.613113,106.463181 
	C119.449265,106.228264 121.380959,106.740120 123.269783,106.916870 
	C123.274055,107.345520 123.278336,107.774170 123.282616,108.202820 
	C119.570885,109.247353 115.859154,110.291885 111.818245,111.429054 
	C113.228172,113.887085 114.506302,116.115349 115.822517,118.410011 
	C103.758568,121.149307 106.025955,121.326775 100.561081,110.410355 
	C103.149071,109.800415 105.625168,109.216850 108.499596,108.502823 
z"/>
<path fill="#DDDDDD" opacity="1.000000" stroke="none" 
	d="
M123.913284,110.910492 
	C127.067207,110.831573 129.804901,110.831573 132.542587,110.831573 
	C125.980858,115.375626 121.883926,115.666718 119.369415,112.390404 
	C120.809151,111.901726 122.153107,111.445564 123.913284,110.910492 
z"/>
<path fill="#ECECEC" opacity="1.000000" stroke="none" 
	d="
M356.554138,109.442039 
	C358.015991,109.858231 359.089996,110.132217 360.208405,110.417534 
	C354.832611,122.450523 356.715790,120.575638 344.977234,118.588333 
	C346.404114,116.257133 347.716644,114.112808 349.296265,111.532043 
	C347.174927,110.901642 345.367188,110.342163 343.546265,109.829483 
	C341.663574,109.299416 339.768097,108.814819 337.941406,107.732491 
	C344.284790,104.464859 350.092224,108.907570 356.554138,109.442039 
z"/>
<path fill="#DDDDDD" opacity="1.000000" stroke="none" 
	d="
M341.132965,112.216553 
	C340.131714,113.255005 338.709076,114.771255 337.463074,114.637840 
	C334.424194,114.312454 331.467163,113.222908 327.958588,112.305450 
	C332.566925,107.914436 336.704193,111.401436 341.132965,112.216553 
z"/>
<path fill="#DDDDDD" opacity="1.000000" stroke="none" 
	d="
M228.548218,84.759193 
	C233.349716,85.395195 237.758881,86.111366 242.168030,86.827538 
	C242.125183,87.419868 242.082321,88.012192 242.039474,88.604523 
	C234.362488,88.604523 226.685501,88.604523 219.008514,88.604523 
	C218.970062,88.134254 218.931610,87.663979 218.893158,87.193710 
	C221.980728,86.408928 225.068314,85.624146 228.548218,84.759193 
z"/>
</svg>