<?xml version="1.0" encoding="UTF-8"?>
<svg width="1%" height="1%" id="Layer_1" data-name="Layer 1" xmlns="http://www.w3.org/2000/svg" viewBox="-5 0 59.9 25.18">
  <defs>
    <style>
      .cls-1 {
        fill: #fff;
      }

      .cls-1, .cls-2 {
        stroke-width: 0px;
      }

      .cls-2 {
        fill: #fff;
      }
    </style>
  </defs>
  <path class="cls-1" d="M24.95.72l-3.47.85.61.29,2.85-.72,2.85.72.61-.29-3.47-.85ZM24.95,1.66l-2.14.54.73.35,1.41-.36,1.41.36.73-.35-2.14-.54ZM18.86,2.21l-9.7,2.37.77.35,9.56-2.41c-.26-.13-.48-.23-.63-.31h0ZM31.05,2.21c-.15.07-.37.18-.63.31l9.55,2.41.77-.35-9.7-2.37ZM24.95,2.63l-.8.2.81.38.8-.38-.81-.21ZM20.19,2.86l-9.53,2.4.79.36,9.46-2.4c-.25-.12-.49-.24-.72-.35h0ZM29.71,2.86c-.23.11-.47.23-.72.35l9.46,2.4.79-.36-9.52-2.39ZM21.51,3.51l-9.41,2.4,1.14.52,9.13-2.49c-.27-.14-.57-.28-.86-.43h0ZM28.39,3.51c-.31.15-.6.3-.86.43l9.13,2.49,1.14-.52-9.41-2.4ZM6.39,5.29l-3.32.77.91,1.61,1.74-.22-.82-1.26,2.23-.56-.74-.34ZM43.51,5.29l-.74.34,2.23.56-.82,1.26,1.74.22.91-1.61-3.32-.77ZM7.86,5.96l-1.62.41.34.49,2.08-.54-.79-.36ZM42.04,5.96l-.79.36,2.08.53.33-.48-1.62-.41ZM9.47,6.69l-2.58.61,3.07-.39-.49-.22ZM40.43,6.69l-.49.22,3.07.39-2.59-.61ZM12.5,8.33l-1.48.19,3.02,3.56,1.76-.19-3.3-3.57ZM37.4,8.33l-3.3,3.57,1.76.19,3.02-3.56-1.48-.19ZM40.02,8.66l-2.77,3.56,2.2.23,2.46-3.55-1.89-.24ZM9.88,8.66l-1.89.24,2.46,3.55,2.2-.23-2.77-3.56ZM43.12,9.06l-2.31,3.54,2.18.23,2-3.53-1.87-.24ZM6.78,9.06l-1.87.24,2,3.53,2.18-.23-2.31-3.54ZM19.11,13.46l-.13.53h11.96l-.13-.53h-11.69ZM17.01,13.47l-5.27.85.68.99h4.01l.25-.81h-1.53l.5-.5h1.18l.16-.52ZM32.9,13.47l.16.52h1.18l.5.5h-1.53l.25.81h4.01l.68-.99h0s0,0,0,0l-5.27-.85ZM18.84,14.49l-.12.47-.09.34h12.62l-.07-.27-.02-.07-.12-.47h-12.21ZM39.56,14.54l-.89,1.37h-5l.3.97h6.74l1.12-1.98-2.27-.36ZM10.34,14.54l-2.27.36,1.12,1.98h6.74l.16-.5.15-.47h-5l-.89-1.37ZM18.49,15.91l-.24.97h13.41l-.13-.5-.12-.47h-12.93ZM16.3,21.67v1.71h.67v-1.71h-.67ZM21.18,21.67v2.34h.48v-2.34h-.48ZM22.18,21.67v2.34h.48v-2.34h-.48ZM23.17,21.67v2.34h.48v-2.34h-.48ZM24.2,21.67v2.34h.48v-2.34h-.48ZM25.19,21.67v2.34h.48v-2.34h-.48ZM26.19,21.67v2.34h.48v-2.34h-.48ZM27.22,21.67v2.34h.48v-2.34h-.48ZM28.24,21.67v2.34h.48v-2.34h-.48ZM32.97,21.67v1.71h.64v-1.71h-.64Z"/>
  <path class="cls-2" d="M24.95,0L.98,5.37l6.33,12.72h35.28l6.33-12.72L24.95,0ZM24.95.38l4.73,1.14-4.73,2.26-4.73-2.26,4.73-1.14ZM19.14,1.78s0,0,0,.01c0-.01,4.65,2.29,4.65,2.29l-10.58,2.89-5.49-2.48c3.81-.9,7.62-1.8,11.42-2.7h0ZM30.76,1.78c3.81.9,7.62,1.8,11.42,2.7l-5.49,2.48-10.58-2.89s4.64-2.3,4.65-2.29c0,0,0,0,0-.01h0ZM24.95,4.33l11.08,3.29-4.5,4.41h-13.15l-4.5-4.41,11.08-3.29ZM6.44,4.77l5.33,2.42-8.62,1.1-1.31-2.45,4.59-1.07ZM43.46,4.77l4.59,1.07-1.31,2.45-8.62-1.1,5.33-2.42ZM24.95,4.85l-9.93,2.95,2.14,2.1,6.71-2v.19l.46.29h1.25l.46-.29v-.19l6.71,2,2.14-2.1-9.93-2.95ZM.53,5.59l-.53.77v2.79l6.82,14.67v-4.09l14.64-.03-.61,1.43h8.21l-.61-1.43,14.62.03v4.09l6.82-14.67v-2.79l-.53-.77-.12.24-6.35,12.76H7l-.14-.28L.57,5.68l-.04-.08ZM12.89,7.77l4.16,4.5-11.11,1.18-2.41-4.47,9.35-1.21ZM37,7.77l9.35,1.21-2.41,4.47-11.11-1.18,4.16-4.5ZM18.75,12.79h12.39l1.2,4.76h-14.79l1.2-4.76ZM17.72,12.84l-1.47,4.7h-8.05s-1.61-2.92-1.61-2.92l11.13-1.78ZM32.17,12.84l11.13,1.78-1.61,2.92h-8.05s-1.47-4.7-1.47-4.7ZM20.7,20.17l-13.42.03v3.61s8.37,0,8.37,0v-2.66h1.95v2.87h2.58v-2.65l.52-1.19ZM29.2,20.17l.52,1.16v2.68h2.6v-2.87h1.94v2.66h8.31v-3.61s-13.37-.03-13.37-.03ZM8.08,21.14h.7v1.74h-.7v-1.74ZM9.63,21.14h.7v1.74h-.7v-1.74ZM11.16,21.14h.7v1.74h-.7v-1.74ZM12.66,21.14h.7v1.74h-.7v-1.74ZM14.17,21.14h.7v1.74h-.7v-1.74ZM18.53,21.14h.76v1.74h-.76v-1.74ZM30.59,21.14h.76v1.74h-.76v-1.74ZM35.01,21.14h.72v1.74h-.72v-1.74ZM36.53,21.14h.72v1.74h-.72v-1.74ZM38.1,21.14h.72v1.74h-.72v-1.74ZM39.64,21.14h.72v1.74h-.72v-1.74ZM41.08,21.14h.72v1.74h-.72v-1.74ZM20.86,24.56v.61h8.17v-.61h-8.17Z"/>
</svg>