<svg version="1.1" id="Layer_1" xmlns="http://www.w3.org/2000/svg" xmlns:xlink="http://www.w3.org/1999/xlink" x="0px" y="0px"
	 width="100%" viewBox="0 0 7708 1604" enable-background="new 0 0 7708 1604" xml:space="preserve">

<path fill="#FDE9B1" opacity="1.000000" stroke="none" 
	d="
M4.696414,383.288788 
	C4.253078,383.430328 3.809742,383.571869 2.683204,383.856689 
	C2.000000,335.958221 2.000000,287.916412 2.000000,238.937317 
	C2.392040,238.014420 2.784080,238.028824 3.765872,239.070953 
	C4.351664,264.297607 4.300343,288.496643 4.357255,312.695435 
	C4.412596,336.226685 4.578857,359.757690 4.696414,383.288788 
z"/>
<path fill="#F8BE15" opacity="1.000000" stroke="none" 
	d="
M5.574227,383.425110 
	C4.578857,359.757690 4.412596,336.226685 4.357255,312.695435 
	C4.300343,288.496643 4.351664,264.297607 4.343848,239.181519 
	C8.316992,238.074097 12.301897,237.717636 16.286835,237.717270 
	C299.923492,237.691254 583.560120,237.693604 867.196777,237.693604 
	C871.131165,237.693604 875.065552,237.693604 880.026489,237.693604 
	C880.026489,357.517883 880.026489,476.530670 880.026489,595.543457 
	C880.609802,595.670959 881.193176,595.798462 881.776489,595.925964 
	C885.138977,589.233398 888.407043,582.491333 891.879700,575.856384 
	C911.382874,538.593689 937.385254,507.150757 973.632629,484.945892 
	C999.857300,468.880859 1028.422607,459.495209 1058.839722,455.770447 
	C1071.332275,454.240723 1083.950684,452.402802 1096.470215,452.668274 
	C1144.339355,453.683105 1191.336670,458.987579 1233.651611,484.463440 
	C1267.116699,504.611206 1290.321777,533.365051 1305.314087,569.038086 
	C1318.598999,600.648804 1325.175659,633.788330 1326.228882,667.965881 
	C1327.079590,695.565613 1327.608643,723.186401 1327.636597,750.798523 
	C1327.774902,887.450562 1327.699463,1024.102783 1327.699463,1160.755005 
	C1327.699463,1164.713989 1327.699463,1168.672852 1327.699463,1172.441162 
	C1320.197876,1174.689575 1174.926758,1175.360718 1159.695312,1173.223633 
	C1159.695312,1169.556274 1159.695312,1165.661377 1159.695312,1161.766479 
	C1159.695312,1016.115234 1159.869019,870.463501 1159.497314,724.813171 
	C1159.444946,704.309998 1157.833008,683.753723 1152.166504,663.682068 
	C1139.982788,620.525635 1109.614136,597.386658 1067.531128,590.454285 
	C1020.709717,582.741516 978.987244,596.546936 942.788391,627.612976 
	C914.203308,652.144897 899.047546,684.025879 890.248474,719.588623 
	C885.213501,739.938354 882.178528,760.647949 881.705444,781.660522 
	C881.196411,804.271667 880.399048,826.884094 880.367859,849.496826 
	C880.224487,953.485657 880.304810,1057.474731 880.304810,1161.463745 
	C880.304810,1165.383911 880.304749,1169.303955 880.304749,1173.743652 
	C823.832214,1173.743652 768.364929,1173.743652 711.849976,1173.743652 
	C711.849976,910.599792 711.849976,647.820740 711.849976,384.374878 
	C629.646362,384.374878 548.484802,384.374878 465.855713,384.374878 
	C465.518250,417.009430 465.750977,449.840332 465.708832,482.665558 
	C465.666504,515.661987 465.699554,548.658569 465.699554,581.655090 
	C465.699554,614.318298 465.699554,646.981506 465.699554,679.644714 
	C465.699554,712.641235 465.699554,745.637695 465.699554,778.634216 
	C465.699554,811.630737 465.699554,844.627197 465.699554,877.623718 
	C465.699554,910.620239 465.699554,943.616760 465.699554,976.613281 
	C465.699554,1009.276489 465.699585,1041.939697 465.699554,1074.602905 
	C465.699554,1107.499390 465.699524,1140.395874 465.699524,1173.792725 
	C400.337799,1173.792725 336.122650,1173.792725 271.973419,1173.792725 
	C271.681763,1173.485107 271.448517,1173.255981 271.235352,1173.009644 
	C271.018311,1172.758545 270.674133,1172.508057 270.640259,1172.226685 
	C270.481354,1170.906616 270.320892,1169.575806 270.320404,1168.248901 
	C270.223785,907.614929 270.140747,646.980957 270.048645,386.346954 
	C270.048523,386.025513 269.919006,385.704163 269.553406,384.003387 
	C266.079010,383.910553 262.245148,383.719604 258.411224,383.718781 
	C178.419693,383.701447 98.428162,383.707733 18.436636,383.699524 
	C14.441768,383.699127 10.446906,383.609497 5.574227,383.425110 
z"/>
<path fill="#F8BE14" opacity="1.000000" stroke="none" 
	d="
M2345.696777,680.000000 
	C2345.696777,532.402527 2345.696777,385.805084 2345.696777,239.371643 
	C2353.675537,237.265610 2503.229492,236.442245 2524.703125,238.226776 
	C2524.938477,238.462662 2525.191162,238.683868 2525.405029,238.937775 
	C2525.610352,239.181580 2525.868896,239.436752 2525.939453,239.726852 
	C2526.095215,240.370987 2526.193848,241.037384 2526.233154,241.699570 
	C2526.292236,242.696716 2526.296143,243.698044 2526.296631,244.697617 
	C2526.376465,369.668457 2526.453369,494.639313 2526.543945,619.610168 
	C2526.544189,619.915100 2526.739258,620.219849 2526.843262,620.524658 
	C2527.053467,620.783386 2527.237305,621.071045 2527.480957,621.292847 
	C2527.712402,621.503723 2528.006592,621.796326 2528.273438,621.796692 
	C2652.230957,621.977295 2776.188477,622.138062 2900.145996,622.280273 
	C2902.423828,622.282898 2904.701660,622.062622 2908.012695,621.893555 
	C2908.012695,494.077362 2908.012695,366.632629 2908.012695,238.443695 
	C2969.122314,238.443695 3029.178467,238.443695 3089.770020,238.443695 
	C3089.770020,550.187500 3089.770020,861.614990 3089.770020,1173.673706 
	C3029.601318,1173.673706 2969.763916,1173.673706 2908.499023,1173.673706 
	C2908.093262,1161.631592 2908.358643,1149.442993 2908.312256,1137.271851 
	C2908.265381,1124.941040 2908.302002,1112.610107 2908.302002,1100.279175 
	C2908.302002,1088.281616 2908.302002,1076.283936 2908.302002,1064.286377 
	C2908.302002,1051.955444 2908.302002,1039.624634 2908.302002,1027.293701 
	C2908.302002,1014.962830 2908.302002,1002.631958 2908.302002,990.301086 
	C2908.302002,977.970215 2908.302002,965.639282 2908.302002,953.308411 
	C2908.302002,940.977539 2908.302002,928.646667 2908.302002,916.315796 
	C2908.302002,903.984924 2908.302002,891.654053 2908.302002,879.323181 
	C2908.302002,867.325562 2908.302002,855.327942 2908.302002,843.330322 
	C2908.302002,830.999451 2908.302002,818.668579 2908.302002,806.337708 
	C2908.302002,794.070801 2908.302002,781.803833 2908.302002,768.928955 
	C2780.908447,768.928955 2654.416016,768.928955 2526.564941,768.928955 
	C2526.020264,781.010315 2526.379883,793.210571 2526.316650,805.387451 
	C2526.252686,817.718018 2526.302490,830.049133 2526.302490,842.380005 
	C2526.302490,854.377625 2526.302490,866.375244 2526.302490,878.372864 
	C2526.302490,890.703735 2526.302490,903.034607 2526.302490,915.365479 
	C2526.302490,927.696350 2526.302490,940.027222 2526.302490,952.358093 
	C2526.302490,964.688965 2526.302490,977.019836 2526.302490,989.350708 
	C2526.302490,1001.681580 2526.302490,1014.012512 2526.302490,1026.343384 
	C2526.302490,1038.674316 2526.302490,1051.005127 2526.302490,1063.336060 
	C2526.302490,1075.333618 2526.302490,1087.331299 2526.302490,1099.328857 
	C2526.302490,1111.659668 2526.302490,1123.990601 2526.302490,1136.321411 
	C2526.302490,1148.578369 2526.302734,1160.835205 2526.302734,1173.690186 
	C2465.940674,1173.690186 2406.477539,1173.690186 2345.697021,1173.690186 
	C2345.697021,1009.328491 2345.697021,845.164246 2345.696777,680.000000 
z"/>
<path fill="#F8BE15" opacity="1.000000" stroke="none" 
	d="
M4929.274902,341.284058 
	C4970.095215,297.987427 5018.821777,268.192871 5073.825195,248.400391 
	C5101.406738,238.475250 5129.931152,232.204178 5158.979980,227.991913 
	C5196.402832,222.565247 5234.030273,222.103180 5271.524414,224.548386 
	C5351.178223,229.743088 5424.950684,252.785431 5489.249023,301.691864 
	C5525.104492,328.964233 5551.689941,363.205139 5565.378418,406.633179 
	C5570.490723,422.852203 5572.892090,439.517761 5574.589844,456.484314 
	C5577.384277,484.407898 5573.948730,511.505249 5566.949707,538.323669 
	C5560.218750,564.113220 5547.957520,587.283020 5531.699219,608.298157 
	C5505.976562,641.545776 5473.849609,665.961792 5433.246582,678.270203 
	C5425.315918,680.674316 5417.113770,682.182068 5409.034668,684.094788 
	C5405.863281,684.845520 5402.686035,685.572937 5397.273926,686.831116 
	C5426.572266,692.140198 5452.869629,699.506714 5477.532715,711.803589 
	C5533.865234,739.890930 5574.729004,782.205383 5595.548340,842.288208 
	C5603.774414,866.026489 5606.672363,890.817688 5606.296387,915.940979 
	C5605.729980,953.760986 5597.848633,989.842163 5580.026855,1023.414551 
	C5563.243652,1055.029663 5540.161621,1081.383789 5512.325195,1103.764771 
	C5463.774414,1142.801758 5408.072266,1165.885498 5347.443359,1178.017090 
	C5317.102051,1184.088501 5286.514648,1188.031372 5255.504395,1188.368286 
	C5240.887207,1188.527222 5226.250000,1190.047852 5211.666992,1189.568481 
	C5147.085449,1187.444336 5084.077637,1177.577148 5024.685547,1150.355103 
	C4984.929688,1132.133423 4949.818359,1107.302490 4917.970703,1077.507690 
	C4897.710938,1058.553955 4879.588867,1037.871826 4864.457031,1014.608337 
	C4850.769531,993.565979 4840.119629,971.071411 4832.521973,947.145020 
	C4831.730957,944.653442 4831.276855,942.055176 4830.471191,938.694397 
	C4887.816895,925.582703 4944.727051,912.570557 5002.005371,899.474182 
	C5006.087402,909.565002 5009.735352,919.118225 5013.787109,928.496948 
	C5024.854980,954.118469 5039.852051,977.291504 5059.689941,996.891479 
	C5085.859863,1022.747559 5117.514160,1039.021362 5153.146484,1047.957031 
	C5182.816406,1055.397827 5213.009766,1057.133423 5243.278320,1055.488525 
	C5282.269043,1053.369629 5319.558105,1044.322021 5352.855957,1022.706970 
	C5377.334961,1006.816711 5397.632812,986.856567 5409.521484,959.810059 
	C5423.625488,927.725098 5422.943848,894.866089 5410.114258,862.757263 
	C5391.723145,816.726746 5358.476562,786.076843 5310.751953,771.688232 
	C5287.678223,764.731750 5264.037598,761.651184 5239.948730,761.689819 
	C5200.617188,761.752991 5161.286133,761.706909 5121.954590,761.706848 
	C5118.342285,761.706848 5114.729492,761.706787 5110.419922,761.706787 
	C5110.419922,717.084045 5110.419922,673.251648 5110.419922,628.109985 
	C5113.531250,627.981506 5117.028320,627.716553 5120.525391,627.711975 
	C5147.190430,627.676880 5173.862305,628.056213 5200.519043,627.590271 
	C5227.115723,627.125427 5253.621094,625.029541 5279.435059,617.993042 
	C5306.301270,610.669678 5331.516602,599.970825 5353.426758,582.170044 
	C5374.013672,565.444580 5386.207520,543.818604 5391.253418,518.249939 
	C5396.025391,494.068939 5394.715332,469.850983 5387.144043,446.329315 
	C5378.277344,418.785736 5360.319336,398.532898 5335.509766,383.928802 
	C5312.434082,370.345428 5287.392090,362.726166 5261.013672,360.138702 
	C5243.541992,358.424866 5225.763672,357.392212 5208.290527,358.562927 
	C5131.767090,363.690033 5073.521973,398.136230 5038.011719,467.629395 
	C5033.783203,475.904999 5029.952637,484.383820 5025.442383,493.803040 
	C4970.763672,484.967743 4915.854004,476.095032 4859.716797,467.023956 
	C4872.005859,418.943054 4894.810547,377.342499 4929.274902,341.284058 
z"/>
<path fill="#F8BE15" opacity="1.000000" stroke="none" 
	d="
M6605.998047,962.306946 
	C6469.723633,962.307068 6334.447754,962.307068 6198.525391,962.307068 
	C6198.209961,959.196472 6197.732910,956.664062 6197.729492,954.131042 
	C6197.680176,917.801270 6197.834473,881.470337 6197.553223,845.142700 
	C6197.507324,839.295959 6199.708984,834.973022 6202.863281,830.587708 
	C6236.872070,783.298462 6270.844727,735.983093 6304.826172,688.674194 
	C6372.789062,594.054871 6440.752930,499.436707 6508.712891,404.815308 
	C6551.818359,344.798096 6594.933594,284.787170 6637.982910,224.729630 
	C6640.820801,220.770523 6643.562988,218.126190 6649.178711,218.149307 
	C6707.505371,218.389206 6765.833496,218.298935 6824.161133,218.321609 
	C6825.468262,218.322113 6826.775391,218.572586 6827.860352,218.683701 
	C6828.303711,219.126099 6828.559082,219.345627 6828.769043,219.602509 
	C6828.970703,219.849945 6829.207031,220.114197 6829.284668,220.408615 
	C6829.453125,221.049164 6829.568848,221.709564 6829.634277,222.368988 
	C6829.700195,223.030380 6829.691406,223.700577 6829.691406,224.366913 
	C6829.729004,421.013916 6829.765137,617.660950 6829.811523,814.307922 
	C6829.812012,814.629639 6829.968262,814.952271 6830.057129,815.272888 
	C6830.146484,815.592651 6830.242676,815.910339 6830.639160,817.264832 
	C6879.807129,817.264832 6929.297852,817.264832 6978.504395,817.264832 
	C6980.730469,825.615173 6981.525391,939.624023 6979.660156,962.069824 
	C6967.675781,962.570312 6955.479004,962.235352 6943.304688,962.293274 
	C6930.639160,962.353455 6917.974121,962.306702 6905.308594,962.306702 
	C6892.976562,962.306702 6880.644043,962.306702 6868.312012,962.306702 
	C6856.015625,962.306702 6843.719238,962.306763 6830.380859,962.306763 
	C6828.961914,974.257690 6829.901855,985.803528 6829.737305,997.283081 
	C6829.569824,1008.946167 6829.700684,1020.613647 6829.700684,1032.279175 
	C6829.700684,1044.277954 6829.700684,1056.276855 6829.700684,1068.275635 
	C6829.700684,1079.941162 6829.700684,1091.606812 6829.700684,1103.272339 
	C6829.700684,1114.937866 6829.700684,1126.603394 6829.700684,1138.268921 
	C6829.700684,1149.862427 6829.700195,1161.455933 6829.700195,1173.666016 
	C6766.985352,1173.666016 6705.211914,1173.666016 6642.512695,1173.666016 
	C6642.512695,1103.417847 6642.512695,1033.561157 6642.512695,962.306824 
	C6630.090332,962.306824 6618.543945,962.306824 6605.998047,962.306946 
M6652.639160,402.288757 
	C6639.174316,422.109863 6625.631348,441.878815 6612.258301,461.761627 
	C6559.494629,540.207886 6506.790039,618.694031 6454.051270,697.156982 
	C6429.539551,733.625549 6404.989258,770.068237 6380.482910,806.540344 
	C6378.337402,809.732849 6376.385742,813.055847 6373.865723,817.081909 
	C6463.941895,817.081909 6552.662109,817.081909 6642.305176,817.081909 
	C6642.305176,812.877014 6642.304688,809.282471 6642.304688,805.687988 
	C6642.304688,735.722900 6642.416504,665.757507 6642.255859,595.792786 
	C6642.179688,562.539185 6642.381836,529.311523 6645.750977,496.190857 
	C6647.562988,478.376526 6649.748047,460.597931 6651.377441,442.767853 
	C6652.611328,429.257629 6653.230957,415.691315 6654.982422,402.305756 
	C6654.980957,401.775208 6654.979004,401.244629 6654.977051,400.714050 
	C6654.644043,401.134552 6654.310547,401.555054 6652.639160,402.288757 
z"/>
<path fill="#F8BE15" opacity="1.000000" stroke="none" 
	d="
M3525.188477,978.876953 
	C3499.171387,908.961609 3473.479492,839.754333 3447.718506,770.572693 
	C3427.411865,716.038025 3406.990967,661.545898 3386.676758,607.014160 
	C3375.764893,577.722107 3364.976807,548.383972 3354.113037,519.074036 
	C3353.230713,516.693665 3352.195312,514.370056 3349.701416,512.264343 
	C3349.701416,622.368408 3349.701172,732.472412 3349.701172,842.576477 
	C3349.701172,952.792847 3349.701416,1063.009277 3349.701416,1173.694092 
	C3292.827148,1173.694092 3237.056152,1173.694092 3180.857422,1173.694092 
	C3180.857422,942.973083 3180.857422,712.866028 3180.857422,482.225586 
	C3292.615723,482.225586 3403.817139,482.225586 3516.447021,482.225586 
	C3573.513184,636.901489 3630.774170,792.105896 3688.875000,949.586121 
	C3745.345703,792.502319 3800.989014,637.720581 3856.849121,482.335724 
	C3900.592041,482.335724 3944.445801,482.335724 3989.643799,482.335724 
	C3905.730713,713.188049 3821.974121,943.610291 3738.236328,1173.980957 
	C3691.020752,1173.980957 3644.754395,1173.980957 3597.822998,1173.980957 
	C3594.394043,1164.955444 3590.940430,1156.005005 3587.587402,1147.016724 
	C3567.132324,1092.180420 3546.698242,1037.336182 3526.270752,982.489746 
	C3525.923340,981.556885 3525.742676,980.561951 3525.188477,978.876953 
z"/>
<path fill="#F8BE15" opacity="1.000000" stroke="none" 
	d="
M4215.745117,1058.345093 
	C4242.154297,1065.508545 4268.095703,1067.097534 4294.519043,1064.415649 
	C4318.301758,1062.001587 4341.063477,1056.453979 4362.094727,1045.004761 
	C4390.732910,1029.414062 4411.822754,1006.347046 4426.888184,977.642761 
	C4430.891602,970.015320 4434.382324,962.119080 4438.703613,953.104187 
	C4488.750977,959.436096 4538.983887,965.791504 4590.909668,972.361145 
	C4587.232910,982.345703 4584.319336,991.403137 4580.618164,1000.126160 
	C4558.453613,1052.358765 4523.220215,1094.058838 4477.475098,1127.163452 
	C4434.542969,1158.232666 4386.320801,1176.026611 4334.217285,1184.041504 
	C4306.569336,1188.294312 4278.730957,1190.473267 4250.806641,1189.585815 
	C4196.110840,1187.847412 4143.114746,1178.046265 4093.972412,1152.688110 
	C4038.338379,1123.979980 3995.106201,1082.231323 3964.538818,1027.539185 
	C3942.349854,987.838501 3929.248779,945.128479 3923.791260,900.115051 
	C3921.677002,882.676331 3920.817139,865.074097 3919.723145,847.525269 
	C3916.783203,800.360962 3922.301025,754.114685 3935.301270,708.726135 
	C3948.878174,661.326050 3971.692871,618.872925 4003.413086,581.136658 
	C4041.633789,535.667358 4088.813232,503.441040 4145.343750,485.156097 
	C4178.399414,474.464111 4212.315430,468.423126 4247.123047,467.653564 
	C4257.740723,467.418854 4268.374023,466.043884 4278.957031,466.415680 
	C4326.729980,468.093781 4373.615234,474.641205 4417.763184,494.356812 
	C4446.860840,507.351288 4473.218750,524.422180 4496.246582,546.697205 
	C4549.002930,597.729004 4579.894531,660.225403 4594.321777,731.532166 
	C4598.808594,753.706055 4601.920898,776.026978 4602.357910,798.693604 
	C4602.594727,810.976990 4603.387695,823.249817 4603.613281,835.533264 
	C4603.684082,839.369202 4602.721191,843.223999 4602.129883,847.866333 
	C4432.387695,847.866333 4263.564453,847.866333 4094.313721,847.866333 
	C4094.313721,858.675049 4093.508545,868.646912 4094.483887,878.441406 
	C4096.421875,897.897583 4098.086426,917.518982 4102.084473,936.606812 
	C4115.258301,999.494873 4154.975586,1038.389526 4215.745117,1058.345093 
M4112.253418,673.437927 
	C4102.348633,696.108276 4096.687988,719.806763 4094.233398,744.952759 
	C4205.715820,744.952759 4316.386230,744.952759 4428.095703,744.952759 
	C4427.449707,737.576782 4426.943359,731.024048 4426.289551,724.486206 
	C4423.911133,700.692200 4417.208008,678.204224 4404.947266,657.625488 
	C4386.516602,626.692627 4360.946777,603.765381 4327.558594,589.757935 
	C4302.142578,579.095276 4275.597168,576.292053 4248.395508,578.038879 
	C4224.859863,579.550232 4202.511719,585.648682 4181.835938,597.031372 
	C4150.502930,614.280762 4127.848145,639.688721 4112.253418,673.437927 
z"/>
<path fill="#F8BE15" opacity="1.000000" stroke="none" 
	d="
M1649.191406,471.118103 
	C1673.550537,469.320129 1697.092407,466.220673 1720.573975,466.625458 
	C1768.351318,467.449219 1815.219849,474.553345 1859.400146,494.229340 
	C1888.833740,507.337860 1915.437378,524.582520 1938.678833,547.124207 
	C1991.109741,597.976807 2021.792969,660.226746 2036.261719,731.135986 
	C2040.783569,753.297180 2043.891602,775.624329 2044.350952,798.288757 
	C2044.599854,810.571716 2045.372070,822.843994 2045.622070,835.126953 
	C2045.701050,839.009094 2044.852539,842.910095 2044.329956,847.707275 
	C1958.945801,847.707275 1874.373413,847.707336 1789.801025,847.707336 
	C1705.549194,847.707336 1621.297485,847.707275 1536.325928,847.707275 
	C1536.325928,858.651855 1535.512695,868.919434 1536.501709,879.010437 
	C1538.343994,897.805176 1540.840454,916.558960 1543.761353,935.220764 
	C1554.270996,1002.368774 1614.846924,1053.074585 1674.952515,1062.396240 
	C1714.515015,1068.531982 1753.202515,1066.627197 1790.490479,1051.415283 
	C1825.900635,1036.969604 1851.099243,1011.143311 1868.844360,977.712097 
	C1872.882690,970.104004 1876.346436,962.190918 1880.703003,953.107971 
	C1930.689575,959.429749 1980.913208,965.781555 2032.691528,972.329956 
	C2029.268066,981.950806 2026.622070,990.733704 2023.073730,999.135620 
	C2003.373535,1045.781982 1973.146484,1084.421387 1933.857422,1116.228638 
	C1887.388184,1153.848633 1834.068970,1175.282715 1775.334717,1184.186035 
	C1748.014893,1188.327271 1720.505737,1190.471191 1692.915771,1189.589966 
	C1637.878296,1187.832153 1584.569092,1177.959961 1535.185181,1152.288086 
	C1479.963867,1123.581665 1437.004761,1082.012939 1406.595703,1027.650146 
	C1384.393433,987.958923 1371.282837,945.251709 1365.796997,900.245483 
	C1363.671631,882.809265 1362.831909,865.205750 1361.722168,847.658508 
	C1358.696289,799.808289 1364.353516,752.882385 1377.779785,706.934082 
	C1391.012817,661.647400 1412.803467,620.860229 1442.778442,584.329346 
	C1471.731079,549.044250 1506.355469,521.011353 1547.417114,501.160248 
	C1579.372803,485.711334 1613.046997,475.702850 1649.191406,471.118103 
M1595.781982,616.795837 
	C1557.235474,650.626526 1541.812012,695.098511 1536.219238,744.297607 
	C1546.281372,746.401611 1861.674194,746.147644 1870.479980,743.825562 
	C1869.097534,732.920532 1868.120483,721.730713 1866.201904,710.704834 
	C1859.301758,671.049988 1839.799805,638.652283 1808.734131,613.236023 
	C1785.808350,594.479431 1759.693848,583.104614 1730.142578,579.412415 
	C1680.626953,573.225952 1635.609253,582.980713 1595.781982,616.795837 
z"/>
<path fill="#F8BE15" opacity="1.000000" stroke="none" 
	d="
M7409.282227,455.253876 
	C7429.013184,434.470337 7448.251465,414.195923 7467.494141,393.925598 
	C7470.172363,391.104706 7472.871094,388.303467 7477.040527,383.946716 
	C7285.713867,383.946716 7096.376953,383.946716 6905.433105,383.946716 
	C6910.143066,334.723907 6915.639648,286.831604 6920.769531,238.320999 
	C7158.317871,238.320999 7395.398926,238.320999 7633.145996,238.320999 
	C7633.341797,241.488419 7633.674805,244.390625 7633.678223,247.293198 
	C7633.714355,281.285400 7633.573242,315.278534 7633.818359,349.268982 
	C7633.861816,355.364105 7631.900391,359.959045 7628.131348,364.537842 
	C7579.236816,423.930481 7532.864258,485.205261 7490.802246,549.667114 
	C7462.582520,592.914734 7436.545410,637.435791 7414.255859,684.043396 
	C7387.162598,740.696289 7368.222656,800.165955 7354.204102,861.279846 
	C7342.313477,913.116760 7333.300781,965.442810 7327.693359,1018.332520 
	C7324.826172,1045.380371 7322.061523,1072.445312 7319.777344,1099.546875 
	C7317.993652,1120.710449 7317.079590,1141.946289 7315.633789,1163.140015 
	C7315.392578,1166.675415 7314.409180,1170.160156 7313.723633,1173.914673 
	C7245.186035,1173.914673 7177.274902,1173.914673 7108.373535,1173.914673 
	C7108.373535,1166.383911 7107.843262,1158.865601 7108.481934,1151.447998 
	C7109.904297,1134.935181 7111.928223,1118.474731 7113.678223,1101.989746 
	C7118.346680,1058.014404 7126.051758,1014.563660 7136.008301,971.489441 
	C7153.291016,896.718811 7178.071289,824.549011 7210.249512,754.866211 
	C7250.932129,666.766052 7302.205566,585.288757 7362.981934,509.756744 
	C7377.772949,491.374329 7393.496094,473.741516 7409.282227,455.253876 
z"/>
<path fill="#F8BE15" opacity="1.000000" stroke="none" 
	d="
M6319.700195,272.003296 
	C6319.700195,298.666565 6319.538574,324.332184 6319.831055,349.992615 
	C6319.892578,355.415955 6318.267090,359.616760 6314.968262,363.582550 
	C6277.283203,408.893494 6241.485352,455.660126 6207.693359,503.934326 
	C6176.174316,548.961487 6146.841797,595.360474 6120.779297,643.814270 
	C6099.134277,684.057251 6080.508789,725.590271 6065.991699,768.903442 
	C6051.819824,811.186890 6040.890625,854.358948 6032.249023,898.097839 
	C6023.234863,943.720032 6016.000977,989.623901 6011.701172,1035.947021 
	C6008.850098,1066.670166 6006.253906,1097.418091 6003.744141,1128.171265 
	C6002.771973,1140.081665 6002.453125,1152.044189 6001.619629,1163.967773 
	C6001.394043,1167.193848 6000.375000,1170.364502 5999.677246,1173.772949 
	C5931.079102,1173.772949 5862.915527,1173.772949 5793.401855,1173.772949 
	C5801.862793,1023.147400 5836.679688,879.902344 5901.222656,744.087708 
	C5965.672363,608.469421 6054.427246,490.411102 6161.427734,385.952148 
	C6161.092773,385.153717 6161.009277,384.814270 6160.821289,384.548767 
	C6160.657227,384.316986 6160.400391,384.112640 6160.140137,383.997864 
	C6159.841797,383.866699 6159.496094,383.811676 6159.166992,383.787781 
	C6158.502930,383.739685 6157.835938,383.731781 6157.169922,383.713806 
	C6156.836914,383.704773 6156.503418,383.709381 6156.170410,383.708832 
	C6155.503906,383.707733 6154.836914,383.706757 6154.170410,383.706757 
	C5969.191406,383.706085 5784.211914,383.705475 5599.232910,383.704742 
	C5598.899902,383.704712 5598.566406,383.705078 5598.233398,383.701050 
	C5597.566895,383.692932 5596.900391,383.687836 5596.233887,383.669525 
	C5595.901367,383.660339 5595.569336,383.631561 5595.237793,383.599274 
	C5594.906250,383.566925 5594.565918,383.555756 5594.248047,383.468018 
	C5593.939941,383.382935 5593.643066,383.233734 5593.364258,383.072449 
	C5593.077148,382.906494 5592.817871,382.692017 5591.479004,381.738495 
	C5596.478516,334.651062 5601.546387,286.918518 5606.599121,239.326202 
	C5614.043457,237.343735 6302.197754,236.554581 6319.700684,238.569321 
	C6319.700684,249.238846 6319.700684,260.121338 6319.700195,272.003296 
z"/>
<path fill="#F8BF16" opacity="1.000000" stroke="none" 
	d="
M3349.706543,324.000000 
	C3349.706543,350.211731 3349.706543,375.423462 3349.706543,401.165680 
	C3293.066650,401.165680 3237.560791,401.165680 3182.031738,401.165680 
	C3179.867432,394.477295 3179.053223,255.835953 3181.190186,238.413177 
	C3236.844727,238.413177 3292.594482,238.413177 3349.706787,238.413177 
	C3349.706787,266.624542 3349.706787,294.812286 3349.706543,324.000000 
z"/>

</svg>