<svg width="169" height="169" viewBox="0 0 169 169" fill="none" xmlns="http://www.w3.org/2000/svg">
<path d="M51.4402 138.867C51.4278 138.891 51.4083 138.911 51.3838 138.923C50.9794 139.116 50.5087 139.072 50.0379 139.095C41.2039 139 25.2348 139.071 19.119 138.88C18.488 138.785 18.3181 138.499 17.9298 137.903C17.6143 137.378 17.1532 136.591 16.5465 135.566C13.8769 131.059 10.3336 125.122 7.51838 120.352C6.3292 118.349 5.18855 116.442 4.0479 114.51C3.6596 113.866 3.31983 113.294 2.95579 112.674C2.32479 111.577 2.32479 111.363 2.95579 110.266C4.50901 107.714 6.0137 105.282 7.59119 102.659C11.0131 97.0791 15.0903 90.3546 18.3181 85.1086C18.8035 84.2501 19.386 84.2025 20.3082 84.2025C25.5503 84.274 43.8978 84.2502 51.13 84.4171V84.4171C51.6799 84.4943 52.0646 84.9278 52.3712 85.3908C55.8612 90.6615 64.1403 105.184 67.2447 110.146C67.633 110.79 67.8757 111.196 67.9485 111.53C68.0941 112.197 67.5844 112.769 67.2689 113.366C63.9221 118.465 54.6859 134.59 51.4521 138.848C51.4474 138.854 51.4437 138.86 51.4402 138.867V138.867Z" stroke="#F8BE14" stroke-width="3" stroke-miterlimit="10"/>
<path d="M116.728 138.44C116.742 138.433 116.759 138.44 116.765 138.455C117.373 139.94 116.408 140.798 115.492 142.434C111.39 149.11 104.158 160.89 101.658 164.968C101.318 165.468 101.052 166.064 100.542 166.351C100.323 166.47 100.056 166.494 99.6682 166.518C91.6594 166.494 73.8944 166.446 68.3125 166.351C67.6572 166.279 67.4388 166.088 67.0505 165.492C66.735 164.991 66.2739 164.228 65.6429 163.179C62.9733 158.696 59.3329 152.639 56.4934 147.87C54.9888 145.367 53.5812 143.006 52.125 140.574C51.1785 139.071 51.1542 138.857 52.125 137.331C53.0472 135.828 53.9209 134.374 54.8917 132.824C58.8475 126.362 63.5072 118.731 67.3417 112.531C67.8271 111.697 68.4581 111.697 69.3561 111.697C74.3699 111.806 90.7611 111.695 98.4518 111.876C99.7331 111.906 100.982 112.198 101.667 113.281C101.68 113.301 101.694 113.322 101.707 113.342C104.737 118.486 113.287 132.647 116.693 138.43C116.7 138.443 116.715 138.446 116.728 138.44V138.44Z" stroke="#F8BE14" stroke-width="3" stroke-miterlimit="10"/>
<path d="M150.107 85.0849C150.117 85.0849 150.127 85.0889 150.133 85.0974C153.345 89.3613 162.383 105.621 165.68 110.743C166.02 111.339 166.505 111.911 166.335 112.579C166.238 112.913 165.996 113.318 165.607 113.962C162.433 118.902 153.972 133.317 150.425 138.577C150.113 139.039 149.729 139.471 149.177 139.548V139.548C141.993 139.62 123.792 139.405 118.452 139.429C117.554 139.429 116.948 139.429 116.462 138.571C113.429 133.587 109.691 127.244 106.512 121.926C105.129 119.613 103.818 117.396 102.483 115.178C101.707 113.7 100.348 112.531 101.124 110.934C102.508 108.358 104.134 105.997 105.663 103.398C108.599 98.6053 112.337 92.5009 115.103 87.9941C115.734 86.9925 116.195 86.2056 116.511 85.7049C116.899 85.1087 117.093 84.8703 117.724 84.7749C123.889 84.6557 139.882 84.8941 148.74 84.8941C149.199 84.8941 149.681 84.8941 150.093 85.0818C150.097 85.0838 150.102 85.0849 150.107 85.0849V85.0849Z" stroke="#F8BE14" stroke-width="3" stroke-miterlimit="10"/>
<path d="M117.511 30.102C117.497 30.0877 117.5 30.0633 117.519 30.0544C117.923 29.8611 118.394 29.9053 118.865 29.8822C127.699 29.9776 143.668 29.8822 149.784 30.073C150.415 30.1683 150.585 30.4545 150.973 31.0506C151.289 31.5752 151.75 32.3621 152.381 33.3875C155.05 37.8943 158.594 43.808 161.433 48.5771C162.647 50.604 163.787 52.5355 164.952 54.467C165.34 55.1108 165.68 55.6831 166.044 56.3031C166.675 57.4 166.675 57.6146 166.044 58.7115C164.491 61.263 162.986 63.6953 161.409 66.3183C157.987 71.8981 153.91 78.6226 150.682 83.8686C150.197 84.7271 149.614 84.7748 148.716 84.7748C143.474 84.7032 125.102 84.7271 117.87 84.584V84.584C117.32 84.5068 116.935 84.0733 116.629 83.6103C113.139 78.3376 104.86 63.793 101.755 58.8308C101.367 58.1869 101.124 57.7815 101.052 57.4477C100.906 56.78 101.416 56.2077 101.731 55.6116C105.075 50.5165 114.274 34.415 117.515 30.1404C117.524 30.1283 117.522 30.1127 117.511 30.102V30.102Z" stroke="#F8BE14" stroke-width="3" stroke-miterlimit="10"/>
<path d="M52.1869 30.5475C52.1938 30.5338 52.1944 30.5174 52.1889 30.5031C51.6011 28.9673 52.6147 28.086 53.4841 26.52C53.8481 25.9238 54.2121 25.3515 54.5762 24.7315C58.7505 17.9355 65.109 7.49117 67.5602 3.5328C67.9727 2.84128 68.3368 2.45975 69.2347 2.4836C76.7581 2.4836 94.8386 2.62667 99.9352 2.62667C100.421 2.62667 100.857 2.62667 101.221 2.81744C101.44 2.93666 101.634 3.15127 101.852 3.50896C102.168 4.00971 102.629 4.77278 103.236 5.82198C105.905 10.305 109.57 16.3856 112.409 21.1547C113.987 23.8016 115.467 26.2815 116.996 28.833C117.652 29.9537 117.652 30.1445 116.996 31.2652C116.365 32.2906 115.759 33.2683 115.103 34.3413C110.759 41.3996 105.76 49.6502 101.537 56.47C101.124 57.0662 100.882 57.2331 100.226 57.3046C95.1541 57.3762 76.3213 57.1854 70.1812 57.1854C68.8221 57.1854 68.1669 57.3046 67.5359 56.2316C64.2642 50.7311 55.5234 36.2665 52.1878 30.5979C52.1785 30.5822 52.1786 30.5638 52.1869 30.5475V30.5475Z" stroke="#F8BE14" stroke-width="3" stroke-miterlimit="10"/>
<path d="M18.8586 83.8772C18.8407 83.886 18.8205 83.8827 18.8086 83.8668C15.5881 79.5828 6.54106 63.351 3.24705 58.2345C2.93155 57.6383 2.42191 57.066 2.59179 56.3984C2.68887 56.0645 2.93156 55.6592 3.31986 55.0153C6.49404 50.0753 14.9547 35.6597 18.5025 30.4003C18.8143 29.938 19.1979 29.5065 19.75 29.429V29.429C26.9337 29.3336 45.2083 29.5482 50.499 29.5244C51.397 29.5244 52.0037 29.5482 52.4891 30.4067C55.5227 35.3904 59.2844 41.7572 62.4637 47.0509C63.847 49.3401 65.1576 51.5339 66.4681 53.7515C67.269 55.2538 68.6038 56.4222 67.8272 58.0437C66.4438 60.5952 64.8421 62.9321 63.3131 65.5312C60.3765 70.3242 56.6391 76.4287 53.8724 80.9593C53.2414 81.9609 52.7803 82.7478 52.4648 83.2485C52.0765 83.8446 51.8824 84.107 51.2514 84.1785C45.087 84.2977 29.0937 84.0593 20.2354 84.0593C19.781 84.0593 19.303 84.0593 18.8944 83.8767C18.883 83.8716 18.8698 83.8717 18.8586 83.8772V83.8772Z" stroke="#F8BE14" stroke-width="3" stroke-miterlimit="10"/>
<path d="M84.6698 15.098C97.3625 15.098 104.57 29.4054 96.416 39.0867C92.9941 43.1643 87.2909 45.1435 82.0002 44.2135C72.3411 42.7589 66.6136 32.1953 70.8121 23.6347C73.239 18.4364 78.7724 15.0742 84.6212 15.098H84.6698Z" stroke="#F8BE14" stroke-width="3" stroke-miterlimit="10"/>
<path d="M133.548 42.5203C146.24 42.5203 153.448 56.8277 145.294 66.509C141.872 70.5866 136.169 72.5658 130.878 71.6358C121.219 70.1812 115.492 59.6176 119.69 51.057C122.117 45.8587 127.65 42.4965 133.499 42.5203H133.548Z" stroke="#F8BE14" stroke-width="3" stroke-miterlimit="10"/>
<path d="M133.548 97.0076C146.24 97.0076 153.448 111.315 145.294 120.996C141.872 125.074 136.169 127.053 130.878 126.123C121.219 124.668 115.492 114.105 119.69 105.544C122.117 100.346 127.65 96.9837 133.499 97.0076H133.548Z" stroke="#F8BE14" stroke-width="3" stroke-miterlimit="10"/>
<path d="M35.2338 42.5203C47.9265 42.5203 55.1344 56.8277 46.98 66.509C43.5581 70.5866 37.8548 72.5658 32.5642 71.6358C22.9051 70.1812 17.1775 59.6176 21.3761 51.057C23.803 45.8587 29.3364 42.4965 35.1852 42.5203H35.2338Z" stroke="#F8BE14" stroke-width="3" stroke-miterlimit="10"/>
<path d="M35.4521 97.3653C48.1449 97.3653 55.3528 111.673 47.1984 121.354C43.7764 125.432 38.0732 127.411 32.7825 126.481C23.1234 125.026 17.3959 114.463 21.5945 105.902C24.0214 100.704 29.5547 97.3415 35.4036 97.3653H35.4521Z" stroke="#F8BE14" stroke-width="3" stroke-miterlimit="10"/>
<path d="M84.6698 124.788C97.3625 124.788 104.57 139.095 96.416 148.776C92.9941 152.854 87.2909 154.833 82.0002 153.903C72.3411 152.449 66.6136 141.885 70.8121 133.324C73.239 128.126 78.7724 124.764 84.6212 124.788H84.6698Z" stroke="#F8BE14" stroke-width="3" stroke-miterlimit="10"/>
</svg>
