<svg width="1386" height="285" viewBox="0 0 1386 285" fill="none" xmlns="http://www.w3.org/2000/svg">
<path d="M458.081 0.224854H300.494L300.054 73.3669H431.23V167.094H300.054V283.596H410.981V230.163H458.081C458.081 230.163 539.516 230.163 543.918 118.479C548.32 6.7945 458.081 0.224854 458.081 0.224854Z" fill="white"/>
<path d="M0.334961 87.1644H416.997V151.373H0.334961V87.1644Z" fill="white"/>
<path d="M554.564 153.759V87.4713H675.696C675.696 87.4713 694.417 89.6625 707.631 102.811C720.846 115.959 720.846 132.394 720.846 132.394V283.596H575.487C575.487 283.596 527.034 283.596 527.034 226.621C527.034 169.646 575.487 169.098 575.487 169.098H625.592V226.621H640.458V153.759H554.564Z" fill="white"/>
<path d="M863.178 154.121H818.115V283.784H735.905V134.732C735.905 134.732 737.285 115.927 750.895 102.385C764.504 88.8432 783.404 87.4713 783.404 87.4713H863.178V154.121Z" fill="white"/>
<path d="M1385.26 153.8H1340.19V283.463H1257.98V134.411C1257.98 134.411 1259.36 115.607 1272.97 102.065C1286.58 88.5226 1305.48 87.1507 1305.48 87.1507H1385.26V153.8Z" fill="white"/>
<path d="M954.056 283.826H875.288V3.67758H954.056V155.157L990.5 87.8976H1074.56L1019.89 182.645L1078.08 283.826H990.5L954.056 216.567V283.826Z" fill="white"/>
<path d="M1242.72 284.716V219.824H1147.48V148.751H1160.59V207.463H1242.72V175.302C1242.72 148.678 1240.92 119.009 1222 100.184C1221.39 99.574 1220.58 98.9701 1219.6 98.3751C1193.86 82.634 1160.92 85.4998 1130.71 85.7264C1126.72 85.7564 1123.85 85.816 1122.98 85.9193C1118.85 86.4087 1094.58 88.4944 1076.86 106.127C1059.14 123.76 1059.14 154.588 1059.14 154.588V209.18C1059.14 209.18 1057.52 244.538 1075.5 262.43C1100.57 287.374 1140.78 284.716 1176.24 284.716H1242.72Z" fill="white"/>
</svg>
