<?xml version="1.0" encoding="UTF-8"?>
<svg xmlns="http://www.w3.org/2000/svg" version="1.1" viewBox="0 0 3990.5 1080">
  <defs>
    <style>
      .cls-1 {
        fill: none;
        stroke: #f8be14;
        stroke-miterlimit: 10;
        stroke-width: 25px;
      }

      .cls-2 {
        fill: #f8be14;
      }

      .cls-3 {
        fill: #f8bf16;
      }

      .cls-4 {
        fill: #f8be15;
      }

      .cls-5 {
        fill: #fde9b1;
      }

      .cls-6 {
        fill: #fffffe;
      }
    </style>
  </defs>
  <!-- Generator: Adobe Illustrator 28.6.0, SVG Export Plug-In . SVG Version: 1.2.0 Build 709)  -->
  <g>
    <g id="Layer_1">
      <g id="Layer_1-2" data-name="Layer_1">
        <path class="cls-1" d="M461.8,768.2c-1.7.9-3.7.7-5.7.8-36.4-.4-102.2-.1-127.4-.9-2.6-.4-3.3-1.6-4.9-4.1-1.3-2.2-3.2-5.5-5.7-9.8-11-18.9-25.6-43.8-37.2-63.8-4.9-8.4-9.6-16.4-14.3-24.5-1.6-2.7-3-5.1-4.5-7.7-2.6-4.6-2.6-5.5,0-10.1,6.4-10.7,12.6-20.9,19.1-31.9,14.1-23.4,30.9-51.6,44.2-73.6,2-3.6,4.4-3.8,8.2-3.8,21.6.3,97.2.2,127,.9,1.4.2,2.3.5,3.2,1.2,13,19.1,49.8,84.9,63.2,106.7,1.6,2.7,2.6,4.4,2.9,5.8.6,2.8-1.5,5.2-2.8,7.7-13.8,21.4-51.9,89.1-65.2,106.9h0Z"/>
        <path class="cls-1" d="M731,766.2c2.6,6.3-1.4,9.9-5.2,16.8-16.9,28-46.7,77.4-57,94.5-1.4,2.1-2.5,4.6-4.6,5.8-.9.5-2,.6-3.6.7-33-.1-106.2-.3-129.2-.7-2.7-.3-3.6-1.1-5.2-3.6-1.3-2.1-3.2-5.3-5.8-9.7-11-18.8-26-44.2-37.7-64.2-6.2-10.5-12-20.4-18-30.6-3.9-6.3-4-7.2,0-13.6,3.8-6.3,7.4-12.4,11.4-18.9,16.3-27.1,35.5-59.1,51.3-85.1,2-3.5,4.6-3.5,8.3-3.5,22.6.5,101.3-.1,127.8,1,2.9.7,3.9,3.4,5.5,5.9,12.5,21.6,47.8,81.1,61.8,105.3h0Z"/>
        <path class="cls-1" d="M868.5,542.5c13.2,17.8,50.5,86.1,64.1,107.6,1.4,2.5,3.4,4.9,2.7,7.7-.4,1.4-1.4,3.1-3,5.8-13.7,21.7-51.3,87-64.5,106.1-.8.7-1.8,1-3.2,1.2-29.6.3-104.6-.6-126.6-.5-3.7,0-6.2,0-8.2-3.6-12.5-20.9-27.9-47.5-41-69.8-5.7-9.7-11.1-19-16.6-28.3-3.2-6.2-8.8-11.1-5.6-17.8,5.7-10.8,12.4-20.7,18.7-31.6,12.1-20.1,27.5-45.7,38.9-64.6,2.6-4.2,4.5-7.5,5.8-9.6,1.6-2.5,2.4-3.5,5-3.9,25.4-.5,91.3.5,127.8.5,1.9,0,3.9,0,5.6.8h0Z"/>
        <path class="cls-1" d="M734,311.8c1.7-.9,3.7-.7,5.7-.8,36.4.4,102.2,0,127.4.8,2.6.4,3.3,1.6,4.9,4.1,1.3,2.2,3.2,5.5,5.8,9.8,11,18.9,25.6,43.7,37.3,63.7,5,8.5,9.7,16.6,14.5,24.7,1.6,2.7,3,5.1,4.5,7.7,2.6,4.6,2.6,5.5,0,10.1-6.4,10.7-12.6,20.9-19.1,31.9-14.1,23.4-30.9,51.6-44.2,73.6-2,3.6-4.4,3.8-8.1,3.8-21.6-.3-97.3-.2-127.1-.8-1.4-.2-2.3-.5-3.2-1.2-13-19.1-49.8-85-63.2-106.8-1.6-2.7-2.6-4.4-2.9-5.8-.6-2.8,1.5-5.2,2.8-7.7,13.8-21.4,51.8-89.1,65.1-106.9h0Z"/>
        <path class="cls-1" d="M465,313.7c-2.5-6.5,1.7-10.2,5.3-16.8,1.5-2.5,3-4.9,4.5-7.5,17.2-28.5,43.4-72.3,53.5-88.9,1.7-2.9,3.2-4.5,6.9-4.4,31,0,105.5.6,126.5.6,2,0,3.8,0,5.3.8.9.5,1.7,1.4,2.6,2.9,1.3,2.1,3.2,5.3,5.7,9.7,11,18.8,26.1,44.3,37.8,64.3,6.5,11.1,12.6,21.5,18.9,32.2,2.7,4.7,2.7,5.5,0,10.2-2.6,4.3-5.1,8.4-7.8,12.9-17.9,29.6-38.5,64.2-55.9,92.8-1.7,2.5-2.7,3.2-5.4,3.5-20.9.3-98.5-.5-123.8-.5-5.6,0-8.3.5-10.9-4-13.5-23.1-49.6-83.9-63.3-107.6h0Z"/>
        <path class="cls-1" d="M327.5,537.5c-13.2-17.8-50.6-86.1-64.2-107.6-1.3-2.5-3.4-4.9-2.7-7.7.4-1.4,1.4-3.1,3-5.8,13.7-21.7,51.3-87,64.5-106.1.8-.7,1.8-1,3.2-1.2,29.6-.4,104.9.5,126.7.4,3.7,0,6.2.1,8.2,3.7,12.5,20.9,28,47.6,41.1,69.8,5.7,9.6,11.1,18.8,16.5,28.1,3.3,6.3,8.8,11.2,5.6,18-5.7,10.7-12.3,20.5-18.6,31.4-12.1,20.1-27.5,45.7-38.9,64.7-2.6,4.2-4.5,7.5-5.8,9.6-1.6,2.5-2.4,3.6-5,3.9-25.4.5-91.3-.5-127.8-.5-1.9,0-3.9,0-5.6-.8h0Z"/>
        <path class="cls-1" d="M598.8,249c52.3,0,82,60,48.4,100.6-14.1,17.1-37.6,25.4-59.4,21.5-39.8-6.1-63.4-50.4-46.1-86.3,10-21.8,32.8-35.9,56.9-35.8h.2Z"/>
        <path class="cls-1" d="M800.2,364c52.3,0,82,60,48.4,100.6-14.1,17.1-37.6,25.4-59.4,21.5-39.8-6.1-63.4-50.4-46.1-86.3,10-21.8,32.8-35.9,56.9-35.8h.2Z"/>
        <path class="cls-1" d="M800.2,592.5c52.3,0,82,60,48.4,100.6-14.1,17.1-37.6,25.4-59.4,21.5-39.8-6.1-63.4-50.4-46.1-86.3,10-21.8,32.8-35.9,56.9-35.8h.2Z"/>
        <path class="cls-1" d="M395.1,364c52.3,0,82,60,48.4,100.6-14.1,17.1-37.6,25.4-59.4,21.5-39.8-6.1-63.4-50.4-46.1-86.3,10-21.8,32.8-35.9,56.9-35.8h.2Z"/>
        <path class="cls-1" d="M396,594c52.3,0,82,60,48.4,100.6-14.1,17.1-37.6,25.4-59.4,21.5-39.8-6.1-63.4-50.4-46.1-86.3,10-21.8,32.8-35.9,56.9-35.8h.2Z"/>
        <path class="cls-1" d="M598.8,709c52.3,0,82,60,48.4,100.6-14.1,17.1-37.6,25.4-59.4,21.5-39.8-6.1-63.4-50.4-46.1-86.3,10-21.8,32.8-35.9,56.9-35.8h.2Z"/>
      </g>
      <g>
        <path class="cls-5" d="M936.8,665.5c-.1,0-.3,0-.6.2-.2-15.4-.2-30.8-.2-46.5.1-.3.3-.3.6,0,.2,8.1.2,15.8.2,23.6,0,7.5,0,15.1.1,22.6h0Z"/>
        <path class="cls-4" d="M1024.7,439.2c-.3-7.4-.4-14.8-.4-22.2,0-7.6,0-15.2,0-23.1,1.2-.3,2.5-.5,3.8-.5h271.6v112.5c.2,0,.4,0,.6.1,1.1-2.1,2.1-4.2,3.2-6.3,6.1-11.7,14.3-21.6,25.7-28.6,8.2-5.1,17.2-8,26.8-9.2,3.9-.5,7.9-1.1,11.8-1,15.1.3,29.8,2,43.1,10,10.5,6.3,17.8,15.4,22.5,26.6,4.2,9.9,6.2,20.4,6.6,31.1.3,8.7.4,17.4.4,26,0,43,0,85.9,0,128.9v3.7c-2.4.7-48,.9-52.8.2v-3.6c0-45.8,0-91.6,0-137.4,0-6.4-.5-12.9-2.3-19.2-3.8-13.6-13.4-20.8-26.6-23-14.7-2.4-27.8,1.9-39.2,11.7-9,7.7-13.8,17.7-16.5,28.9-1.6,6.4-2.5,12.9-2.7,19.5-.2,7.1-.4,14.2-.4,21.3,0,32.7,0,65.4,0,98.1v3.9h-53v-248.2h-77.3c-.1,10.3,0,20.6,0,30.9,0,10.4,0,20.8,0,31.1v186.2h-60.9c0-.1-.2-.2-.2-.2s-.2-.2-.2-.2c0-.4-.1-.8-.1-1.2,0-82,0-163.9,0-245.8,0-.1,0-.2-.2-.7-1.1,0-2.3,0-3.5,0h-75.5c-1.3,0-2.5,0-4,0h0Z"/>
        <path class="cls-2" d="M1760.4,532.5v-138.5c2.5-.7,49.5-.9,56.3-.4,0,0,.2.1.2.2s.1.2.2.2c0,.2,0,.4,0,.6,0,.3,0,.6,0,.9,0,39.3,0,78.6,0,117.9,0,0,0,.2,0,.3,0,0,.1.2.2.2,0,0,.2.2.2.2,39,0,78,.1,116.9.2.7,0,1.4,0,2.5-.1v-120.6h57.1v294h-57c-.1-3.8,0-7.6,0-11.4,0-3.9,0-7.8,0-11.6v-104.2h-120c-.2,3.8,0,7.6,0,11.5,0,3.9,0,7.8,0,11.6v104.2h-56.8v-155.2h0Z"/>
        <path class="cls-4" d="M2572.7,426c12.8-13.6,28.2-23,45.4-29.2,8.7-3.1,17.6-5.1,26.8-6.4,11.8-1.7,23.6-1.9,35.4-1.1,25,1.6,48.2,8.9,68.5,24.3,11.3,8.6,19.6,19.3,23.9,33,1.6,5.1,2.4,10.3,2.9,15.7.9,8.8-.2,17.3-2.4,25.7-2.1,8.1-6,15.4-11.1,22-8.1,10.4-18.2,18.1-31,22-2.5.8-5.1,1.2-7.6,1.8-1,.2-2,.5-3.7.9,9.2,1.7,17.5,4,25.2,7.8,17.7,8.8,30.6,22.1,37.1,41,2.6,7.5,3.5,15.3,3.4,23.2-.2,11.9-2.7,23.2-8.3,33.8-5.3,9.9-12.5,18.2-21.3,25.3-15.3,12.3-32.8,19.5-51.8,23.3-9.5,1.9-19.2,3.2-28.9,3.3-4.6,0-9.2.5-13.8.4-20.3-.7-40.1-3.8-58.8-12.3-12.5-5.7-23.5-13.5-33.6-22.9-6.4-6-12.1-12.5-16.8-19.8-4.3-6.6-7.7-13.7-10-21.2-.2-.8-.4-1.6-.6-2.7,18-4.1,35.9-8.2,53.9-12.3,1.3,3.2,2.4,6.2,3.7,9.1,3.5,8.1,8.2,15.3,14.4,21.5,8.2,8.1,18.2,13.2,29.4,16.1,9.3,2.3,18.8,2.9,28.3,2.4,12.3-.7,24-3.5,34.4-10.3,7.7-5,14.1-11.3,17.8-19.8,4.4-10.1,4.2-20.4.2-30.5-5.8-14.5-16.2-24.1-31.2-28.6-7.3-2.2-14.7-3.2-22.3-3.1-12.4,0-24.7,0-37.1,0h-3.6v-42c1,0,2.1-.1,3.2-.1,8.4,0,16.8.1,25.2,0,8.4-.1,16.7-.8,24.8-3,8.4-2.3,16.4-5.7,23.3-11.3,6.5-5.3,10.3-12.1,11.9-20.1,1.5-7.6,1.1-15.2-1.3-22.6-2.8-8.7-8.4-15-16.2-19.6-7.3-4.3-15.1-6.7-23.4-7.5-5.5-.5-11.1-.9-16.6-.5-24.1,1.6-42.4,12.4-53.5,34.3-1.3,2.6-2.5,5.3-4,8.2-17.2-2.8-34.5-5.6-52.1-8.4,3.9-15.1,11-28.2,21.9-39.5h0Z"/>
        <path class="cls-4" d="M3099.9,621.2h-128.1c-.1-1-.2-1.8-.2-2.6,0-11.4,0-22.8,0-34.3,0-1.8.7-3.2,1.7-4.6,10.7-14.9,21.4-29.7,32.1-44.6,21.4-29.7,42.7-59.5,64.1-89.2,13.5-18.9,27.1-37.7,40.6-56.6.9-1.2,1.7-2.1,3.5-2.1,18.3,0,36.7,0,55,0s.8,0,1.2.1c.1.1.2.2.3.3,0,0,.1.2.2.3,0,.2,0,.4.1.6s0,.4,0,.6c0,61.8,0,123.7,0,185.5,0,.1,0,.2,0,.3s0,.2.2.6h46.5c.7,2.6,1,38.5.4,45.5-3.8.2-7.6,0-11.4,0-4,0-8,0-11.9,0h-23.6c-.5,3.8-.2,7.4-.2,11,0,3.7,0,7.3,0,11v44.5h-58.9v-66.4h-11.5M3114.6,445.2c-4.2,6.2-8.5,12.4-12.7,18.7-16.6,24.7-33.2,49.3-49.7,74-7.7,11.5-15.4,22.9-23.1,34.4-.7,1-1.3,2-2.1,3.3h84.4v-3.6c0-22,0-44,0-66,0-10.5,0-20.9,1.1-31.3.6-5.6,1.3-11.2,1.8-16.8.4-4.2.6-8.5,1.1-12.7v-.5c-.1.1-.2.3-.7.5h0Z"/>
        <path class="cls-4" d="M2131.3,626.4c-8.2-22-16.3-43.7-24.4-65.5-6.4-17.2-12.8-34.3-19.2-51.4-3.4-9.2-6.8-18.4-10.2-27.7-.3-.7-.6-1.5-1.4-2.1v208h-53.1v-217.4h105.5c17.9,48.6,36,97.4,54.2,146.9,17.8-49.4,35.2-98.1,52.8-146.9h41.8c-26.4,72.6-52.7,145-79,217.5h-44.1c-1.1-2.8-2.2-5.6-3.2-8.5-6.4-17.2-12.9-34.5-19.3-51.7-.1-.3-.2-.6-.3-1.1h0Z"/>
        <path class="cls-4" d="M2348.4,651.4c8.3,2.3,16.5,2.8,24.8,1.9,7.5-.8,14.6-2.5,21.2-6.1,9-4.9,15.6-12.2,20.4-21.2,1.3-2.4,2.4-4.9,3.7-7.7,15.7,2,31.5,4,47.9,6.1-1.2,3.1-2.1,6-3.2,8.7-7,16.4-18,29.5-32.4,39.9-13.5,9.8-28.7,15.4-45,17.9-8.7,1.3-17.4,2-26.2,1.7-17.2-.5-33.9-3.6-49.3-11.6-17.5-9-31.1-22.2-40.7-39.3-7-12.5-11.1-25.9-12.8-40.1-.7-5.5-.9-11-1.3-16.5-.9-14.8.8-29.4,4.9-43.6,4.3-14.9,11.4-28.3,21.4-40.1,12-14.3,26.9-24.4,44.6-30.2,10.4-3.4,21.1-5.3,32-5.5,3.3,0,6.7-.5,10-.4,15,.5,29.8,2.6,43.6,8.8,9.1,4.1,17.4,9.5,24.7,16.5,16.6,16,26.3,35.7,30.8,58.1,1.4,7,2.4,14,2.5,21.1,0,3.9.3,7.7.4,11.6,0,1.2-.3,2.4-.5,3.9h-159.7c0,3.4-.3,6.5,0,9.6.6,6.1,1.1,12.3,2.4,18.3,4.1,19.8,16.6,32,35.7,38.3M2315.9,530.4c-3.1,7.1-4.9,14.6-5.7,22.5h105c-.2-2.3-.4-4.4-.6-6.4-.7-7.5-2.9-14.6-6.7-21-5.8-9.7-13.8-16.9-24.3-21.3-8-3.4-16.3-4.2-24.9-3.7-7.4.5-14.4,2.4-20.9,6-9.9,5.4-17,13.4-21.9,24h0Z"/>
        <path class="cls-4" d="M1541.4,466.8c7.7-.6,15.1-1.5,22.4-1.4,15,.3,29.8,2.5,43.6,8.7,9.3,4.1,17.6,9.5,24.9,16.6,16.5,16,26.1,35.6,30.7,57.9,1.4,7,2.4,14,2.5,21.1,0,3.9.3,7.7.4,11.6,0,1.2-.2,2.4-.4,4h-159.7c0,3.4-.3,6.7,0,9.8.6,5.9,1.4,11.8,2.3,17.7,3.3,21.1,22.4,37.1,41.3,40,12.4,1.9,24.6,1.3,36.3-3.4,11.1-4.5,19.1-12.7,24.6-23.2,1.3-2.4,2.4-4.9,3.7-7.7,15.7,2,31.5,4,47.8,6-1.1,3-1.9,5.8-3,8.4-6.2,14.7-15.7,26.8-28.1,36.8-14.6,11.8-31.4,18.6-49.8,21.4-8.6,1.3-17.2,2-25.9,1.7-17.3-.6-34.1-3.7-49.6-11.7-17.4-9-30.9-22.1-40.4-39.2-7-12.5-11.1-25.9-12.8-40.1-.7-5.5-.9-11-1.3-16.5-1-15,.8-29.8,5-44.3,4.2-14.2,11-27.1,20.4-38.6,9.1-11.1,20-19.9,32.9-26.1,10-4.9,20.6-8,32-9.4M1524.6,512.6c-12.1,10.6-17,24.6-18.7,40.1,3.2.7,102.3.6,105.1-.2-.4-3.4-.7-6.9-1.4-10.4-2.2-12.5-8.3-22.7-18.1-30.7-7.2-5.9-15.4-9.5-24.7-10.6-15.6-1.9-29.7,1.1-42.2,11.7h0Z"/>
        <path class="cls-4" d="M3352.5,461.8c6.2-6.5,12.2-12.9,18.3-19.3.8-.9,1.7-1.8,3-3.1h-179.7c1.5-15.5,3.2-30.5,4.8-45.8h224c0,1,.2,1.9.2,2.8,0,10.7,0,21.4,0,32.1,0,1.9-.6,3.4-1.8,4.8-15.4,18.7-30,37.9-43.2,58.2-8.9,13.6-17.1,27.6-24.1,42.2-8.5,17.8-14.5,36.5-18.9,55.7-3.7,16.3-6.6,32.7-8.3,49.4-.9,8.5-1.8,17-2.5,25.5-.6,6.7-.8,13.3-1.3,20,0,1.1-.4,2.2-.6,3.4h-64.6c0-2.4-.2-4.7,0-7.1.5-5.2,1.1-10.4,1.6-15.5,1.5-13.8,3.9-27.5,7-41,5.4-23.5,13.2-46.2,23.3-68.1,12.8-27.7,28.9-53.3,48-77.1,4.6-5.8,9.6-11.3,14.6-17.1h0Z"/>
        <path class="cls-4" d="M3009.9,404.2c0,8.4,0,16.5,0,24.5,0,1.7-.5,3-1.5,4.3-11.9,14.2-23.1,29-33.7,44.1-9.9,14.2-19.1,28.7-27.3,44-6.8,12.6-12.7,25.7-17.2,39.3-4.5,13.3-7.9,26.9-10.6,40.6-2.8,14.3-5.1,28.8-6.5,43.3-.9,9.7-1.7,19.3-2.5,29-.3,3.7-.4,7.5-.7,11.3,0,1-.4,2-.6,3.1h-64.9c2.7-47.4,13.6-92.4,33.9-135.1,20.3-42.6,48.2-79.8,81.8-112.6-.1-.3-.1-.4-.2-.4,0,0-.1-.1-.2-.2,0,0-.2,0-.3,0-.2,0-.4,0-.6,0h-176.4c-.1,0-.2,0-.3,0-.1,0-.2,0-.3,0s-.2,0-.3-.1c0,0-.2-.1-.6-.4,1.6-14.8,3.2-29.8,4.7-44.8,2.3-.6,218.7-.9,224.2-.2v10.5h0Z"/>
        <path class="cls-3" d="M2076.1,420.5v24.3h-52.7c-.7-2.1-.9-45.7-.3-51.2h53v26.9h0Z"/>
        <path class="cls-6" d="M3115,445.1c0-.1.2-.3.3-.4,0,.2,0,.3-.1.5-.1,0-.2,0-.2,0h0Z"/>
      </g>
    </g>
  </g>
</svg>