<?xml version="1.0" encoding="utf-8"?>
<!-- Generator: Adobe Illustrator 28.0.0, SVG Export Plug-In . SVG Version: 6.00 Build 0)  -->
<svg version="1.1" id="Layer_1" xmlns="http://www.w3.org/2000/svg" xmlns:xlink="http://www.w3.org/1999/xlink" x="0px" y="0px"
	 viewBox="0 0 1920 1080" style="enable-background:new 0 0 1920 1080;" xml:space="preserve">
<style type="text/css">
	.st0{fill:none;stroke:#F9BE14;stroke-width:17;stroke-miterlimit:10;}
</style>
<g id="Layer_1_00000099663461588906610510000009303516297144568998_">
	<polygon class="st0" points="288.5,627.4 173.4,626.8 116.4,526.8 174.5,427.4 289.6,428 346.6,528 	"/>
	<polygon class="st0" points="516.2,623.7 516.7,623.7 519.1,628 461,727.4 345.9,726.8 288.9,626.8 347,527.4 461.6,528 	"/>
	<polygon class="st0" points="635.1,429.4 692.1,529.4 634,628.7 519.4,628.1 464.8,532.4 464.4,532.4 461.9,528.1 520,428.7 	"/>
	<polygon class="st0" points="520.7,228.8 635.8,229.4 692.8,329.3 634.8,428.7 519.7,428.1 462.6,328.1 	"/>
	<polygon class="st0" points="293.1,232.5 292.6,232.5 290.1,228.2 348.2,128.8 463.3,129.4 520.3,229.4 462.3,328.8 347.6,328.2 	
		"/>
	<polygon class="st0" points="174.2,426.9 117.2,326.9 175.2,227.5 289.9,228.1 344.4,323.8 344.9,323.8 347.4,328.1 289.3,427.5 	
		"/>
	<circle class="st0" cx="405.2" cy="228.8" r="53.5"/>
	<circle class="st0" cx="577" cy="328.8" r="53.5"/>
	<circle class="st0" cx="577" cy="527.4" r="53.5"/>
	<circle class="st0" cx="231.5" cy="328.7" r="53.5"/>
	<circle class="st0" cx="232.3" cy="528.7" r="53.5"/>
	<circle class="st0" cx="405.2" cy="628.7" r="53.5"/>
</g>
</svg>
